<svg version="1.1" xmlns="http://www.w3.org/2000/svg" xmlns:xlink="http://www.w3.org/1999/xlink" width="27.7447" height="17.99427" viewBox="0,0,27.7447,17.99427"><g transform="translate(-222.73968,-149.50573)"><g data-paper-data="{&quot;isPaintingLayer&quot;:true}" fill="#9966ff" fill-rule="nonzero" stroke="none" stroke-width="0.5" stroke-linecap="butt" stroke-linejoin="miter" stroke-miterlimit="10" stroke-dasharray="" stroke-dashoffset="0" style="mix-blend-mode: normal"><path d="M247.75214,160.23223c0.09643,0.13298 0.18668,0.26919 0.27145,0.40829l0.04091,-0.02728l1.98104,2.97156c0.27681,0.40239 0.43883,0.88987 0.43883,1.41519c0,1.38071 -1.11929,2.5 -2.5,2.5c-0.29691,0 -0.58173,-0.05176 -0.84593,-0.14675l-2.94464,-0.98155l0.06943,-0.20829l-0.59319,-0.0368c-0.61066,-0.59592 -3.53169,-3.38143 -5.69359,-5.62414c-2.70613,0.00685 -9.48409,0.01339 -9.94879,-0.19279c-0.30621,-0.13586 -0.74122,-0.42105 -1.23182,-0.8167c-1.24847,-0.09308 -2.24151,-1.10308 -2.30793,-2.3588c-1.763,-2.27255 -2.85456,-5.21703 0.04027,-7.07368c2.0643,-1.32397 4.93819,0.06909 7.33283,0.59822c1.1271,0.24905 2.01812,1.12109 3.02249,1.68996c0.13451,0.07618 0.69956,0.39806 1.47684,0.84186c0.0801,-0.26652 0.14931,-0.53234 0.19867,-0.7969c0,0 0.60634,-2.42536 3.0317,-1.81902c2.42536,0.60634 1.81902,3.0317 1.81902,3.0317c-0.1299,0.34854 -0.35839,0.69669 -0.57203,1.04491c0.41043,0.13263 0.88452,0.38155 1.2183,0.84876h1.92837c1.38071,0 2.5,1.11929 2.5,2.5c0,0.31811 -0.05941,0.62234 -0.16775,0.9022c0.55019,0.37 1.04739,0.79478 1.43552,1.33003z"/></g></g></svg>