<svg version="1.1" xmlns="http://www.w3.org/2000/svg" xmlns:xlink="http://www.w3.org/1999/xlink" width="51.48792" height="96.62436" viewBox="0,0,51.48792,96.62436"><g transform="translate(-214.67593,-105.77956)"><g data-paper-data="{&quot;isPaintingLayer&quot;:true}" fill-rule="nonzero" stroke-linecap="butt" stroke-linejoin="miter" stroke-miterlimit="10" stroke-dasharray="" stroke-dashoffset="0" style="mix-blend-mode: normal"><path d="" fill="#f50000" stroke="none" stroke-width="0.5"/><path d="" fill="#00f54f" stroke="none" stroke-width="0"/><path d="" fill="#00f54f" stroke="#000000" stroke-width="0.5"/><path d="M240.14409,189.68554c-4.53603,0 -8.2132,-3.77655 -8.2132,-8.43518c0,-4.65863 3.67717,-8.43519 8.2132,-8.43519c4.53603,0 8.21321,3.77656 8.21321,8.43519c0,4.65862 -3.67718,8.43518 -8.21321,8.43518z" fill="#66ff8d" stroke="#000000" stroke-width="2"/><path d="M265.47136,181.10768c0.16016,0.93934 -0.27612,1.87953 -0.41312,2.82816c0.00174,0.6208 -0.00814,1.27329 -0.05002,1.92823c0.12003,3.41557 1.0114,7.76196 -0.08382,10.56937c-0.7751,1.98685 -1.54195,4.39265 -3.41669,5.40937c-1.96416,1.06522 -4.48285,0.33276 -6.70277,0.07869c-1.72874,-0.19786 -3.86197,-0.0524 -5.21568,-1.05352c-1.43321,0.06291 -2.78915,-0.18432 -3.79322,-1.07391c-2.99761,-2.65584 -1.53232,-6.49501 0.50117,-9.46818c-1.10094,0.52302 -2.84099,-0.03969 -4.15532,0.058c-3.13618,0.23312 -6.32266,0.22823 -9.51107,0.16759c-0.00053,0.00732 -0.00106,0.01465 -0.0016,0.02199c-0.12361,1.67957 0.34778,3.68638 -0.70193,5.00333c-1.37207,1.72138 -3.72897,2.41291 -5.80124,3.15549c-1.00976,0.36184 -2.1449,0.11011 -3.21699,0.0761c-1.97587,-0.06268 -4.34175,0.82544 -5.91928,-0.36594c-1.63287,-1.23318 -1.73243,-3.74355 -2.16918,-5.74262c-0.5577,-2.55269 0.65936,-8.77982 0.91104,-10.68172c0.3797,-2.86933 0.6352,-5.75572 1.08251,-8.61529c0.22077,-1.41136 1.60456,-7.22552 2.66613,-7.90494c7.93443,-5.0781 10.49332,-2.70521 10.86815,5.81504c0.0069,0.15688 -0.00059,0.31095 -0.02034,0.46262c1.51103,-0.34367 3.02109,-0.63862 4.47552,-0.86798c-0.01941,-0.19518 -0.01941,-0.31218 -0.01941,-0.31218l0.03282,-0.36077c-0.93856,-7.6411 -0.47678,-15.47215 -0.47678,-23.16896c0,0 0,-4.25 4.25,-4.25c4.25,0 4.25,4.25 4.25,4.25c0,7.32988 -0.51607,14.84341 0.41114,22.11467l0.03282,1.41506c0,0 0,0.11162 -0.01809,0.29867c1.17723,0.1066 2.35281,0.21755 3.52392,0.28135c0.0963,-0.97679 0.681,-3.94211 4.23101,-3.94211c1.86257,0 2.90887,0.81628 3.49662,1.73336c4.0357,-0.05717 9.09686,0.87798 10.36903,2.39577c2.18374,2.60537 1.03307,5.6161 0.43665,8.44857c0.03622,0.4551 0.07939,0.89417 0.14802,1.29668z" fill="#00da36" stroke="none" stroke-width="0.5"/><path d="M237.92431,106.77956c0.36779,0 0.66594,0.99384 0.66594,2.21979c0,1.22596 -0.29815,2.21979 -0.66594,2.21979c-0.36779,0 -0.66594,-0.99384 -0.66594,-2.21979c0,-1.22596 0.29815,-2.21979 0.66594,-2.21979z" fill="#00da36" stroke="#000000" stroke-width="2"/></g></g></svg>