<svg version="1.1" xmlns="http://www.w3.org/2000/svg" xmlns:xlink="http://www.w3.org/1999/xlink" width="466.74683" height="254.54625" viewBox="0,0,466.74683,254.54625"><g transform="translate(55.76245,-24.45375)"><g data-paper-data="{&quot;isPaintingLayer&quot;:true}" fill-rule="nonzero" stroke-linejoin="miter" stroke-miterlimit="10" stroke-dasharray="" stroke-dashoffset="0" style="mix-blend-mode: normal"><path d="M56.98439,279v-150h87v150z" fill="#636363" stroke="none" stroke-width="0" stroke-linecap="butt"/><path d="M139.98438,279v-80h158v80z" fill="#636363" stroke="none" stroke-width="0" stroke-linecap="butt"/><path d="M297.98438,279v-145h84v145z" fill="#636363" stroke="none" stroke-width="0" stroke-linecap="butt"/><path d="M28.98439,139v-38h147v38z" fill="#636363" stroke="none" stroke-width="0" stroke-linecap="butt"/><path d="M275.98438,150v-46h135v46z" fill="#636363" stroke="none" stroke-width="0" stroke-linecap="butt"/><path d="M28.98439,101v-39h26v39z" fill="#636363" stroke="none" stroke-width="0" stroke-linecap="butt"/><path d="M81.98439,102v-39h30v39z" fill="#636363" stroke="none" stroke-width="0" stroke-linecap="butt"/><path d="M143.98438,102v-33h31v33z" fill="#636363" stroke="none" stroke-width="0" stroke-linecap="butt"/><path d="M276.98438,104v-28h27v28z" fill="#636363" stroke="none" stroke-width="0" stroke-linecap="butt"/><path d="M327.98438,105v-31h26v31z" fill="#636363" stroke="none" stroke-width="0" stroke-linecap="butt"/><path d="M376.98439,105v-33h33v33z" fill="#636363" stroke="none" stroke-width="0" stroke-linecap="butt"/><path d="M193.98438,278v-68h57v68z" fill="#6b2400" stroke="none" stroke-width="0" stroke-linecap="butt"/><path d="M256.48438,224c-1.31409,0.9816 -2.43192,1.56731 -3.27806,2.14699c-0.20867,0.40341 -0.52397,0.74273 -0.90861,0.98066c-0.19007,0.19549 -0.37622,0.3952 -0.5609,0.59648c-0.25232,0.56819 -0.34486,1.28342 -0.25243,2.27587l-0.80964,1.99733c0.20701,0.31329 0.41313,0.65972 0.61934,1.04596c0.47097,0.88215 0,2 0,3l2,3.91342c-2.0888,0.451 -4.16112,1.71941 -6.26641,1.35299c-3.38657,-0.58943 -3.0587,-3.68775 -4.07608,-5.80991c-1.3656,-0.01755 -2.46721,-1.13002 -2.46721,-2.49979c0,-0.17238 0.01745,-0.34068 0.05067,-0.50324c-0.0446,-0.15718 -0.06373,-0.32203 -0.05067,-0.49676c0.0402,-0.53788 0.19373,-1.0233 0.42948,-1.46649c-2.20789,-1.86096 -3.81455,-3.7856 -6.31623,-5.45339c-1.06833,-0.71222 -2.20782,-1.32965 -3.19822,-2.14677c-0.54652,-0.4509 -0.71034,-1.3696 -1.37174,-1.62366c-0.762,-0.29271 -1.64124,0.30736 -2.44375,0.15802c-1.35581,-0.2523 -2.74047,-0.61652 -3.91387,-1.34109c-0.73054,-0.45111 -1.39319,-1.03007 -1.96455,-1.68479c-0.60312,-0.10625 -1.21642,-0.35462 -1.76441,-0.13214c-0.75644,0.3071 -0.94007,1.40066 -1.64238,1.81693c-1.81356,1.07491 -4.18876,0.92119 -6,2c-0.61567,0.36671 -1.23297,0.90109 -1.8403,1.5117c0.01711,0.11809 0.02597,0.23884 0.02597,0.36167c0,1.1246 -0.74256,2.07576 -1.76412,2.38994l-1.00425,0.33475c-0.33256,0.37941 -0.65472,0.73393 -0.96386,1.04308c-5.06361,5.06361 -8.93119,10.93119 -14,16c0,0 -1.76777,1.76777 -3.53553,0c-1.76777,-1.76777 0,-3.53553 0,-3.53553c2.45462,-2.45462 4.69092,-5.05949 6.89878,-7.68805l-3.43153,0.85788l-2.85355,0.95118c-0.2642,0.09499 -0.54902,0.14675 -0.84593,0.14675c-0.8255,0 -1.55754,-0.4001 -2.01281,-1.01695c-0.63687,-0.10628 -1.23179,-0.31941 -1.75496,-0.71528c-2.07302,-1.56859 -0.32108,-7.46323 0.64114,-9.08209c1.28086,-2.15497 3.6529,-4.07829 6.31996,-5.63872c0.22379,-0.47948 0.49613,-0.99985 0.8199,-1.56444c0.20397,-0.35569 0.44992,-0.67184 0.72911,-0.95432c-0.61866,-0.61401 -1.10675,-1.30623 -1.21007,-2.12774c-0.22703,-1.80518 1.85434,-3.40579 1.84356,-5.17578l-3.72362,-0.74472c-1.16847,-0.20987 -2.05512,-1.23166 -2.05512,-2.46053c0,-1.37709 1.11342,-2.49413 2.48914,-2.49998l3.90132,-0.01941l0.00018,0.0357c0.07055,-0.01013 0.1413,-0.01938 0.21226,-0.02772c1.77388,-0.20835 3.55754,0.42656 5.2861,0.87617c1.81851,0.473 4.0149,0.52335 5.31397,1.88096c0.84564,0.88375 1.27643,2.12371 1.49357,3.4597c0.92343,-0.41435 1.8528,-0.80805 2.83576,-1.0286c2.32881,-0.52252 4.82291,-0.2922 7.08003,-1.06795l2.94464,-0.98155c0.2642,-0.09499 0.54902,-0.14675 0.84593,-0.14675c0.76883,0 1.4566,0.34705 1.91519,0.89304l2.23888,-0.74629c0.2642,-0.09499 0.54902,-0.14675 0.84593,-0.14675c1.20499,0 2.21086,0.85252 2.44738,1.98731c2.34979,-0.01469 5.80908,0.06936 6.75681,1.33305c0.0199,0.02653 0.03743,0.053 0.05271,0.07941c1.18065,-0.39147 2.43434,-0.66215 3.5587,-0.2509l1.41663,-1.41663c0.45241,-0.45241 1.07741,-0.73223 1.76777,-0.73223c1.07866,0 1.99777,0.68314 2.34828,1.64037c0.63095,-0.15637 1.28599,-0.28012 1.86115,-0.51207l2.94464,-0.98155c0.2642,-0.09499 0.54902,-0.14675 0.84593,-0.14675c1.38071,0 2.5,1.11929 2.5,2.5c0,0.69036 -0.27982,1.31536 -0.73223,1.76777l-0.43157,0.43157c0.66493,0.52344 1.30557,1.417 1.9735,2.84396c0.54764,1.16999 0.66742,2.28979 0.49818,3.35382c0.33372,0.39481 0.57941,0.83678 0.67995,1.35654c0.4368,2.25812 -0.62755,3.35951 -1.87584,4.32281l0.15577,0.15577v0c0.0565,0.0565 0.11031,0.11569 0.16121,0.17736zM233.52261,217.02811c-0.20623,0.06327 -0.41217,0.11681 -0.61787,0.16193c0.22772,0.14277 0.44804,0.29806 0.663,0.4625c-0.01927,-0.205 -0.03433,-0.41307 -0.04513,-0.62444zM191.15623,227.52637c-0.22284,-0.23197 -0.41268,-0.49588 -0.56216,-0.79701l-0.61638,-0.15409c-0.24504,0.57544 -0.25928,1.2533 -0.5256,1.82518c-0.13361,0.2869 -0.84376,0.69246 -0.7804,0.80338l1.92594,-1.28396l0.0212,0.03181c0.05744,-0.05075 0.11568,-0.10073 0.17478,-0.14988c0.1093,-0.0909 0.2306,-0.18276 0.36262,-0.27543zM236.73696,213.62619c0.27775,0.63319 0.5385,1.24973 0.79307,1.85177c-0.02995,-0.15471 -0.04564,-0.31451 -0.04564,-0.47797c0,-0.20299 0.02419,-0.40032 0.06985,-0.58928c-0.05263,-0.30462 -0.06796,-0.62679 -0.06189,-0.95903c-0.03602,0.00457 -0.07186,0.0099 -0.10751,0.01603c-0.21981,0.03786 -0.43524,0.09275 -0.64788,0.15848zM224.65191,212.52146c-0.03014,-0.00181 -0.06027,-0.00352 -0.09038,-0.00513c0.00238,0.00614 0.00476,0.01229 0.00712,0.01845c0.00509,-0.00084 0.01018,-0.00168 0.01528,-0.0025c0.02264,-0.00365 0.0453,-0.00726 0.06798,-0.01082zM202.41892,209.65824c-0.04949,-0.46895 -0.12403,-0.81615 -0.23461,-0.92338c-0.75182,-0.72902 -1.78197,-0.86378 -2.8886,-0.85855c0.12138,0.42364 0.1922,0.85562 0.18238,1.30091c-0.01513,0.68651 -0.46484,1.23683 -0.9432,1.78563c0.21506,-0.1533 0.45542,-0.27339 0.71361,-0.35279l2.94531,-0.98177l0.05362,0.16086zM197.4521,212.59954c-0.01957,0.07197 -0.00098,0.12351 0.04356,0.16143c0.02022,-0.21315 0.0672,-0.4185 0.13754,-0.61266c-0.07632,0.14467 -0.13848,0.29449 -0.1811,0.45123zM242.2645,223.71688c0.03005,-0.10799 0.06094,-0.21576 0.09266,-0.32344c-0.36661,-0.31609 -0.73472,-0.62689 -1.11395,-0.89892c0.31375,0.41051 0.65238,0.81761 1.02129,1.22236z" fill="#636363" stroke="none" stroke-width="0.5" stroke-linecap="butt"/><path d="M195.98438,202l-2,37l1,-40" fill="none" stroke="#ffde00" stroke-width="4.5" stroke-linecap="round"/><path d="M242.98438,238l1,-37" fill="none" stroke="#ffde00" stroke-width="4.5" stroke-linecap="round"/><path d="M264.9118,128.20578c-5.08549,0.87184 -10.17097,1.74367 -15.25646,2.61551c-8.23827,4.2297 -16.49769,8.49617 -24.95248,12.11564c-5.02959,2.15315 -10.24853,3.97498 -15.45444,5.78531l1.86572,0.07957c3.94918,-1.77987 7.91793,-3.50085 11.91904,-5.11379c7.745,-3.12219 15.70115,-5.80436 23.53443,-8.69926c6.11512,-2.25994 12.22981,-4.52105 18.34419,-6.78298zM113.16971,181.87209c3.07818,-1.75606 6.15154,-3.54682 9.22806,-5.3435c1.23375,-1.4975 2.51363,-2.94435 3.84645,-4.32355c1.79493,-1.8574 4.1115,-3.12102 6.2219,-4.61812c0.27739,-0.54325 0.55795,-1.08492 0.84399,-1.6219c-5.45742,1.60737 -10.89598,3.28813 -16.32466,4.79532c-9.14148,2.99883 -18.74766,5.40065 -27.35519,9.7118c-2.9485,1.47678 -5.88689,2.97402 -8.84814,4.42505c1.97106,-0.13756 3.97122,-0.11377 5.93483,-0.29228c7.56272,-0.68752 15.40526,-0.84544 22.89609,-2.07718c1.18653,-0.1951 2.37212,-0.41696 3.55665,-0.65564zM195.4564,154.79366c-1.59169,0.23641 -3.18347,0.4722 -4.7753,0.70768c-4.75933,1.81 -9.50018,3.65371 -14.2274,5.52602c-1.3623,0.97011 -2.72399,1.94108 -4.08489,2.91316l-2.90766,2.0769c-0.41378,0.3034 -0.92435,0.48258 -1.47677,0.48258c-0.91058,0 -1.70745,-0.48682 -2.14455,-1.21439c-9.29062,3.77255 -18.54237,7.64153 -27.79253,11.56781c4.9254,-0.83666 9.86583,-1.60611 14.80159,-2.37895c7.76237,-3.13048 15.50717,-6.29317 23.10898,-9.754c6.59223,-3.00121 12.9279,-6.78499 19.49854,-9.9268zM132.05106,182.9946c-2.2973,0.42898 -4.58913,0.88038 -6.87341,1.36161c-0.98111,0.20655 -1.96327,0.42244 -2.94637,0.64215c-0.78627,1.10545 -1.55367,2.22616 -2.30501,3.35627c2.04777,-0.91796 4.09561,-1.83491 6.14385,-2.7499c1.98577,-0.88709 3.98016,-1.75557 5.98094,-2.61014zM88.47871,202.38917c1.58769,-1.83844 3.2772,-3.64514 4.9935,-5.57598c0.3519,-0.39588 6.72425,-7.58102 6.94711,-7.7627c0.03633,-0.02961 0.31737,-0.19366 0.75782,-0.445c-6.32681,0.58189 -12.73105,0.86445 -18.98696,1.43157c-1.81084,0.16416 -10.29029,1.43263 -11.41973,-0.8758c-2.34963,-4.80233 5.59332,-7.6267 7.67949,-8.68912c4.45292,-2.26775 8.97071,-4.86648 13.58339,-6.78417c7.53379,-3.13213 15.74821,-5.17133 23.50371,-7.71323c7.37433,-2.04946 14.76728,-4.40999 22.20053,-6.48302c1.28009,-1.22956 2.73806,-2.30667 4.02496,-3.52922c1.84654,-1.75422 3.70908,-3.50064 5.58772,-5.23633c-2.73746,0.22718 -5.54161,-0.21926 -8.30224,-0.22608c-4.07805,3.35853 -8.04778,6.90958 -12.56362,9.49992l-3.9798,2.98485c-0.42124,0.32311 -0.94829,0.51515 -1.5202,0.51515c-1.38071,0 -2.5,-1.11929 -2.5,-2.5c0,-0.1134 0.00755,-0.22504 0.02218,-0.33443l0.41042,-3.43629l0.26855,0.03207l-0.07008,-0.75237c0.28305,-0.33647 0.56624,-0.67282 0.84957,-1.00906c-1.3718,-0.01041 -2.48063,-1.12568 -2.48063,-2.49993c0,-0.33777 0.06698,-0.65989 0.1884,-0.95381l0.59694,-1.54619c-3.06127,0 -6.12255,0 -9.18382,0c-2.75958,1.01229 -5.51032,2.04489 -8.26279,3.00568c-14.162,4.94345 -28.324,9.8869 -42.486,14.83036c-8.05514,2.81176 -15.66782,6.37493 -23.27075,10.09734c-4.85905,3.25812 -9.59684,6.77373 -14.40067,10.02794c-0.33894,0.2296 -8.51617,5.7832 -8.66146,5.82121c-0.14102,0.0369 -0.28263,0.06937 -0.42476,0.09781l0.01125,0.04502l-3.94561,0.9864c-0.21047,0.05753 -0.43201,0.08824 -0.66073,0.08824c-1.38071,0 -2.5,-1.11929 -2.5,-2.5c0,-0.62356 0.22829,-1.19379 0.60585,-1.63169l1.93523,-2.27311c1.2033,-1.38662 2.16074,-3.03265 3.6099,-4.15985c3.73442,-2.90475 9.63469,-4.79123 13.89568,-6.88452c3.37538,-1.65822 6.72297,-3.32575 10.07837,-4.95451c7.11949,-4.44242 14.47914,-8.19953 22.02218,-12.05558c6.93396,-3.54469 13.86429,-7.08561 20.83764,-10.54073c-7.16162,0 -14.32323,0 -21.48485,0c-6.66667,0 -13.33333,0 -20,0h-5c-1.38071,0 -2.5,-1.11929 -2.5,-2.5c0,-1.1246 0.74256,-2.07576 1.76412,-2.38994l2.94531,-0.98177l0.09802,0.29407c4.30493,-2.79648 9.01293,-5.06507 13.8485,-7.07061c-0.39577,-0.32556 -0.78128,-0.66262 -1.15514,-1.01153c-1.44884,-1.35217 -3.41983,-2.34275 -4.2773,-4.12943c-0.85747,-1.78669 -0.39884,-3.94394 -0.54577,-5.92028c-0.34629,-4.65798 0.08205,-10.03171 1.94829,-14.52194c-1.94094,0.80239 -3.87913,1.61168 -5.814,2.4294c-6.22854,3.32545 -12.23863,7.03522 -18.63308,9.98098l0.08882,0.08882l-2,2l-0.87006,-0.87006c-0.83652,0.34688 -1.6808,0.67846 -2.53411,0.99231l0.7821,-2.52502c-10.13731,4.23617 -20.24066,8.5547 -30.15924,13.2419c-7.5344,3.56051 -15.0688,7.12103 -22.6032,10.68154c-3.01376,1.42421 -5.82274,3.40538 -9.04128,4.27262l-4.47326,2.11392c-0.33581,0.16772 -0.71465,0.26207 -1.11554,0.26207c-1.38071,0 -2.5,-1.11929 -2.5,-2.5c0,-0.8299 0.40438,-1.56535 1.02684,-2.02006l3.98138,-2.97582l0.00198,0.00265l0.00679,-0.00917c4.0295,-2.95728 8.01528,-6.37966 12.27168,-8.99578c7.0717,-4.34649 15.07115,-7.64799 22.47826,-11.40217c4.46246,-2.26172 8.93104,-4.92433 13.5437,-6.85708c4.61266,-1.93276 9.64456,-3.25096 14.38639,-4.84594c5.87684,-1.97675 11.75368,-3.9535 17.63052,-5.93025c2.29845,-1.38169 4.61594,-2.73255 6.97492,-3.93596c5.92476,-3.02245 12.04056,-5.7701 18.23456,-8.35425c2.75068,-3.41103 5.50395,-6.81993 8.26813,-10.22009c9.19786,-6.7467 18.50555,-13.1004 26.83656,-20.90199c1.21653,-1.13922 2.25538,-2.50446 3.64959,-3.41767c0.86175,-0.56445 3.54019,-0.06055 2.95414,-0.90776c-0.59615,-0.8618 -2.00128,0.83971 -3.04708,0.77339c-3.70911,-0.2352 -7.02202,-1.96126 -8.76123,-5.48239c-0.99672,-2.0179 0.13504,-6.73752 1.29146,-8.43208c1.5977,-2.34118 4.49358,-3.45041 6.79953,-5.1058c-11.30036,4.55878 -22.60816,9.08437 -34.03461,13.34092c-4.68774,1.74626 -9.38805,3.7474 -14.16098,5.24248c-1.34733,0.42204 -2.90895,0.27763 -4.11174,1.01704c-0.78015,0.47959 -0.92923,1.57832 -1.39384,2.36749c0,0 -1.38675,2.08013 -3.46688,0.69338c-2.08013,-1.38675 -0.69338,-3.46688 -0.69338,-3.46688c0.86872,-1.21084 1.36312,-2.81053 2.60616,-3.63251c1.60403,-1.0607 3.68287,-1.11108 5.5035,-1.73018c4.69333,-1.59595 9.32614,-3.44571 13.97173,-5.17628c16.05489,-5.98072 31.85701,-12.53113 47.77255,-18.86816l3.90999,-2.33201c0.38227,-0.23717 0.83323,-0.37412 1.31618,-0.37412c1.38071,0 2.5,1.11929 2.5,2.5c0,0.69036 -0.27982,1.31536 -0.73223,1.76777l-3.53553,3.53553l-0.02132,-0.02132c-0.03995,0.05135 -0.08034,0.1024 -0.12117,0.15315c-1.08524,1.34898 -2.7941,2.04523 -4.19224,3.06635c0,0 -8.07991,5.89195 -8.07991,5.89195c-1.91006,1.39283 -4.37541,2.19496 -5.79935,4.08194c-5.12924,6.79715 10.49281,5.9629 11.28896,8.82009c0.50387,1.80829 -6.52599,7.96994 -7.99464,9.34526c-8.32282,7.79394 -17.56018,14.21463 -26.80769,20.87474c-0.73663,0.92239 -1.47424,1.84399 -2.21262,2.76496c4.66651,-1.82836 9.34463,-3.59705 13.98725,-5.3525c2.35682,-0.89116 4.68114,-1.80963 7.01284,-2.68177c3.88054,-2.18321 7.75678,-4.37224 11.65262,-6.51263c3.163,-1.22066 6.21382,-2.78814 9.49105,-3.65669c1.99191,-0.5279 4.59679,-2.47512 6.09113,-1.0562c0.89335,0.84826 0.43833,9.60894 -0.10655,11.60446c-0.26546,0.97222 -0.59588,1.93899 -0.96696,2.90104c3.91392,-0.77466 7.8554,-1.506 11.71693,-2.45891c4.59214,-1.1332 9.63617,-3.65304 14.33501,-4.09744l4.7521,-1.35774c0.23453,-0.07283 0.48384,-0.11205 0.74232,-0.11205c1.38071,0 2.5,1.11929 2.5,2.5c0,1.03935 -0.63424,1.93056 -1.53681,2.30771l-4.37879,1.94613c-10.87578,4.83136 -22.05653,9.11308 -33.27539,13.25264c-2.07346,5.35721 -4.01553,10.76531 -6.37813,15.99352c0.60181,0 1.20361,0 1.80542,0c2.91543,-1.89017 6.31392,-3.34522 9.12707,-4.98365c5.29575,-3.08435 10.75848,-6.28424 16.32697,-8.84631c7.33516,-3.37492 15.09717,-5.60922 22.33997,-9.22191l0.19768,-0.01623l-0.01584,-0.04964l4.70778,-1.50224c0.25562,-0.08817 0.53001,-0.13605 0.81558,-0.13605c1.23563,0 2.26189,0.89643 2.46392,2.07442c4.56399,-3.42678 9.17504,-7.33727 14.09262,-10.00717c0.17826,-0.09678 9.16677,-3.76818 9.51684,-3.91139c8.61313,-3.52356 17.24814,-6.95283 25.93781,-10.28361l0.15721,-0.00053l-0.01025,-0.04101l3.94561,-0.9864c0.21047,-0.05753 0.43201,-0.08824 0.66073,-0.08824c1.38071,0 2.5,1.11929 2.5,2.5c0,0.55242 -0.17917,1.06299 -0.48258,1.47677l-2.88928,4.04499c-0.65259,1.21115 -1.41481,2.33263 -2.34936,3.23492c-0.22021,0.21261 -7.93277,5.85642 -8.36442,6.17296c-6.71663,4.92553 -13.45724,9.82019 -20.15069,14.77714c-6.8645,5.08363 -13.40939,10.64495 -19.61984,16.57048c0.21232,0.15558 0.40454,0.34233 0.5726,0.56624c1.15813,1.54307 -0.90807,3.9137 -2.18557,5.35949c-0.15273,0.17285 -7.02682,3.79203 -8.89349,4.7742c-2.46597,2.67597 -4.87027,5.40552 -7.21176,8.18002c4.79869,-1.04159 9.59321,-2.07259 14.3391,-3.18792c1.06475,-0.25023 2.12921,-0.50226 3.19344,-0.7557c1.90548,-0.92717 3.80225,-1.85577 5.67005,-2.80954c6.38294,-3.25937 12.76504,-6.51962 19.14198,-9.78991c1.77241,-1.25558 3.55698,-2.48996 5.35376,-3.70135c10.61617,-7.15739 22.68401,-12.78228 33.84453,-19.0677c17.48185,-9.84549 35.17262,-19.1137 53.03724,-28.24451c7.16086,-3.66 14.22107,-7.18991 21.66451,-10.23495c3.08516,-1.26211 5.98912,-3.12143 9.25547,-3.78633l4.57564,-1.87185c0.30588,-0.13343 0.64363,-0.20744 0.99867,-0.20744c1.38071,0 2.5,1.11929 2.5,2.5c0,0.97227 -0.55502,1.81491 -1.36551,2.22836l-2.8417,1.52139c-4.24056,2.59265 -8.48166,5.18442 -12.72276,7.77621c-11.24667,6.86619 -23.51624,12.24756 -35.29968,18.14257c-19.3685,9.68966 -38.57725,19.67707 -57.80324,29.64611c-4.07724,2.11412 -8.15839,4.22045 -12.24228,6.32135c5.22775,-1.96763 10.46533,-3.91074 15.71668,-5.82032c10.6238,-3.8632 21.20798,-7.91492 31.84883,-11.77707c12.50892,-5.78657 24.92535,-11.69151 37.25881,-17.85824c5.96285,-2.98142 11.9257,-5.96285 17.88854,-8.94427c0.5184,-0.2592 9.00788,-4.5159 9.33145,-4.62685c2.71496,-0.93093 5.68748,-0.77691 8.5335,-1.14813c3.72957,-0.48647 6.78721,-0.80159 9.97695,-0.82615l-0.06094,-0.46724l4.91778,-0.64145c0.11869,-0.01729 0.24009,-0.02625 0.36357,-0.02625c1.38071,0 2.5,1.11929 2.5,2.5c0,0.86122 -0.43548,1.62073 -1.09824,2.07034l-2.47244,1.72532l-0.0395,-0.0566l-0.1164,0.15701c-6.09822,3.03812 -12.19857,5.8377 -18.47746,8.4816c-9.21504,3.88023 -18.36949,8.27169 -27.76476,11.68771c-7.83754,2.84965 -16.0433,4.72865 -23.95013,7.38266c-4.98158,1.67212 -9.94097,3.42434 -14.88791,5.21839c-1.02507,0.47468 -2.05086,0.94834 -3.07739,1.421c-7.12812,3.28146 -14.17993,6.74624 -21.21354,10.24704c2.17086,-0.33671 4.34613,-0.64891 6.52641,-0.93329c4.958,-0.6467 9.916,-1.29339 14.87401,-1.94009c3.30533,-0.43113 6.58664,-1.45604 9.916,-1.29339l1.85204,-0.24157c5.87577,-2.75387 11.74539,-5.52573 17.65916,-8.1928c3.04717,-1.37425 5.92378,-3.29638 9.18732,-4.01963l4.53063,-1.98215c0.31982,-0.1486 0.67632,-0.23155 1.0522,-0.23155c1.38071,0 2.5,1.11929 2.5,2.5c0,0.24859 -0.03628,0.48871 -0.10384,0.71534l1.66914,-0.4769c0.23453,-0.07283 0.48384,-0.11205 0.74232,-0.11205c1.38071,0 2.5,1.11929 2.5,2.5c0,0.78854 -0.36507,1.49181 -0.93542,1.95001l-3.85693,3.14853c-2.78574,3.10068 -5.21067,3.8844 -8.83749,5.67538c-0.97309,0.48052 -1.94642,0.96055 -2.91994,1.4402c3.65488,-0.6134 7.31058,-1.22654 10.9783,-1.79087c0.26438,-0.04068 10.10308,-1.56007 10.18316,-1.54834c0.0994,0.01456 0.19843,0.03063 0.2971,0.04812l0.00351,-0.03973l4.71865,0.41667c1.28951,0.09956 2.30486,1.17745 2.30486,2.4925c0,0.64007 -0.24054,1.22396 -0.63616,1.6662c0.54582,0.4586 0.89274,1.14626 0.89274,1.91494c0,1.1246 -0.74256,2.07576 -1.76412,2.38994l-2.83196,0.94399c-1.43145,0.69106 -2.86289,1.38213 -4.29434,2.07319c-24.10639,11.60678 -48.8476,21.7203 -73.54716,31.9736c11.91028,-1.80175 24.04978,-2.85094 35.8296,-4.46462c9.23126,-1.26456 18.78929,-3.4095 28.10798,-3.4161c3.33333,-0.00236 6.71544,-0.56812 10,0h5c1.38071,0 2.5,1.11929 2.5,2.5c0,1.16503 -0.79692,2.14394 -1.87537,2.42133l-2.35548,0.6632c-9.21817,2.58593 -18.90932,3.51443 -28.37939,4.89549c-14.8353,2.16349 -29.67057,4.32718 -44.50591,6.49034c-14.59628,2.40813 -29.19267,4.81564 -43.78906,7.22316c-15.4958,6.04472 -31.14443,11.63022 -46.68804,17.63625c-5.82,2.24884 -11.54696,4.75437 -17.33242,7.09093c-0.53053,0.21426 -1.04919,0.48222 -1.5674,0.7528c10.34165,-2.39339 20.68469,-4.77988 31.03134,-7.1508c9.17918,-3.1793 18.43289,-6.08749 27.90078,-8.19769c33.73218,-7.51821 67.47599,-14.92979 101.28673,-22.08522c1.63705,-0.78296 3.28518,-1.50652 4.94249,-2.09738c6.12952,-2.18525 13.05547,-3.13802 19.38766,-4.65326c13.08349,-3.13076 26.01966,-6.10164 39.3018,-8.2555c4.93502,-0.80027 9.86623,-1.63453 14.80658,-2.40107c1.84386,-0.28609 3.73441,-1.30756 5.53672,-0.8245c0.19406,0.05201 0.38256,0.1159 0.56629,0.18999l0.02327,-0.0698l2.94531,0.98177c1.02156,0.31417 1.76412,1.26534 1.76412,2.38994c0,1.2792 -0.96075,2.334 -2.20004,2.48219l-3.03049,0.40964c-23.80373,3.21766 -47.29148,8.9046 -70.78411,14.09707c0.61554,0.45538 1.01464,1.18663 1.01464,2.0111c0,0.69036 -0.27982,1.31536 -0.73223,1.76777l-3,3l-0.13703,-0.13703l-0.33333,0.50625c-8.70963,2.87504 -17.40393,5.80029 -26.09791,8.72688c5.78306,-1.12983 11.56611,-2.25965 17.34917,-3.38948c6.7405,-1.30611 13.44498,-1.27106 20.29646,-1.49604c11.66038,-0.38288 23.32076,-0.76577 34.98115,-1.14865c8.36515,-0.27468 16.70755,-0.32891 25.07689,-0.32814c4.66394,0.00043 10.42453,-0.83274 15.004,0.0014c0.00133,0.00024 0.00266,0.00049 0.00399,0.00073l0,-0.00072l4.99893,0.01645c1.37741,0.00387 2.49282,1.12167 2.49282,2.49999c0,1.22888 -0.88665,2.25067 -2.05512,2.46053l-4.69257,0.93851c-7.76829,3.08534 -15.40925,6.65818 -23.60526,8.35135c-33.89042,6.9374 -67.81392,13.62462 -101.83613,19.88529c-8.34827,1.53623 -16.56393,2.42637 -25.02504,3.09932c-3.14802,0.25038 -10.0388,1.57355 -12.15685,-2.39158c-2.32112,-4.34529 2.7843,-8.90718 4.98078,-11.40845c0.97477,-1.11003 1.85581,-2.31668 2.89538,-3.36254c-19.72938,6.51946 -39.24045,13.31041 -58.65321,20.81674c-6.22135,2.40561 -12.44694,4.80532 -18.69246,7.14764c-1.72253,0.64602 -3.33762,1.96431 -5.1766,1.91381c-0.17448,-0.00479 -0.34675,-0.02024 -0.51711,-0.04493l-0.00386,0.07123l-2.62636,-0.14218c-1.3254,-0.06217 -2.38089,-1.15643 -2.38089,-2.49721c0,-1.0731 0.67611,-1.98829 1.62559,-2.34282l4.54203,-1.81681c6.90325,-3.19891 13.74748,-6.77892 20.80093,-9.62686c6.19105,-2.49973 12.70289,-4.4104 19.0117,-6.59918c9.44947,-3.27839 18.89086,-7.15565 28.51112,-9.88504c5.56539,-1.57897 11.45036,-2.49092 17.24185,-3.46944c0.66372,-0.21739 1.3277,-0.43452 1.99193,-0.6514c3.01119,-0.98315 6.01603,-1.98453 9.01706,-2.99674c2.35053,-1.63294 4.72337,-3.24064 7.16726,-4.64351c2.69413,-1.54652 5.48773,-2.97045 8.32875,-4.32838c-19.65593,3.64627 -39.12548,8.46547 -58.63174,12.81907c-14.26667,3.18418 -28.52051,6.42122 -42.76764,9.68722c-9.52463,3.27994 -18.97032,6.83927 -28.42775,10.10045c-10.31502,3.5569 -21.02686,7.10405 -31.88505,8.7387l0.08373,0.32296l-4.78519,1.2406c-0.21686,0.06137 -0.44569,0.09421 -0.6822,0.09421c-1.38071,0 -2.5,-1.11929 -2.5,-2.5c0,-0.36939 0.08011,-0.72006 0.22391,-1.0356l0.44623,-1.0412c-6.20662,1.58834 -12.44309,3.15612 -18.61418,4.90224c-4.12536,1.67019 -8.27999,3.26515 -12.42871,4.88522c-0.17221,0.06725 -9.47608,3.70369 -9.52183,3.70802c-0.07298,0.00691 -0.14596,0.01311 -0.21894,0.01862l0.00671,0.03357l-4.85228,0.97046c-0.17418,0.03842 -0.35518,0.05867 -0.54091,0.05867c-1.38071,0 -2.5,-1.11929 -2.5,-2.5c0,-1.04715 0.6438,-1.94393 1.55718,-2.31612l3.16116,-1.37228c7.77724,-3.37615 15.87669,-5.99933 24.08616,-8.31881c0.24839,-0.10116 0.49657,-0.20277 0.74452,-0.30486c8.86036,-3.64828 17.66711,-7.43894 26.44532,-11.29877zM87.40702,212.30503c-0.0488,0.08985 -0.09716,0.18013 -0.14507,0.27085l0.04577,0.17654c1.31136,-0.66625 2.74209,-1.14254 4.15935,-1.53036c-0.02095,0.00486 -0.0419,0.00971 -0.06284,0.01457c-1.32886,0.36157 -2.66159,0.71703 -3.99721,1.0684zM233.18066,191.42934c-1.81501,1.26941 -3.6262,2.53422 -5.45054,3.74479c-3.90914,2.59397 -7.12096,5.60279 -9.97875,9.37536c-0.5588,0.73767 -1.79626,1.62819 -1.33836,2.43239c0.47078,0.82683 1.89515,0.24306 2.84623,0.21587c1.50439,-0.043 2.99584,-0.29211 4.4949,-0.42573c8.29629,-0.73947 16.34283,-1.52608 24.53917,-3.03435c33.98954,-6.25466 67.88042,-12.93555 101.73831,-19.86628c4.68994,-0.9504 9.20775,-2.58109 13.67252,-4.36937c-4.93902,-0.00046 -9.87804,-0.00075 -14.81707,-0.00138c-13.29609,-0.00169 -26.60999,0.71048 -39.89887,1.14684c-9.76543,0.32066 -19.9042,-0.1565 -29.49645,1.73414c-15.43703,3.01591 -30.87407,6.03181 -46.3111,9.04772zM99.29702,197.59668c4.11921,-1.83615 8.23438,-3.68094 12.34813,-5.52676c1.12061,-1.83346 2.27101,-3.67226 3.46061,-5.49297c-0.04976,0.01039 -0.09951,0.02076 -0.14927,0.0311c-1.14,0.64853 -2.28074,1.29195 -3.42263,1.92877c-2.6558,1.48112 -5.63028,2.48786 -7.98442,4.41269c-1.62776,1.33091 -2.9402,2.98864 -4.25241,4.64717zM203.24906,144.72546c-1.03405,0.63955 -2.06651,1.27669 -3.09875,1.90465c7.50665,-2.72799 15.25155,-5.15034 22.5848,-8.28969c3.69353,-1.58119 7.35369,-3.27342 10.99213,-5.03076c-1.73039,0.28597 -3.43312,0.62961 -5.05805,1.09472c-7.75896,2.22087 -15.42774,6.27012 -22.91403,9.3051c-0.83537,0.33866 -1.67073,0.67732 -2.5061,1.01599zM282.6841,126.96136c-11.45991,4.24229 -22.92101,8.48133 -34.38324,12.71737c-7.77664,2.87398 -15.67536,5.53609 -23.36529,8.63324c-3.41204,1.37421 -6.79717,2.83869 -10.16572,4.35357c-0.33746,0.55517 -0.88509,0.96848 -1.53244,1.12948l-2.35648,0.64268c-6.94308,3.20101 -13.83217,6.5519 -20.75838,9.70019c-1.64572,0.74805 -3.28033,1.50363 -4.90652,2.27002c3.65285,-0.87693 7.31117,-1.72986 10.95852,-2.59505c0.74525,-0.31297 1.48994,-0.62771 2.23402,-0.94435c28.11496,-11.96381 56.54546,-23.11668 84.27552,-35.90715zM154.17202,179.32675c-7.62247,3.07241 -15.25791,6.12206 -22.78847,9.39984c0.89674,-0.35634 1.79469,-0.70879 2.69409,-1.05637c7.74416,-2.99275 15.51473,-5.88028 23.27948,-8.77227c-0.02302,-0.01976 -0.04568,-0.03992 -0.06796,-0.06049c-1.03868,0.16381 -2.07779,0.32667 -3.11714,0.48928zM157.74361,155.04702c3.33045,-0.5173 6.68657,-0.95371 10.03853,-1.37973c1.22725,-0.47335 2.44875,-0.95135 3.65862,-1.44183c0.18379,-0.07451 0.36757,-0.14902 0.55136,-0.22352c13.38475,-6.72594 26.62809,-13.68312 39.88167,-20.70498c8.21274,-3.02588 16.38905,-6.04371 24.51142,-9.21936c-3.27516,0.4272 -6.55033,0.85439 -9.82549,1.28159c-7.81039,1.01875 -15.55656,2.39882 -23.26537,3.98522c-0.3683,0.18154 -0.73667,0.36288 -1.10512,0.54398c-7.30767,3.59191 -15.28618,6.69606 -22.24104,10.921c-7.71274,4.68533 -14.96255,10.61202 -22.20457,16.23765zM277.48846,91.51267c1.11231,-0.3661 2.21913,-0.74658 3.3186,-1.14634c9.31669,-3.38745 18.39472,-7.74894 27.5329,-11.59681c2.64128,-1.11218 5.25091,-2.25195 7.84266,-3.42535c-2.93589,0.06033 -5.86619,0.13222 -8.46739,1.04661c-7.49858,2.63595 -14.85303,7.46539 -21.9735,11.02562c-2.74855,1.37427 -5.49944,2.7396 -8.25327,4.09626zM147.68533,123.59004c0.67239,-0.69098 1.34731,-1.3797 2.02343,-2.0675c-0.26515,-0.01335 -0.50881,-0.02253 -0.72439,-0.02253c-3.33333,0 -6.66667,0 -10,0c-6.35666,0 -12.71332,0 -19.06997,0c-2.34462,1.01512 -4.66391,2.11909 -6.43432,3.50321c-2.50948,1.96194 -4.3178,4.68444 -6.49125,7.01314c-2.15937,2.31361 -4.86929,4.20273 -6.51582,6.90543c-0.13293,0.21821 -0.24892,0.44438 -0.3523,0.67648c11.14606,-5.43328 22.75499,-11.1603 34.69887,-13.24652l4.69373,-0.80743c0.15256,-0.02909 0.31003,-0.04431 0.47106,-0.04431c0.85344,0 1.607,0.42764 2.05808,1.08033c1.88019,-0.9981 3.7599,-1.99747 5.64288,-2.99029zM153.98438,116.5c0.20016,0.02201 0.40631,0.03625 0.61692,0.04493c3.44888,-3.54518 6.78441,-7.48752 10.49847,-10.74359c2.40652,-2.10977 4.94244,-4.11206 7.5426,-6.05348c-7.44512,2.51294 -14.89853,5.00197 -22.3546,7.48314c-0.77422,0.34719 -1.54717,0.69627 -2.319,1.04717c-1.7277,2.16713 -3.60749,4.22579 -5.65823,6.15719l-2.19414,2.05591c4.55027,-0.06688 9.40297,-0.48231 13.86798,0.00873zM-9.50213,129.26537c5.33746,-2.36874 10.69435,-4.69151 16.06249,-6.98958c-2.40567,0.75891 -4.79648,1.55859 -7.0799,2.51537c-3.04517,1.27596 -6.0251,2.88402 -8.98259,4.47421zM102.45495,96.59482c0.06994,-0.1763 0.14007,-0.35254 0.21041,-0.52871c0.09947,-0.24914 0.20204,-0.49843 0.30719,-0.74788c-4.9916,0.99604 -9.98667,1.98323 -14.97163,3.00965c-2.91086,2.2254 -5.8107,4.46561 -8.68313,6.74381c1.42654,-0.52661 2.85309,-1.05323 4.27963,-1.57984c6.26031,-2.31101 12.56233,-4.58543 18.85753,-6.89703zM56.91929,109.74435c2.71591,-2.00927 5.43753,-4.10965 8.18215,-6.22221c-0.23652,0.0606 -0.47296,0.12147 -0.70933,0.1826c-4.32764,1.71142 -8.65253,3.4295 -12.96816,5.17082c-1.2269,1.31928 -2.40381,2.67062 -3.21336,4.26198c-0.67841,1.33356 -0.73932,2.89975 -1.12989,4.34408c-0.78767,2.91281 -1.05885,5.99003 -0.92785,9.00462c0.05878,1.35261 -0.523,2.84059 0.06279,4.06119c0.58579,1.2206 2.10944,1.6989 3.12907,2.58961c1.05196,0.91894 2.17833,1.76406 3.36005,2.5234c3.86119,-1.45491 7.73649,-2.80881 11.4905,-4.19187c9.32313,-3.43484 18.672,-6.75733 28.04611,-10.00736c-5.61422,-0.14453 -11.5082,-0.61163 -16.96877,0.02213c-4.77229,0.55388 -9.79279,2.32096 -14.47237,3.41722l-0.16095,-0.01474l0.00379,0.03624l-4.93833,0.51628c-0.09659,0.01134 -0.19487,0.01716 -0.29451,0.01716c-1.38071,0 -2.5,-1.11929 -2.5,-2.5c0,-0.55628 0.18168,-1.07012 0.48895,-1.48542l2.37247,-3.28937c-1.19615,-0.18669 -2.11138,-1.22145 -2.11138,-2.46997c0,-0.49014 0.14105,-0.94733 0.38477,-1.3332l2.57663,-4.2379l0.12279,0.07466zM131.13511,132.32293c-3.09826,0.89689 -5.99592,2.08814 -9.18871,3.3572c-6.18554,2.45862 -12.24078,5.14097 -18.2714,7.9056c0.76864,0.0569 1.53709,0.11288 2.3054,0.16789c1.9767,-0.79669 3.95427,-1.59122 5.93089,-2.38811c6.6292,-2.67261 12.93606,-5.78202 19.22382,-9.04259zM143.24385,104.25396c0.99599,-0.90203 2.05297,-1.75372 3.14191,-2.57038c0.42064,-0.64796 0.85111,-1.27893 1.31045,-1.87778c-6.07534,2.64827 -12.40178,4.63218 -18.43158,7.40651c-3.22653,1.48453 -6.35511,3.14674 -9.4422,4.88209c0.36869,-0.12311 0.73741,-0.24616 1.10617,-0.36917c7.44084,-2.48203 14.87712,-4.97934 22.31525,-7.47127zM160.57179,138.9543c-2.79698,1.09214 -5.59387,2.18531 -8.39136,3.27808c-0.97653,0.38146 -1.95279,0.77017 -2.92913,1.16392c-1.00077,0.55344 -1.98429,1.12622 -2.9436,1.72474c-0.1242,0.07749 -0.24803,0.15566 -0.37148,0.23448c1.0398,-0.10515 2.07454,-0.17913 3.04494,0.14341c0.33433,0.00071 0.66873,0.00107 1.00322,0.00107h3.11075c2.46514,-2.20679 4.95727,-4.39079 7.47666,-6.5457zM93.5043,142.78461c0.12297,-0.05791 0.246,-0.11595 0.36909,-0.17412c0.20859,-0.55013 0.3659,-0.95186 0.42711,-1.12305c0.63417,-1.72234 0.94761,-3.59959 1.90251,-5.16701c0.17322,-0.28434 6.70868,-7.26367 7.13055,-7.71567c0.33563,-0.35961 5.08363,-5.45962 6.65906,-7.10476c-0.797,0 -1.594,0 -2.391,0c-3.00371,1.0255 -6.00453,2.05715 -9.0028,3.095l-2.19925,1.46617c-0.40239,0.27681 -0.88987,0.43883 -1.41519,0.43883c-0.40077,0 -0.77952,-0.0943 -1.11526,-0.26193c-11.64196,4.05882 -23.24809,8.21204 -34.83813,12.46394c3.65012,1.21508 7.00859,1.4554 11.1683,1.91759c7.63843,0.84871 15.28189,1.49646 22.94088,2.13471c0.12138,0.01012 0.24276,0.02021 0.36412,0.03029zM52.36225,141.26592c-3.15335,1.32051 -6.24111,2.7692 -9.3354,4.23408c4.31917,0 8.63835,0 12.95752,0c4.28517,0 8.57033,0 12.8555,0c-5.19116,-0.56957 -9.39437,-1.00252 -14.30179,-3.18478c-0.73313,-0.32601 -1.4602,-0.67531 -2.17584,-1.0493zM189.37787,87.81126c5.10139,-3.74102 11.26223,-7.203 15.82773,-11.56795c0.21412,-0.20472 0.38708,-0.44595 0.54288,-0.70209c-7.54814,2.93155 -15.06496,5.91932 -22.56205,8.98632c-2.99592,1.2256 -6.14801,2.11939 -8.9941,3.66126c-3.98672,2.15981 -7.74015,5.54291 -11.4299,8.1848c0.54709,-0.23408 1.09423,-0.46804 1.64142,-0.70187c2.86687,-1.22507 5.92993,-2.8666 9.15726,-3.02755l4.8283,-1.07296c0.19068,-0.04655 0.38994,-0.07123 0.59496,-0.07123c1.19546,0 2.19493,0.83908 2.44162,1.96042c2.68084,-1.8766 5.35364,-3.7438 7.95187,-5.64916zM94.42479,116.49828c2.08373,-4.48245 3.8583,-9.0876 5.62705,-13.70165c-4.91729,1.79664 -9.83239,3.58049 -14.72287,5.38583c-4.6906,1.73155 -9.3812,3.4631 -14.0718,5.19465c-0.04024,0.01485 -1.40243,0.51789 -3.08382,1.13853c-2.12099,1.83334 -4.30544,3.60059 -6.59086,5.05426c4.29509,-1.10732 8.79294,-2.55174 13.11366,-3.05322c6.36863,-0.73916 13.28388,-0.05741 19.72863,-0.01839zM99.40006,89.65247c-0.78905,0.60325 -1.57885,1.20537 -2.36909,1.80682c2.83068,-0.57005 5.662,-1.14093 8.49179,-1.72212c0.51419,-1.13366 1.00247,-2.27321 1.41786,-3.42021l-1.83821,0.9191l-0.00965,-0.0193l-0.05725,0.05151c-1.87528,0.80297 -3.75394,1.59724 -5.63545,2.38419zM240.79725,127.25328c0.48323,-0.07424 0.96278,-0.1514 1.43763,-0.23281c2.02765,-0.34761 4.0553,-0.69523 6.08295,-1.04284c2.84035,-1.45873 5.67692,-2.91954 8.51541,-4.35989c0.07273,-0.10994 0.15355,-0.20917 0.23953,-0.2987c-0.61269,0.23796 -1.22601,0.47456 -1.84001,0.70971c-4.73062,1.81173 -9.58116,3.50466 -14.43551,5.22453zM181.22895,132.333c-2.24781,0.53964 -4.49462,1.08426 -6.7411,1.62996c-7.55598,5.99491 -14.87549,12.31381 -21.96633,18.80137c8.11876,-6.20803 16.18714,-12.97745 24.83072,-18.22825c1.26297,-0.76723 2.55838,-1.49854 3.87671,-2.20308zM92.75945,205.79038c6.16767,-1.43079 12.33521,-2.86153 18.5031,-4.29038h-1.27817c-1.27411,0 -2.3256,-0.95312 -2.48038,-2.18525c-4.91161,2.16612 -9.82649,4.32436 -14.74455,6.47563zM265.94508,173.79891c2.41779,-0.80274 4.83884,-1.5958 7.26448,-2.37532c-1.12723,0.19727 -2.25447,0.39453 -3.3817,0.5918c-1.28317,0.60332 -2.57915,1.19598 -3.88278,1.78352zM137.65584,142.4247c-0.0468,0.05589 -0.09359,0.11179 -0.1404,0.16768c0.27069,-0.10573 0.54138,-0.21145 0.81207,-0.31717c-0.22392,0.04972 -0.44782,0.09955 -0.67168,0.1495zM130.64497,116.5c1.29647,0 2.59295,0 3.88942,0c-0.03279,-0.16155 -0.05001,-0.32877 -0.05001,-0.5c0,-0.59805 0.20999,-1.14705 0.56027,-1.57729l0.09053,-0.11316c-1.49801,0.72469 -2.99442,1.455 -4.49021,2.19045zM109.38543,94.02934c-0.13496,0.0274 -0.26993,0.05479 -0.4049,0.08215c-0.01287,0.02784 -0.02573,0.05568 -0.03858,0.08351c0.14784,-0.05518 0.29567,-0.1104 0.44348,-0.16566zM70.74792,105.56021c-2.21211,1.68872 -4.41897,3.37592 -6.63644,5.01895c0.28595,-0.11032 0.57446,-0.21711 0.86526,-0.32163c1.92311,-1.56653 3.84765,-3.13133 5.77118,-4.69732zM75.62164,157.00675c5.41439,-1.88997 10.82879,-3.77995 16.24318,-5.66992c-0.09787,-0.20951 -0.1429,-0.49493 -0.14571,-0.83683c-0.9483,0 -1.8966,0 -2.84489,0c-4.43914,2.12682 -8.85268,4.30275 -13.25258,6.50675zM128.26657,139.47667c0.31019,-0.22428 0.61871,-0.44983 0.9239,-0.678c-0.61144,0.30225 -1.22358,0.60301 -1.83656,0.90219c0.30404,-0.07518 0.60827,-0.1499 0.91266,-0.22418z" fill="#ffb900" stroke="none" stroke-width="0.5" stroke-linecap="butt"/><path d="M341.901,173.48338c-8.87405,6.56215 -17.55131,13.48748 -26.71239,19.64979l0.09906,0.09906l-3.53553,3.53553c-0.45241,0.45241 -1.07741,0.73223 -1.76777,0.73223c-1.38071,0 -2.5,-1.11929 -2.5,-2.5c0,-0.16211 0.01543,-0.32061 0.0449,-0.47412l0.6642,-3.83415l0.21228,0.03677l-0.0402,-0.61019c6.14622,-8.27552 12.91344,-15.86884 19.74328,-23.58156c1.81971,-2.05494 3.5526,-4.50701 5.45367,-6.74206c-7.78105,5.52403 -15.63013,10.91412 -23.58266,16.21852c-5.266,3.51246 -10.83452,8.53751 -16.57779,11.15256l-4.11026,2.78883c-0.40538,0.28345 -0.89872,0.44973 -1.4309,0.44973c-1.38071,0 -2.5,-1.11929 -2.5,-2.5c0,-0.59805 0.20999,-1.14705 0.56027,-1.57729l0.38165,-0.47707c-0.50281,-0.4573 -0.81845,-1.11678 -0.81845,-1.84999c0,-0.35446 0.07377,-0.6917 0.20679,-0.99719l1.30438,-3.19454c4.21905,-15.5025 12.39456,-29.36824 17.68623,-44.52187c2.16099,-6.18838 4.68779,-12.01814 5.31748,-18.55998c0.34085,-3.33929 0.27901,-6.59075 0.07822,-9.85391c-2.95948,2.30183 -5.91896,4.60366 -8.87845,6.90547c-7.64456,10.27247 -16.25145,19.93427 -24.27475,29.79896c-3.11487,3.82974 -5.99293,7.88424 -8.99215,11.80549c-1.07615,1.40698 -1.83251,3.1345 -3.23607,4.21511c-0.08307,0.06395 -0.16694,0.12663 -0.25159,0.18811l0.01729,0.02192l-3.90911,3.08354c-0.42836,0.34424 -0.97256,0.55023 -1.56488,0.55023c-1.38071,0 -2.5,-1.11929 -2.5,-2.5c0,-0.0559 0.00183,-0.11138 0.00545,-0.16637l0.13032,-2.24708c-2.74152,3.82389 -4.87843,8.10837 -7.61312,11.93671c-6.57915,9.21027 -14.37564,17.76406 -21.49897,26.56347c-4.20427,5.19351 -8.33044,10.46445 -12.6196,15.58793c-1.70106,2.03195 -3.22312,4.27007 -5.27274,5.94979l-3.30801,3.73219c-0.45819,0.52189 -1.13031,0.85133 -1.87938,0.85133c-1.38071,0 -2.5,-1.11929 -2.5,-2.5c0,-0.29523 0.05117,-0.5785 0.14513,-0.84144l1.51791,-4.58293c1.31354,-6.44297 4.20318,-11.82707 6.99857,-17.76537c5.09384,-10.82095 11.16845,-21.22902 17.08834,-31.64807c-0.90516,-0.07589 -1.75827,-0.4038 -2.50663,-1.08632c-3.25355,-2.96729 1.06777,-7.51931 2.68785,-9.48457c0.2277,-0.27622 0.45686,-0.54749 0.68753,-0.81397c0.04752,-0.20251 0.11966,-0.39554 0.21309,-0.57575l1.70783,-3.47234c0.06552,-0.13322 1.06138,-2.15993 2.10309,-4.27617c-6.18773,1.06514 -12.42845,1.91963 -18.68163,2.69396l-1.68116,3.47805l-0.08946,-0.04324l-0.07166,0.3275c-3.29974,3.85594 -6.56163,7.61565 -9.56223,11.70993c-0.35719,0.48738 -6.00489,8.21524 -6.2446,8.43381c-1.38904,1.26649 -2.99259,2.15904 -4.68562,2.86883l-4.25223,2.55134c-0.38339,0.2392 -0.83629,0.37741 -1.32147,0.37741c-1.38071,0 -2.5,-1.11929 -2.5,-2.5c0,-0.29691 0.05176,-0.58173 0.14675,-0.84593l0.98155,-2.94464l0.00922,0.00307l0.00118,-0.03364c0.42339,-1.16887 0.84678,-2.33773 1.27017,-3.5066c0.06851,-0.1891 0.71294,-1.97262 1.43539,-3.96357c-19.52126,11.67863 -40.95672,20.56908 -61.65641,29.91733c-3.41129,1.53627 -6.94739,2.79612 -10.5256,3.94789c-1.23549,0.76951 -2.47699,1.53031 -3.72615,2.2799c-4.28531,2.57153 -8.54025,5.20843 -12.86239,7.71744c-1.69357,0.98312 -3.16282,2.7548 -5.11661,2.8866c-9.89803,0.66773 -5.89799,-3.92283 -3.24274,-8.61539c1.94416,-3.43587 4.94521,-6.3008 8.25561,-8.89332c1.95723,-3.79261 4.9984,-7.11445 7.51549,-10.45853c0.76496,-1.01629 1.5348,-2.02977 2.30786,-3.04147c-0.60625,0.26167 -1.21239,0.524 -1.81843,0.787c-5.57132,2.41774 -11.12343,4.71677 -16.57094,7.20926c-0.66264,0.42124 -1.32587,0.83918 -1.99005,1.25277c-4.05787,2.52685 -8.60752,6.3268 -13.32755,7.50871l-4.50298,2.04681c-0.32776,0.15784 -0.69523,0.24629 -1.08336,0.24629c-1.38071,0 -2.5,-1.11929 -2.5,-2.5c0,-0.90176 0.47743,-1.692 1.19332,-2.13175l2.52788,-1.60865c5.63331,-3.58483 11.49098,-6.55204 17.47135,-9.2928c0.60718,-0.39087 1.2145,-0.77722 1.82273,-1.15596c6.37995,-3.97282 12.65408,-8.41749 19.26364,-11.99234c3.60815,-1.95151 7.25107,-3.84804 10.91535,-5.70958c-0.94945,-0.2762 -1.89895,-0.55186 -2.85542,-0.78704c-6.47384,-1.59182 -12.94767,-3.18363 -19.42151,-4.77545c-13.01298,-3.19969 -25.68625,-6.04876 -37.0023,-13.61307c-2.56455,-2.69325 -4.61744,-3.85678 -3.73653,-8.60947c0.36249,-1.95575 2.0734,-3.39544 3.14737,-5.06963c2.69502,-4.20118 5.50661,-8.35819 8.3205,-12.48075c0.61625,-0.90285 1.12487,-1.90528 1.71804,-2.83145c-0.25038,-0.80636 -0.49819,-1.61341 -0.74272,-2.42131c-0.5068,-1.67442 -1.39551,-3.29516 -1.58582,-5.02074l-2.53588,0c-1.38071,0 -2.5,-1.11929 -2.5,-2.5c0,-0.88153 0.45626,-1.6565 1.14551,-2.10163l2.96774,-1.97849l0.06326,0.09488l0.22512,-0.26055c0.99458,-0.33808 1.99124,-0.65796 2.99011,-0.96191c0.39151,-1.10376 0.68043,-1.90832 0.70736,-1.98445c0.14871,-0.42049 3.36794,-9.54707 3.47675,-9.7547c0.10881,-0.20763 5.78143,-8.04851 6.04256,-8.41008c0.17665,-0.24459 5.89809,-8.17258 6.00112,-8.29043c3.25393,-3.72172 7.38991,-7.00317 10.98358,-10.4014c2.38749,-2.25765 4.91016,-4.38011 7.16527,-6.77c0.05696,-0.06036 1.91073,-2.27295 3.59949,-4.28651c-6.144,2.38153 -12.2884,4.76204 -18.43263,7.14299c-12.41612,4.80848 -24.42869,10.61397 -36.86437,15.42653c-1.79384,0.69421 -3.49315,1.78984 -5.40158,2.03002c-1.32859,0.16721 -2.63934,-0.48149 -3.92491,-0.85623c-2.09927,-0.61193 -4.88472,-0.36397 -6.21489,-2.0995c-1.33759,-1.74522 -0.44952,-7.35645 -0.13035,-9.88723c0.94302,-7.47755 4.62407,-14.04281 4.60087,-21.6513c0,0 0,-2.5 2.5,-2.5c2.5,0 2.5,2.5 2.5,2.5c-0.02101,7.90775 -3.68542,14.56279 -4.63948,22.27148c-0.11902,0.96164 -0.22745,1.92476 -0.36535,2.88387c-0.1588,1.10447 -1.22985,2.44138 -0.52466,3.30613c0.73769,0.90458 2.3374,0.12108 3.48654,0.32585c0.81385,0.14502 1.55667,0.84448 2.37367,0.71842c3.04121,-0.46928 5.66845,-2.39799 8.52557,-3.54084c10.84153,-4.33661 21.3969,-9.37259 32.2723,-13.58939c7.50799,-2.90942 15.01573,-5.81947 22.52422,-8.72759l0.06147,-0.00508l-0.00485,-0.01455l4.68806,-1.56269c0.2642,-0.09499 0.54902,-0.14675 0.84593,-0.14675c1.38071,0 2.5,1.11929 2.5,2.5c0,0.61867 -0.22473,1.18486 -0.59701,1.62138l-3.20889,3.81412c-3.47593,5.6233 -9.15024,10.23927 -13.89906,14.72982c-9.06213,8.56928 -19.34145,18.15198 -23.5584,30.17684c-0.39837,1.13598 -0.79237,2.27357 -1.1879,3.41061c3.85583,-0.95676 7.74775,-1.74498 11.68307,-2.4908c1.67079,-0.51726 3.38852,-0.81146 5.13017,-0.97474c2.05007,-0.36729 4.2622,-0.70896 5.1491,-0.63864l4.93332,-0.54815c0.10227,-0.01274 0.20646,-0.0193 0.31218,-0.0193c1.38071,0 2.5,1.11929 2.5,2.5c0,1.1246 -0.74256,2.07576 -1.76412,2.38994l-2.89262,0.96421c0.21989,0.13687 0.43811,0.27894 0.65451,0.42553c4.7475,-0.11387 9.49929,-0.18018 14.2423,-0.35829c0.38491,-0.11733 0.77565,-0.23929 1.17091,-0.36273c0.4969,-1.30248 1.12807,-2.69071 1.93174,-4.29092l0.70363,-3.2494c0.21676,-1.11061 1.16881,-1.95819 2.3287,-2.01527c2.69208,-6.91137 5.19453,-13.90851 7.9468,-20.78916c2.87388,-7.18369 6.33924,-14.15427 9.09948,-21.37619c1.71392,-4.48433 2.44404,-10.57452 4.95204,-14.65204c0.09521,-0.15479 7.00132,-7.15416 7.35886,-7.45344c1.22568,-1.02594 2.40054,-3.1377 3.94499,-2.72594c2.43017,0.64789 5.89558,6.6465 7.29278,8.92872c0.99032,1.61761 2.36034,3.06766 2.93312,4.87578c0.1313,0.4145 0.09688,9.45924 0.09688,9.68921c0,8.26296 -0.91155,15.74835 -2.25089,23.89441c-3.29459,20.0382 -8.81586,39.25394 -16.35705,58.10692c-0.96328,2.40821 -1.83665,4.97324 -2.78308,7.49867c2.29701,0 4.59402,0 6.89103,0c3.52899,0 7.01993,0.09244 10.49974,0.00159c1.89839,-0.81518 8.09808,-3.69439 8.88826,-3.92552c4.05679,-1.18658 9.14518,-1.23523 13.81396,-1.02857c19.27669,-10.34875 38.24972,-21.23261 56.90855,-32.68492c0.23264,-0.26265 0.46567,-0.52482 0.69915,-0.78644c1.18062,-1.3229 2.00168,-3.0967 3.54926,-3.9621c0.09364,-0.05236 0.18825,-0.10231 0.28377,-0.15001l-0.02944,-0.04416l2.97156,-1.98104c0.40239,-0.27681 0.88987,-0.43883 1.41519,-0.43883c1.38071,0 2.5,1.11929 2.5,2.5c0,0.69036 -0.27982,1.31536 -0.73223,1.76777l-2.46447,2.46447c-1.24991,1.24215 -2.49982,2.4843 -3.74974,3.72645c-0.37127,0.2323 -0.7427,0.46432 -1.11431,0.69606c-3.83954,4.37469 -7.61934,8.84182 -11.62032,13.06034c-6.83193,7.20337 -14.62608,13.65979 -21.14765,21.1409c-1.8646,2.13894 -3.58484,4.46339 -5.27768,6.79947c9.35831,-1.09696 18.72316,-2.25531 27.95581,-3.94312c0.36748,-0.06718 0.73433,-0.13627 1.10063,-0.20703c5.20794,-8.18992 12.20559,-15.76922 18.53986,-23.05364c8.38876,-9.64707 16.76303,-19.30606 25.11928,-28.9813c4.54563,-5.26314 9.10193,-9.81629 14.36822,-14.35827c0.46953,-0.40495 7.69896,-6.66088 7.99088,-6.82313c1.6047,-0.89189 3.49163,-1.13613 5.24123,-1.69241c4.48147,-1.42486 12.19688,-6.16382 15.49467,0.22381c2.34994,4.55169 -1.39515,11.40795 -2.87018,15.59579c-0.02648,0.07486 -0.05304,0.14967 -0.0797,0.22443c0.04397,-0.01515 0.08796,-0.03024 0.13196,-0.04527c1.88913,-0.64513 3.56055,-0.93955 5.22055,-1.06618l4.85228,-0.97046c0.17418,-0.03842 0.35518,-0.05867 0.54091,-0.05867c1.38071,0 2.5,1.11929 2.5,2.5c0,0.41989 -0.10352,0.81561 -0.28642,1.16302l-1.97751,3.95502l-0.05927,-0.02963l-0.07096,0.25898c-2.71311,3.42308 -5.27721,7.34262 -8.35022,10.43245c-2.06378,2.07507 -4.57395,3.64727 -6.91576,5.40847c0.36755,4.68117 0.61797,9.26759 0.15021,14.03564c-0.72017,6.96964 -3.26847,13.12045 -5.57246,19.71161c-4.71404,13.48572 -11.68734,25.96356 -16.15219,39.46659c0.30502,-0.21548 0.60522,-0.43557 0.89105,-0.66941c3.69382,-3.02195 7.49297,-5.88637 11.29244,-8.77397c5.31895,-4.0424 10.5365,-8.30224 15.99452,-12.15387c5.44149,-3.83997 11.3017,-7.08871 16.73267,-10.94306c3.7804,-2.68294 6.87915,-5.19534 10.92477,-7.51313l2.62066,-1.49752c0.37408,-0.22304 0.81131,-0.35117 1.27847,-0.35117c1.38071,0 2.5,1.11929 2.5,2.5c0,0.82831 -0.40283,1.56254 -1.02328,2.01746l-3.97672,2.98254l-0.00321,-0.00428c-0.00671,0.0072 -0.01342,0.0144 -0.02014,0.02159c-0.00078,0.00083 -8.14426,5.81754 -8.16089,5.82941c-1.30433,0.93166 -2.61413,1.85725 -3.92436,2.78277l0.6086,0.1167v-0.24619h4c1.38071,0 2.5,1.11929 2.5,2.5c0,0.62103 -0.22645,1.18917 -0.60127,1.62636l-3.21997,3.80542l-0.27057,-0.22894c-6.01281,8.85889 -13.62688,16.78944 -20.8161,24.89123c2.49802,-1.85905 4.99669,-3.71723 7.49461,-5.57642c14.08503,-10.48341 29.5116,-20.23549 42.37688,-32.32225c0.74711,-1.03425 1.49492,-2.06798 2.24368,-3.10101c1.05053,-1.44937 1.68955,-3.32288 3.16234,-4.34031c0.10191,-0.0704 0.205,-0.13862 0.30919,-0.20479l-0.03101,-0.04087l3.9638,-3.00762c0.42293,-0.32792 0.95393,-0.52311 1.53053,-0.52311c1.38071,0 2.5,1.11929 2.5,2.5c0,0.57148 -0.19175,1.09818 -0.51443,1.51926l-2.98277,3.98125l-0.03043,-0.0228l-0.04613,0.11988c-1.65311,1.80568 -3.36592,3.54521 -5.1276,5.23039c-1.50976,2.00171 -3.15337,3.9224 -4.52448,5.82468c-2.92888,4.06352 -5.68964,8.42111 -8.86617,12.29254c-1.1378,1.38671 -2.38679,2.7063 -3.67837,4.00114c0.69594,0.00122 1.39153,0.00601 2.08651,0.01576c1.00341,-0.74264 1.98053,-1.51509 2.91393,-2.3372c6.14911,-5.41596 11.60103,-11.7729 17.00565,-17.90701l0.05276,-0.02655l-0.01455,-0.01401l2.78071,-2.88658c0.45493,-0.47364 1.09466,-0.76844 1.80325,-0.76844c1.38071,0 2.5,1.11929 2.5,2.5c0,0.54442 -0.17402,1.0482 -0.46948,1.45874l-2.84975,4.07107c-1.9713,4.30397 -6.2799,8.36327 -9.21874,12.029c-2.29298,2.86013 -3.61877,6.81895 -6.79724,8.64525c-1.49404,0.85845 -3.43845,0.24579 -5.16083,0.29593c-0.36869,0.01073 -0.73757,0.01988 -1.1066,0.02762c-3.45564,2.39697 -7.08768,4.59188 -10.23469,7.33934c-3.42459,2.9898 -5.80929,7.42796 -9.42843,10.1702l-3.39687,3.65817c-0.45677,0.49479 -1.11088,0.80467 -1.83737,0.80467c-1.38071,0 -2.5,-1.11929 -2.5,-2.5c0,-0.45338 0.12069,-0.87858 0.33169,-1.24521l1.52814,-2.7779l0.03901,0.02146l0.01688,-0.11789c2.78069,-4.13858 5.16449,-8.84618 8.03902,-12.8589c0.61882,-0.86384 1.27085,-1.70216 1.94769,-2.52156h-2.40243c0,0 -1.3722,0 -2.08337,-1.01662zM100.65868,101.25022c0.03176,0.0193 0.06349,0.03872 0.09518,0.05825l-0.03528,-0.10583zM258.43858,148.50184c0.33974,-1.09053 0.713,-2.17272 1.11617,-3.28088c-7.27813,5.50887 -14.48129,11.10555 -22.11869,16.11949c-0.62538,0.41056 -1.46314,1.022 -2.42499,1.66242c-0.87284,1.55607 -1.74577,3.11209 -2.6175,4.66875c-5.89891,10.53376 -12.13604,20.99071 -17.27614,31.91696c-1.73153,3.6807 -3.52355,7.12788 -4.90035,10.77669c0.3865,-0.4338 0.69432,-0.78355 0.85981,-0.9813c3.19502,-3.81782 6.26993,-7.7462 9.40234,-11.61564c8.10727,-10.01486 16.99522,-19.74834 24.47909,-30.23296c2.90499,-4.06978 5.14229,-8.64272 8.13439,-12.64901c1.64267,-2.19946 3.48112,-4.30549 5.34587,-6.38452zM253.63779,136.81052l0.05926,0.01343l-0.00188,-0.0196l3.01778,-0.28978c0.08915,-0.00963 0.17971,-0.01456 0.27143,-0.01456c1.23895,0 2.26741,0.90125 2.46553,2.08392c1.25611,-0.88744 2.52837,-1.75649 3.80644,-2.61779c5.16362,-11.66063 12.10138,-22.52518 20.97916,-31.7526c2.9184,-3.03334 7.00468,-5.46854 10.32049,-8.0475c5.61017,-4.36347 11.75362,-8.68983 18.31337,-11.87385c0.61971,-1.50087 1.19865,-3.01334 1.73299,-4.53709c1.0634,-3.01917 3.92462,-8.13538 3.17783,-11.57544c-0.34458,-1.58728 -3.28603,0.17127 -4.82253,0.69793c-2.99327,1.026 -6.31022,1.24451 -9.07597,2.78172c-2.76575,1.5372 -4.7582,4.17251 -7.15435,6.23911c-14.53433,12.53536 -26.38742,28.35266 -38.98003,42.83416c-4.97847,5.72524 -10.40031,11.6353 -14.97237,17.89502c0.1593,0.05306 0.31148,0.12172 0.45472,0.20416c3.44352,-0.76895 6.88984,-1.51775 10.40812,-2.02122zM285.15323,126.42896c-1.58929,1.24388 -3.18629,2.47751 -4.79751,3.69334c-4.38782,5.59638 -8.89315,11.10895 -13.57075,16.53316c-1.26885,1.47137 -2.59759,2.92783 -3.92176,4.39466c-0.37489,1.3048 -0.69162,2.64789 -0.93729,4.10385c1.46994,-2.37105 3.31066,-4.48403 5.05891,-6.77885c5.0849,-6.67464 10.43852,-13.00856 15.93428,-19.34778c0.7444,-0.85864 1.48956,-1.72481 2.23412,-2.59838zM271.0666,130.6972c2.31198,-1.61009 4.57916,-3.2749 6.81956,-4.97345c5.98715,-7.9625 11.49737,-16.2912 17.43836,-24.28299c-7.62447,6.17934 -14.60402,13.36805 -19.85618,21.44445c-1.58258,2.43357 -3.04672,5.07887 -4.40174,7.81199zM316.53801,88.37292c-0.77168,1.73148 -1.59064,3.4358 -2.45187,5.1156c0.33519,1.24095 0.28932,2.55641 0.30952,3.85873c1.34793,-0.96299 2.67026,-1.95482 3.8331,-3.12709c2.54198,-2.56261 4.67008,-5.75022 6.91475,-8.63936c-1.33997,0.4005 -2.82684,0.29195 -4.15701,0.7462c-1.54713,0.52834 -3.00784,1.26306 -4.44849,2.04591zM298.42584,109.60058c4.01814,-5.62721 7.72577,-11.48601 10.84531,-17.55442c-0.30799,0.13762 -0.61522,0.27656 -0.92061,0.4187c-0.1458,0.50868 -0.27606,1.07503 -0.52161,1.41367c-2.8501,3.93063 -6.16735,7.4732 -8.99784,11.43723c-2.1879,3.06411 -4.38638,6.10687 -6.60337,9.12764c1.05276,-0.83224 2.1083,-1.66183 3.16856,-2.48649c1.00985,-0.78545 2.0197,-1.57089 3.02955,-2.35634zM231.00903,159.92702c0.41825,-0.7229 0.85142,-1.44827 1.29077,-2.17639c-0.20107,0.2284 -0.39968,0.45875 -0.59579,0.69093c-0.48473,0.57391 -0.95228,1.16632 -1.49055,1.69033c-0.43532,0.42379 -1.94347,1.45083 -1.41976,1.14289c0.74615,-0.43873 1.4843,-0.88838 2.21533,-1.34777zM242.54997,149.33439c-0.52789,1.37891 -1.30328,2.65336 -2.07144,3.94648c3.04974,-2.3252 6.0367,-4.73606 9.03866,-7.12609c-0.06256,0.02476 -0.1248,0.05006 -0.18666,0.07598c-2.71743,1.13824 -4.73995,1.96906 -6.78056,3.10363zM155.0148,145.43182c2.42638,-0.44602 4.85034,-0.92508 7.27217,-1.42234c1.10703,-0.56479 2.2131,-1.13126 3.31819,-1.69943c-1.05587,0.08347 -2.11372,0.14484 -3.17303,0.1891c-2.06769,0.73194 -5.43191,1.57652 -7.28698,2.75825c-0.07798,0.04968 -0.11916,0.10891 -0.13035,0.17442zM150.07824,146.28851c-0.32734,-1.52337 0.0461,-2.74488 0.84082,-3.74553c-1.64633,-0.0225 -3.29184,-0.04298 -4.93468,-0.04298c-1.31926,0 -2.63852,0 -3.95779,0c-0.26963,0.57388 -0.54987,1.13778 -0.84302,1.68893c-0.65512,1.2317 -1.43275,2.38854 -2.25417,3.51858c3.19106,-0.31083 6.37234,-0.67634 9.52493,-1.16202c0.54144,-0.08341 1.08274,-0.16913 1.62392,-0.25698zM132.22183,148.30219c1.40411,-2.00458 2.67699,-3.84104 3.81893,-5.80219c-5.53547,0 -11.07093,0 -16.6064,0c-0.23164,1.14112 -1.24051,2 -2.44999,2c-1.21084,0 -2.22063,-0.86082 -2.45077,-2.00386c-6.63451,-0.02611 -12.83967,-0.22567 -19.47629,-1.73399c-3.25044,-0.73874 -6.51233,-1.42879 -9.75133,-2.21621c-1.90816,-0.46389 -4.0184,-0.46082 -5.7063,-1.46444c-0.5581,-0.33184 -5.81736,-7.91564 -5.85203,-7.96477c-0.63184,-1.96114 -1.26907,-3.92167 -1.90165,-5.88386c-2.56961,3.95807 -5.17667,7.92848 -7.87551,11.79489c-0.77091,1.10442 -2.00242,1.96391 -2.39963,3.25087c-0.59138,1.91606 0.93745,2.82758 1.99848,3.78801c6.69909,4.45079 13.97739,7.10485 21.49535,9.20864l3.9912,-1.59648l0.05557,0.13893l0.40014,-0.27263c4.50098,-0.05846 9.20197,-0.40954 13.68336,-0.03622c2.33213,0.19428 4.67622,0.4862 7.02404,0.84583c4.50125,-0.44621 9.00287,-0.88865 13.50582,-1.3175c2.82075,-0.26864 5.65751,-0.49834 8.497,-0.73502zM123.12738,160.91344c0.02562,-0.03539 0.05123,-0.07079 0.07683,-0.1062l0.51271,-1.19632c0.20192,-0.4485 0.35751,-0.93259 0.50267,-1.4247c-4.66826,-1.03182 -9.39363,-2.04833 -14.10459,-2.79182c-2.05224,0.20525 -4.10447,0.41085 -6.15681,0.61523c4.68629,1.15229 9.37259,2.30458 14.05888,3.45686c1.71427,0.42151 3.40082,1.00002 5.11031,1.44695zM75.55372,118.23888c0.90266,2.87768 1.77938,5.76437 2.66737,8.64439c0.90127,1.2441 1.83365,2.46624 2.7038,3.7323c0.51322,0.74673 0.65241,1.86232 1.44416,2.30293c1.19837,0.66688 2.70247,0.47186 4.04503,0.75177c4.89037,1.01959 9.75799,2.20676 14.62699,3.32432c3.90649,0.89664 7.94694,0.50541 11.94329,0.50541c0.36318,0 0.72636,0 1.08955,0c-0.07004,-1.07692 0.13752,-2.23431 0.06057,-3.30918c-0.25706,-3.59078 0.16621,-8.78597 -1.4364,-12.17944c-1.97001,-4.17141 -5.57552,-8.92694 -9.24753,-12.32815c-7.19213,1.81747 -14.36077,3.79856 -21.23546,6.44503c-2.1527,0.8287 -4.69189,0.98863 -6.66137,2.11062zM108.74078,108.36855c2.65676,2.80424 5.42252,6.01093 7.38685,9.41079c0.22935,-1.4754 0.47646,-2.95347 0.73719,-4.43879c-0.27385,0.10306 -0.57057,0.15945 -0.88045,0.15945c-1.38071,0 -2.5,-1.11929 -2.5,-2.5c0,-0.29691 0.05176,-0.58173 0.14675,-0.84593l1.08685,-3.26055c-1.98522,0.49572 -3.97955,0.98381 -5.97719,1.47504zM119.48549,136.4797c0.04509,0.34098 0.08,0.68131 0.09373,1.0203c2.80172,0 5.60344,0 8.40515,0c3.50249,0 7.00498,0 10.50747,0c0.00944,-0.02358 0.01887,-0.0472 0.02829,-0.07086c3.05203,-7.66794 6.57545,-15.28139 9.23988,-23.09071c4.79636,-14.05788 8.13639,-28.63793 10.5397,-43.2552c1.29726,-7.89013 2.18465,-15.08534 2.18465,-23.08322c0,-2.77045 0.96097,-5.67854 0.09688,-8.31079c-0.89818,-2.73608 -3.33635,-4.71728 -4.65873,-7.27543c-0.47846,-0.92559 -0.51158,-2.0709 -1.11537,-2.92006c-0.24633,-0.34643 0.19928,0.93343 -0.05501,1.27406c-1.85955,2.49089 -5.01413,3.89792 -6.64114,6.54656c-2.31456,3.76793 -2.95006,9.66212 -4.5348,13.80846c-2.76966,7.24657 -6.24473,14.23989 -9.12759,21.44807c-3.55417,8.88543 -6.70086,17.9573 -10.36115,26.79754c0.99264,-0.07645 1.96494,-0.04841 2.89691,0.1316h5c1.38071,0 2.5,1.11929 2.5,2.5c0,1.1246 -0.74256,2.07576 -1.76412,2.38994l-2.94531,0.98177l-0.03387,-0.10162l-0.22039,0.17171c-1.98266,0.22676 -3.96916,0.41858 -5.95867,0.58235c-0.53755,2.83659 -1.32829,5.68098 -1.81097,8.23176c-1.42116,7.51031 -2.23159,14.60301 -2.26556,22.22379zM194.29517,160.52937c-0.15601,0.26148 -0.3059,0.52374 -0.44893,0.78678c-1.51486,2.78569 -2.14438,5.96743 -3.21389,8.95346c0.7903,-0.36227 1.61028,-0.68545 2.24256,-1.26195c2.34155,-2.13497 3.70695,-5.14035 5.58107,-7.69547c1.51615,-2.06706 3.09218,-4.04891 4.71043,-5.99749c-0.89564,0.48727 -1.82198,0.98474 -2.75819,1.54646c-2.03774,1.22264 -4.07537,2.44546 -6.11305,3.66821zM159.19116,159.87445c-1.14946,0.74174 -2.29892,1.48349 -3.44836,2.22526l1.27856,0.64159c0.8438,0.40155 1.42704,1.26201 1.42704,2.25869c0,0.70537 -0.29213,1.34252 -0.762,1.79705c6.10276,-3.12108 12.265,-6.24431 17.948,-9.90123c2.55895,-1.64664 5.03299,-3.48791 7.47516,-5.38006c-0.06821,0.00024 -0.13643,0.00048 -0.20464,0.00072c-0.49093,0.12612 -0.97758,0.26153 -1.45643,0.41389c-4.14648,1.31934 -8.19364,2.63783 -12.26796,4.16607c-3.33724,1.25177 -6.66678,2.51045 -9.98938,3.77801zM150.92714,167.4993c-1.1514,-0.01943 -2.30855,-0.03606 -3.46971,-0.05261c-11.67653,7.53552 -23.35329,15.07067 -35.03493,22.59826c-2.92559,2.2391 -6.33372,4.40387 -9.51493,6.73095c-0.05517,0.12518 -0.11153,0.24955 -0.1698,0.37264c3.40215,-1.04769 6.84915,-2.03461 10.2584,-3.11831c12.16494,-7.76556 23.8854,-16.10474 36.58402,-22.99827c2.23659,-1.21415 4.51576,-2.39491 6.80876,-3.57064c-0.14301,0.02542 -0.29022,0.03869 -0.44054,0.03869c-0.00012,0 -0.00024,0 -0.00035,0l-4.99995,-0.0006l0,-0.0055zM94.03196,205.5116c0.64542,-0.41817 1.30133,-0.82098 1.95364,-1.22781c0.092,-0.05738 0.18412,-0.11454 0.27636,-0.17153c-0.27938,-0.13403 -0.52999,-0.31845 -0.74007,-0.54147c-0.48876,0.65821 -0.9677,1.32907 -1.48993,1.94081zM74.12895,113.7886c0.54955,-0.16531 1.10262,-0.32413 1.62452,-0.53217c4.52953,-1.8055 9.00676,-3.50996 13.70485,-4.81238c1.46026,-0.40482 2.92044,-0.808 4.38089,-1.20891c-2.57487,0.07172 -5.14767,0.1538 -7.71658,0.26104c-4.28172,0.17873 -8.63478,0.9649 -12.89275,1.43638c-0.24868,0.02754 -0.49738,0.06318 -0.74608,0.10337c0.00007,0.00221 0.00015,0.00442 0.00022,0.00663c0.05005,1.402 0.94879,2.64081 1.38998,3.97253c0.08537,0.25769 0.17035,0.51553 0.25496,0.77351zM138.77378,183.2509c14.20248,-6.40419 28.37658,-12.96073 42.00757,-20.44241c3.32667,-1.82592 6.58551,-3.80711 9.83057,-5.80706c1.3397,-2.0458 2.97161,-4.04583 4.59151,-6c-1.31751,0.15718 -2.63378,0.31659 -3.94842,0.47946c-4.228,3.31015 -8.45373,6.74953 -12.92066,9.62331c-8.33009,5.35911 -17.66061,9.59478 -26.3687,14.32203c-4.50447,2.44529 -8.87762,5.08953 -13.19186,7.82468zM199.62711,145.44299c2.69434,-3.64035 5.30244,-7.48033 8.25958,-10.87257c6.56586,-7.53192 14.40046,-14.03463 21.27876,-21.2855c0.23349,-0.24614 0.46615,-0.49318 0.69805,-0.74103c-11.90611,7.11784 -23.96872,13.97086 -36.15676,20.59843c2.74513,0.18455 5.72803,0.38894 5.78371,0.40944c0.10733,0.03952 0.21343,0.08148 0.31838,0.12571l0.01187,-0.03343l3.41328,1.21164c0.99798,0.32813 1.7185,1.26764 1.7185,2.37543c0,1.04687 -0.64346,1.94345 -1.55645,2.31582l-4.53319,1.96957l-0.02745,-0.06319l-0.2213,0.1559c-4.98692,1.01127 -9.97631,2.00962 -14.96592,3.00754c-0.00018,0.00004 -0.00036,0.00007 -0.00054,0.00011c-0.97083,0.63895 -1.95169,1.2654 -2.93937,1.88329c0.28551,0.00003 0.57103,0.00006 0.85654,0.0001c2.65992,-0.75712 5.34092,-1.40506 8.04727,-1.89409l-0.15032,-0.47243l4.70903,-1.49833c0.25505,-0.08774 0.52877,-0.13538 0.81361,-0.13538c1.38071,0 2.5,1.11929 2.5,2.5c0,0.24558 -0.03541,0.48289 -0.1014,0.7071c0.74774,-0.08852 1.49581,-0.17648 2.24413,-0.2641zM146.2363,157.60596c0.85702,0.25354 1.69613,0.53871 2.50868,0.86477c2.75832,-1.06446 5.5236,-2.11836 8.29711,-3.16176c1.95965,-1.26395 3.91927,-2.52793 5.87887,-3.79196c-0.64555,-0.00491 -1.29108,-0.01056 -1.93658,-0.01701c-0.80618,-0.00806 -1.66101,0.03415 -2.52616,0.05466c-0.87767,0.44118 -1.75583,0.88142 -2.63445,1.32073c-3.18413,1.59206 -6.38282,3.16462 -9.58747,4.73057zM350.94262,169.48388c2.65834,-2.7468 5.40592,-5.43118 7.85953,-8.35476c-3.7794,2.83454 -7.62184,5.59645 -11.44924,8.37088l0.63147,0c0.98464,0 1.97095,-0.0067 2.95825,-0.01612zM181.54695,139.83291c-0.16302,0.0284 -0.32604,0.05678 -0.48907,0.08516c-0.12472,0.06583 -0.24944,0.13163 -0.37418,0.19742c0.21011,-0.04303 0.42021,-0.08591 0.63029,-0.12863c0.07787,-0.05149 0.15551,-0.10282 0.23295,-0.15395zM130.47789,159.72913c0.07775,-0.03815 0.1555,-0.07629 0.23326,-0.11443c-0.03678,-0.00792 -0.07358,-0.01584 -0.11037,-0.02377c-0.0407,0.04629 -0.08166,0.09236 -0.12289,0.1382zM136.79518,162.20803c0.73938,0.02719 1.47932,0.05107 2.21941,0.07231c0.65216,-0.25896 1.30462,-0.51732 1.95742,-0.77508c-0.65384,-0.13149 -1.31281,-0.2541 -1.97315,-0.3716c-0.73462,0.35791 -1.46922,0.71598 -2.20368,1.07437zM134.94441,153.17206c-0.41905,0.64625 -0.823,1.30521 -1.22841,1.96294c1.46079,0.28574 2.99366,0.53282 4.55156,0.79159c2.77206,-1.34946 5.54346,-2.69812 8.30857,-4.05438c-3.85657,0.53234 -7.7399,0.942 -11.63171,1.29986zM111.16521,184.90944c8.20651,-5.29991 16.41499,-10.59678 24.62421,-15.89249c-6.05772,2.42845 -12.09792,4.90276 -18.12524,7.43528c-2.17351,2.81627 -4.35142,5.62804 -6.49897,8.45722zM127.7013,166.67951c-0.62617,0.31124 -1.25193,0.62319 -1.87721,0.93593c0.73591,-0.30301 1.47208,-0.60524 2.20852,-0.9067c-0.11049,-0.0096 -0.22092,-0.01935 -0.33131,-0.02923z" fill="#ff7100" stroke="none" stroke-width="0.5" stroke-linecap="butt"/><path d="M180.58683,103.94394c6.9363,-2.59556 13.82449,-5.24683 20.66678,-8.09779l2.71762,-1.13234c0.30969,-0.13744 0.6525,-0.21381 1.01314,-0.21381c1.38071,0 2.5,1.11929 2.5,2.5c0,0.69036 -0.27982,1.31536 -0.73223,1.76777l0,0l-2.07098,2.07098c0.96709,0.22121 1.9279,0.51789 2.8906,0.72922c2.01129,0.44151 4.4254,0.16123 5.99378,1.49556c5.43929,4.62759 1.71166,11.90967 -0.60248,16.68606c-0.19352,0.39944 -3.37629,6.94382 -4.33217,8.84228c4.40524,-0.66248 8.85355,-1.06967 13.36723,-1.09184c1.20394,-0.00591 10.02443,1.21145 10.286,1.36438c0.89784,0.52495 1.58393,1.24212 2.10365,2.08992c1.34235,0.04373 2.41712,1.14568 2.41712,2.49865c0,0.83728 -0.4116,1.57843 -1.04351,2.03214c0.19984,1.83103 0.12996,3.76546 -0.00147,5.52076c1.02224,-0.48641 2.04455,-0.97267 3.06691,-1.45883c10.56204,-11.8497 21.92892,-22.88224 33.12763,-34.19182c3.49747,-3.5321 6.7362,-7.22356 10.01621,-10.95709c0.04106,-0.04674 6.64706,-7.56679 6.65428,-7.57239c0.02144,-0.01662 0.04292,-0.03319 0.06444,-0.0497l-0.00829,-0.00829l3.53553,-3.53553c0.45241,-0.45241 1.07741,-0.73223 1.76777,-0.73223c1.38071,0 2.5,1.11929 2.5,2.5c0,0.29256 -0.05025,0.57338 -0.1426,0.8343l-1.29334,3.94492c-1.4832,8.95655 -4.15526,17.79722 -7.42983,26.47469c11.44456,-5.51114 22.87099,-11.05627 34.27633,-16.64926c4.1934,-3.80056 9.18402,-7.01897 13.64798,-10.46839c0.34351,-0.26544 7.9586,-6.15749 8.17016,-6.28888c3.73253,-2.31811 8.54037,-3.72335 12.56474,-5.46793c3.05833,-1.3258 6.11381,-2.65819 9.17498,-3.97739c1.63253,-0.70353 3.13663,-1.89053 4.90183,-2.10069c0.11044,-0.01315 0.22093,-0.02449 0.33145,-0.03415l-0.005,-0.03499l4.90717,-0.70102c0.12902,-0.02054 0.26133,-0.03121 0.39613,-0.03121c1.38071,0 2.5,1.11929 2.5,2.5c0,0.69036 -0.27982,1.31536 -0.73223,1.76777l-3,3l-0.0778,-0.0778l-0.18873,0.30911c-7.70418,4.3163 -15.39568,8.74506 -23.29586,12.6914c-8.80158,4.39497 -17.61719,8.75472 -26.44547,13.08567c-0.02925,0.02737 -0.05845,0.05477 -0.08761,0.0822c-8.43743,7.93841 -15.98458,16.9196 -24.16991,25.12649c-5.8021,5.81706 -12.13523,11.39965 -17.5434,17.58109c-5.37716,6.146 -10.16172,13.13161 -14.93921,19.75114l-2.90735,4.0279c-0.45238,0.64299 -1.20017,1.06313 -2.04609,1.06313c-1.38071,0 -2.5,-1.11929 -2.5,-2.5c0,-0.41632 0.10176,-0.80886 0.28177,-1.15413l1.91117,-3.86264l0.16875,0.0835c0.87739,-4.38632 2.07855,-8.71889 3.7404,-12.87693c2.33213,-5.83507 5.55686,-11.32119 8.03894,-17.09482c1.07568,-2.50217 2.15906,-5.01659 3.2293,-7.54443c-7.06632,3.38573 -14.13914,6.76035 -21.21776,10.12711c-4.9581,2.35819 -9.91154,4.72678 -14.86434,7.09692c-1.86798,2.11064 -3.70941,4.24827 -5.51864,6.41916l-3.10542,3.86775c-0.45782,0.58016 -1.16725,0.95255 -1.96365,0.95255c-1.38071,0 -2.5,-1.11929 -2.5,-2.5c0,-0.19078 0.02137,-0.37657 0.06185,-0.5551l0.4459,-2.16686c-5.88897,2.81267 -11.78183,5.61693 -17.6853,8.39787c-2.49707,1.17629 -5.23536,2.26153 -7.98858,2.42018c-0.21968,0.32305 -0.43954,0.64636 -0.66284,0.96062c8.81923,-0.17926 19.40213,-1.35877 27.4795,1.94868c4.53994,1.85898 8.11919,3.2427 6.93579,9.41658c-0.16426,0.85694 -7.24801,5.89155 -7.36983,5.96729c-7.03353,4.3731 -15.14528,8.14202 -22.81924,11.20744c-7.69635,3.06934 -15.55739,5.8893 -23.14046,9.22685c-9.15742,4.03047 -17.87903,9.05633 -27.04971,13.05678c-5.53754,2.41559 -11.45643,4.19271 -17.13084,6.26775c-1.17767,0.43065 -2.36291,0.84188 -3.54712,1.25573c0.81255,-0.11426 1.62502,-0.21889 2.43725,-0.3117c7.92812,-0.90584 16.03451,-0.27341 23.98163,-0.99796c4.06808,-0.37089 8.24493,-1.56657 12.25617,-2.32545c8.18809,-1.5491 16.37617,-3.09819 24.56426,-4.64729c0,0 2.45643,-0.46473 2.92115,1.9917c0.46473,2.45643 -1.9917,2.92115 -1.9917,2.92115c-8.18809,1.5491 -16.37617,3.09819 -24.56426,4.64729c-4.13601,0.78249 -8.42058,1.98855 -12.61532,2.37997c-7.95758,0.74253 -16.08093,0.09099 -24.01837,1.00204c-6.52628,0.74908 -13.0691,2.27829 -19.54266,3.40413l-3.24828,0.56492c-0.15405,0.02968 -0.31313,0.04523 -0.47584,0.04523c-1.38071,0 -2.5,-1.11929 -2.5,-2.5c0,-1.02268 0.61407,-1.90195 1.49361,-2.28918l4.48009,-2.09071c3.90233,-2.72069 9.52515,-4.40698 13.95631,-6.02854c7.15089,-2.61682 14.62031,-4.84525 21.59605,-7.89406c9.14557,-3.99716 17.84778,-9.00729 26.98338,-13.02816c7.63683,-3.36121 15.55165,-6.20373 23.3025,-9.2948c7.40651,-2.94868 15.24782,-6.59168 22.03134,-10.80933c1.35833,-0.84454 2.50711,-1.9956 3.85255,-2.86051c0.43498,-0.27962 1.25934,-0.06855 1.45098,-0.54883c0.20999,-0.52626 -0.14631,-1.24807 -0.59692,-1.59156c-1.2911,-0.98417 -6.44157,-2.43375 -7.74312,-2.63596c-7.54697,-1.17251 -15.70257,-0.42836 -23.30677,-0.42836h-5c-1.38071,0 -2.5,-1.11929 -2.5,-2.5c0,-0.88153 0.45626,-1.6565 1.14551,-2.10163l2.24341,-1.49561c-0.72765,-0.14017 -1.38663,-0.41733 -1.91703,-0.94098c-0.30225,-0.29841 -0.28442,-1.13754 -0.10478,-2.1822c-12.98968,6.35148 -26.03402,12.54207 -39.17511,18.59183c-2.71457,2.09098 -5.4589,4.14811 -8.24035,6.16396c-3.50993,2.5438 -7.22976,4.97749 -10.90465,7.27126c-1.77126,1.10557 -3.31252,3.38042 -5.39166,3.18854c-11.41287,-1.05326 -6.11766,-5.55094 -2.67711,-8.62331c4.43338,-3.95894 10.57942,-5.91232 15.89541,-8.32466c2.74744,-1.24675 5.49068,-2.49824 8.22994,-3.75515c9.24277,-7.18938 18.19733,-14.62846 27.09164,-22.22312c-2.07365,-2.12206 -2.13482,-5.52794 -1.62722,-8.63285c-6.12246,1.60842 -12.27251,3.11848 -18.53639,4.13818c-11.0201,1.79397 -22.106,3.36006 -33.08555,5.38561c-14.74819,2.7208 -29.37042,6.51424 -44.18525,8.83522c-7.65362,1.19906 -15.45611,1.80899 -23.16931,2.64611c-10.58906,4.3252 -21.15022,8.69746 -31.64054,13.27159l-3.11459,1.90043c-0.38654,0.24495 -0.84489,0.38677 -1.33636,0.38677c-1.38071,0 -2.5,-1.11929 -2.5,-2.5c0,-0.75529 0.33493,-1.43235 0.86438,-1.89075l3.75224,-3.28321c2.935,-3.69768 7.7707,-6.59594 11.22913,-9.82378c4.84452,-4.52149 9.42074,-9.37779 14.11801,-14.05274c3.41004,-3.39383 7.4085,-6.68683 10.46564,-10.3987c5.76884,-7.00433 10.32091,-15.54966 14.71293,-23.45388l1.10303,-2.17836c0.40326,-0.83923 1.2613,-1.41858 2.25464,-1.41858c1.38071,0 2.5,1.11929 2.5,2.5c0,0.22872 -0.03071,0.45026 -0.08824,0.66073l-0.92733,3.70933c0.09279,2.15588 -0.83816,8.33598 2.47228,9.32025c1.2933,0.38453 2.69431,-0.16309 4.04329,-0.1903c1.15695,-0.02334 2.29938,-0.08927 3.43168,-0.18934c9.52612,-6.4953 18.92953,-12.87546 27.77588,-20.40631c7.49836,-6.38332 16.01622,-13.93326 25.3689,-17.46449c7.32895,-2.76714 15.61101,-2.4838 23.00369,-5.27605c8.77983,-3.31619 17.31757,-7.09813 26.24145,-10.0703l3.12955,-1.36351c0.31896,-0.14762 0.67429,-0.23 1.04885,-0.23c1.38071,0 2.5,1.11929 2.5,2.5c0,0.92661 -0.50412,1.73548 -1.25305,2.16731l-3.81793,2.29076c-6.716,8.08413 -12.70719,16.80204 -13.82657,27.48587zM83.01634,129.4272c-1.10136,-0.03216 -1.87984,-0.07185 -1.98867,-0.1175c-2.5078,-1.05193 -4.40971,-3.9057 -5.36441,-7.02067c-3.27222,5.74356 -6.78755,11.45948 -10.88999,16.44052c-4.8311,5.86575 -10.72076,11.17421 -16.37427,16.48454c1.0171,-0.57874 1.86831,-1.07146 2.20323,-1.29728c2.72395,-1.83659 5.25393,-3.94565 7.88214,-5.91681c8.17656,-6.13242 16.20002,-12.62281 24.53196,-18.5728zM212.4341,133.46748c-0.16099,0.50081 -0.31416,1.00532 -0.47697,1.50527l0.79501,0.79501l-1.94484,1.94484c-1.69391,2.92675 -4.52154,4.26331 -6.27791,7.12191c-0.50412,0.82049 -0.81569,1.73694 -1.11878,2.65781c5.77686,-2.87463 11.71399,-5.56369 17.36069,-8.67829c0.48729,-0.26878 7.80401,-4.82164 7.96404,-4.88113l1.15278,-0.70614c-0.0636,-0.03408 -0.13136,-0.06455 -0.20348,-0.09118c-1.23546,-0.4562 -2.63322,-0.09488 -3.94577,-0.20303c-4.58998,-0.3782 -8.71446,0.07491 -13.30478,0.53493zM250.92609,133.79627c1.20993,-0.57515 2.41982,-1.15039 3.62962,-1.7258c8.75364,-4.16344 17.49839,-8.3389 26.23294,-12.53253c3.35482,-8.32231 6.36928,-16.79885 8.32229,-25.47096c-1.05343,1.16987 -2.23035,2.31805 -3.38398,3.63119c-3.3454,3.80797 -6.65268,7.5713 -10.21922,11.17475c-8.22936,8.31452 -16.55646,16.47342 -24.58165,24.92335zM344.14491,88.61537c1.60417,-0.79826 3.20789,-1.59766 4.81114,-2.39822c1.82436,-0.91062 3.63301,-1.85261 5.43186,-2.81405c-2.88345,1.04722 -5.66764,2.20659 -8.13223,3.74952c-0.7265,0.45481 -1.42654,0.94747 -2.11077,1.46275zM230.34949,143.58234c0.06307,-1.47539 0.11806,-2.98347 0.13482,-4.57649c-6.15158,4.11711 -12.47811,8.52082 -18.34451,13.26504c3.5974,-1.72964 7.20796,-3.43328 10.80861,-5.15533c2.46619,-1.17948 4.93331,-2.35701 7.40107,-3.53322zM200.45972,156.02575c0.57612,-0.63763 1.16648,-1.24589 1.77465,-1.81111c0.44462,-0.41322 0.89398,-0.82398 1.34774,-1.23232c-0.80377,0.39823 -1.60771,0.79582 -2.41184,1.19278c-0.22734,0.56013 -0.49065,1.10253 -0.8142,1.61547c-0.27344,0.4335 -1.84817,0.8377 -1.3436,0.74765c0.50333,-0.08982 0.97543,-0.30113 1.44724,-0.51247zM206.87124,134.17265c-1.44985,0.22262 -2.89394,0.47293 -4.33333,0.74602c-0.83439,0.82538 -1.44936,1.43272 -1.55319,1.53547c-2.34457,2.32009 -4.68914,4.64017 -7.03399,6.95998c1.85643,-0.88954 3.6021,-1.95764 5.53364,-3.41412c2.50407,-1.8882 4.97257,-3.82555 7.38686,-5.82735zM183.5952,146.21302c1.09066,-0.938 2.18093,-1.87813 3.2712,-2.82023c2.1778,-2.1563 4.35598,-4.31221 6.53431,-6.46797c-3.31709,0.81022 -6.62117,1.68745 -9.92588,2.56979c-0.02737,0.10146 -0.05466,0.20294 -0.08185,0.30444c-0.58045,2.16653 -1.58191,3.59227 -0.36508,5.76083c0.15954,0.28432 0.35155,0.49762 0.56729,0.65314zM185.10333,133.90139c5.15037,-1.38363 10.30488,-2.73681 15.50124,-3.84002c1.34761,-1.19329 2.65521,-2.42057 3.6981,-3.87495c1.861,-2.59528 2.75933,-5.76043 4.16586,-8.62756c0.84088,-1.71409 5.05432,-8.5983 1.93467,-10.62239c-1.07389,-0.69676 -2.55052,-0.24813 -3.81203,-0.4656c-1.4481,-0.24963 -2.84007,-0.99555 -4.30825,-0.93421c-0.57209,0.0239 -1.12447,0.16162 -1.66898,0.34555c-1.78939,2.53764 -3.64667,5.04279 -5.50143,7.63955c-1.87047,2.61875 -4.14049,4.99003 -5.63105,7.84217c-1.49056,2.85214 -2.14059,6.06993 -3.22336,9.10046c-0.40661,1.13804 -0.79013,2.28443 -1.15478,3.437zM175.48672,105.86059l0.02726,-1.33155c0.70057,-8.42437 4.01876,-16.6207 8.90966,-23.57539c0.0524,-0.07451 0.74876,-0.95273 1.67194,-2.11093c-5.94044,2.28903 -11.79706,4.75959 -17.76964,7.00057c-7.431,2.78818 -15.7456,2.54395 -23.09031,5.30775c-8.75593,3.29483 -16.78993,10.59074 -23.80259,16.56058c-6.23406,5.30702 -12.73826,10.05374 -19.36806,14.66712c1.35698,-0.28669 2.72161,-0.58041 4.10179,-0.86597c17.83669,-3.69035 35.71784,-7.14934 53.59328,-10.64671c5.46483,-1.05939 10.55856,-3.03435 15.72667,-5.00547zM75.87449,155.13483c1.87221,-0.23258 3.73899,-0.48842 5.59681,-0.77947c14.77483,-2.31471 29.35823,-6.10267 44.06701,-8.81524c11.0093,-2.03032 22.1245,-3.60207 33.1743,-5.40088c6.95032,-1.13145 13.79549,-2.8641 20.62323,-4.68718c1.42841,-5.53454 3.17749,-11.5499 5.71429,-16.40399c0.10546,-0.2018 5.74147,-8.07936 5.99372,-8.4325c0.56202,-0.78679 1.12654,-1.57182 1.69367,-2.35497c-2.34315,0.60902 -4.68393,1.2447 -6.90533,2.09126c-7.70435,2.93607 -15.2069,6.63442 -22.76625,9.92952c-28.67954,12.50134 -58.12459,23.24737 -87.19145,34.85345zM161.04526,115.70781c-0.10824,0.02206 -0.21663,0.04379 -0.32515,0.06521c-14.58439,2.85347 -29.19503,5.59904 -43.74771,8.60999c-8.09711,1.6753 -16.5131,4.26252 -24.73344,5.10399c-0.08838,0.00905 -0.28646,0.01606 -0.56974,0.02115c-0.75645,0.51658 -1.51354,1.03428 -2.27107,1.5537c-8.19124,5.61657 -15.9672,11.97821 -23.91377,17.93814c-3.83682,2.87761 -7.58552,5.8784 -11.55134,8.56039c0.92952,-0.14998 1.86319,-0.28203 2.8029,-0.38995c0.36423,-0.04148 0.7287,-0.08231 1.09339,-0.12255c2.69818,-1.10065 5.39806,-2.19861 8.09874,-3.29686c31.62469,-12.86038 63.82764,-24.40538 95.11721,-38.04322zM185.1116,151.51558c-4.40366,3.8012 -8.81413,7.58449 -13.26741,11.31358c8.33744,-3.93935 16.64247,-7.94419 24.92147,-12.03376c0.47926,-1.2786 0.94658,-2.47358 1.43716,-3.61285c-0.00647,0.00372 -0.01293,0.00743 -0.0194,0.01115c-2.65898,1.52646 -5.64417,2.46095 -8.61206,3.23031c-1.46054,0.37861 -2.96414,0.95969 -4.45975,1.09157zM311.14821,110.41937c-8.73722,4.25262 -17.48612,8.48032 -26.24537,12.68929c-3.58757,8.67271 -7.63135,17.1662 -11.52743,25.43174c-0.69432,1.473 -1.29509,2.90872 -1.84168,4.34394c2.45207,-3.31093 4.97836,-6.561 7.64658,-9.61074c5.48058,-6.26421 11.88691,-11.92512 17.76638,-17.81975c4.85193,-4.86418 9.47942,-10.00276 14.20154,-15.03448zM37.74434,165.35493c0.25898,-0.10925 0.51799,-0.21841 0.77703,-0.32748c-0.07641,-0.05524 -0.14958,-0.11468 -0.21916,-0.17801c-0.18568,0.16881 -0.37164,0.33729 -0.55788,0.50548z" fill="#ff0000" stroke="none" stroke-width="0.5" stroke-linecap="butt"/></g></g></svg>