<svg version="1.1" xmlns="http://www.w3.org/2000/svg" xmlns:xlink="http://www.w3.org/1999/xlink" width="382" height="217" viewBox="0,0,382,217"><g transform="translate(-28.98437,-62)"><g data-paper-data="{&quot;isPaintingLayer&quot;:true}" fill-rule="nonzero" stroke-linejoin="miter" stroke-miterlimit="10" stroke-dasharray="" stroke-dashoffset="0" style="mix-blend-mode: normal"><path d="M56.98438,279v-150h87v150z" fill="#636363" stroke="none" stroke-width="0" stroke-linecap="butt"/><path d="M139.98438,279v-80h158v80z" fill="#636363" stroke="none" stroke-width="0" stroke-linecap="butt"/><path d="M297.98438,279v-145h84v145z" fill="#636363" stroke="none" stroke-width="0" stroke-linecap="butt"/><path d="M28.98438,139v-38h147v38z" fill="#636363" stroke="none" stroke-width="0" stroke-linecap="butt"/><path d="M275.98438,150v-46h135v46z" fill="#636363" stroke="none" stroke-width="0" stroke-linecap="butt"/><path d="M28.98438,101v-39h26v39z" fill="#636363" stroke="none" stroke-width="0" stroke-linecap="butt"/><path d="M81.98438,102v-39h30v39z" fill="#636363" stroke="none" stroke-width="0" stroke-linecap="butt"/><path d="M143.98438,102v-33h31v33z" fill="#636363" stroke="none" stroke-width="0" stroke-linecap="butt"/><path d="M276.98438,104v-28h27v28z" fill="#636363" stroke="none" stroke-width="0" stroke-linecap="butt"/><path d="M327.98438,105v-31h26v31z" fill="#636363" stroke="none" stroke-width="0" stroke-linecap="butt"/><path d="M376.98438,105v-33h33v33z" fill="#636363" stroke="none" stroke-width="0" stroke-linecap="butt"/><path d="M193.98438,278v-68h57v68z" fill="#6b2400" stroke="none" stroke-width="0" stroke-linecap="butt"/><path d="M256.48438,224c-1.31409,0.9816 -2.43192,1.56731 -3.27806,2.14699c-0.20867,0.40341 -0.52397,0.74273 -0.90861,0.98066c-0.19007,0.19549 -0.37622,0.3952 -0.5609,0.59648c-0.25232,0.56819 -0.34486,1.28342 -0.25243,2.27587l-0.80964,1.99733c0.20701,0.31329 0.41313,0.65972 0.61934,1.04596c0.47097,0.88215 0,2 0,3l2,3.91342c-2.0888,0.451 -4.16112,1.71941 -6.26641,1.35299c-3.38657,-0.58943 -3.0587,-3.68775 -4.07608,-5.80991c-1.3656,-0.01755 -2.46721,-1.13002 -2.46721,-2.49979c0,-0.17238 0.01745,-0.34068 0.05067,-0.50324c-0.0446,-0.15718 -0.06373,-0.32203 -0.05067,-0.49676c0.0402,-0.53788 0.19373,-1.0233 0.42948,-1.46649c-2.20789,-1.86096 -3.81455,-3.7856 -6.31623,-5.45339c-1.06833,-0.71222 -2.20782,-1.32965 -3.19822,-2.14677c-0.54652,-0.4509 -0.71034,-1.3696 -1.37174,-1.62366c-0.762,-0.29271 -1.64124,0.30736 -2.44375,0.15802c-1.35581,-0.2523 -2.74047,-0.61652 -3.91387,-1.34109c-0.73054,-0.45111 -1.39319,-1.03007 -1.96455,-1.68479c-0.60312,-0.10625 -1.21642,-0.35462 -1.76441,-0.13214c-0.75644,0.3071 -0.94007,1.40066 -1.64238,1.81693c-1.81356,1.07491 -4.18876,0.92119 -6,2c-0.61567,0.36671 -1.23297,0.90109 -1.8403,1.5117c0.01711,0.11809 0.02597,0.23884 0.02597,0.36167c0,1.1246 -0.74256,2.07576 -1.76412,2.38994l-1.00425,0.33475c-0.33256,0.37941 -0.65472,0.73393 -0.96386,1.04308c-5.06361,5.06361 -8.93119,10.93119 -14,16c0,0 -1.76777,1.76777 -3.53553,0c-1.76777,-1.76777 0,-3.53553 0,-3.53553c2.45462,-2.45462 4.69092,-5.05949 6.89878,-7.68805l-3.43153,0.85788l-2.85355,0.95118c-0.2642,0.09499 -0.54902,0.14675 -0.84593,0.14675c-0.8255,0 -1.55754,-0.4001 -2.01281,-1.01695c-0.63687,-0.10628 -1.23179,-0.31941 -1.75496,-0.71528c-2.07302,-1.56859 -0.32108,-7.46323 0.64114,-9.08209c1.28086,-2.15497 3.6529,-4.07829 6.31996,-5.63872c0.22379,-0.47948 0.49613,-0.99985 0.8199,-1.56444c0.20397,-0.35569 0.44992,-0.67184 0.72911,-0.95432c-0.61866,-0.61401 -1.10675,-1.30623 -1.21007,-2.12774c-0.22703,-1.80518 1.85434,-3.40579 1.84356,-5.17578l-3.72362,-0.74472c-1.16847,-0.20987 -2.05512,-1.23166 -2.05512,-2.46053c0,-1.37709 1.11342,-2.49413 2.48914,-2.49998l3.90132,-0.01941l0.00018,0.0357c0.07055,-0.01013 0.1413,-0.01938 0.21226,-0.02772c1.77388,-0.20835 3.55754,0.42656 5.2861,0.87617c1.81851,0.473 4.0149,0.52335 5.31397,1.88096c0.84564,0.88375 1.27643,2.12371 1.49357,3.4597c0.92343,-0.41435 1.8528,-0.80805 2.83576,-1.0286c2.32881,-0.52252 4.82291,-0.2922 7.08003,-1.06795l2.94464,-0.98155c0.2642,-0.09499 0.54902,-0.14675 0.84593,-0.14675c0.76883,0 1.4566,0.34705 1.91519,0.89304l2.23888,-0.74629c0.2642,-0.09499 0.54902,-0.14675 0.84593,-0.14675c1.20499,0 2.21086,0.85252 2.44738,1.98731c2.34979,-0.01469 5.80908,0.06936 6.75681,1.33305c0.0199,0.02653 0.03743,0.053 0.05271,0.07941c1.18065,-0.39147 2.43434,-0.66215 3.5587,-0.2509l1.41663,-1.41663c0.45241,-0.45241 1.07741,-0.73223 1.76777,-0.73223c1.07866,0 1.99777,0.68314 2.34828,1.64037c0.63095,-0.15637 1.28599,-0.28012 1.86115,-0.51207l2.94464,-0.98155c0.2642,-0.09499 0.54902,-0.14675 0.84593,-0.14675c1.38071,0 2.5,1.11929 2.5,2.5c0,0.69036 -0.27982,1.31536 -0.73223,1.76777l-0.43157,0.43157c0.66493,0.52344 1.30557,1.417 1.9735,2.84396c0.54764,1.16999 0.66742,2.28979 0.49818,3.35382c0.33372,0.39481 0.57941,0.83678 0.67995,1.35654c0.4368,2.25812 -0.62755,3.35951 -1.87584,4.32281l0.15577,0.15577c0,0 0,0 0,0c0.0565,0.0565 0.11031,0.11569 0.16121,0.17736zM233.5226,217.02811c-0.20623,0.06327 -0.41217,0.11681 -0.61787,0.16193c0.22772,0.14277 0.44804,0.29806 0.663,0.4625c-0.01927,-0.205 -0.03433,-0.41307 -0.04513,-0.62444zM191.15623,227.52637c-0.22284,-0.23197 -0.41268,-0.49588 -0.56216,-0.79701l-0.61638,-0.15409c-0.24504,0.57544 -0.25928,1.2533 -0.5256,1.82518c-0.13361,0.2869 -0.84376,0.69246 -0.7804,0.80338l1.92594,-1.28396l0.0212,0.03181c0.05744,-0.05075 0.11568,-0.10073 0.17478,-0.14988c0.1093,-0.0909 0.2306,-0.18276 0.36262,-0.27543zM236.73695,213.62619c0.27775,0.63319 0.5385,1.24973 0.79307,1.85177c-0.02995,-0.15471 -0.04564,-0.31451 -0.04564,-0.47797c0,-0.20299 0.02419,-0.40032 0.06985,-0.58928c-0.05263,-0.30462 -0.06796,-0.62679 -0.06189,-0.95903c-0.03602,0.00457 -0.07186,0.0099 -0.10751,0.01603c-0.21981,0.03786 -0.43524,0.09275 -0.64788,0.15848zM224.6519,212.52146c-0.03014,-0.00181 -0.06027,-0.00352 -0.09038,-0.00513c0.00238,0.00614 0.00476,0.01229 0.00712,0.01845c0.00509,-0.00084 0.01018,-0.00168 0.01528,-0.0025c0.02264,-0.00365 0.0453,-0.00726 0.06798,-0.01082zM202.41891,209.65824c-0.04949,-0.46895 -0.12403,-0.81615 -0.23461,-0.92338c-0.75182,-0.72902 -1.78197,-0.86378 -2.8886,-0.85855c0.12138,0.42364 0.1922,0.85562 0.18238,1.30091c-0.01513,0.68651 -0.46484,1.23683 -0.9432,1.78563c0.21506,-0.1533 0.45542,-0.27339 0.71361,-0.35279l2.94531,-0.98177l0.05362,0.16086zM197.45209,212.59954c-0.01957,0.07197 -0.00098,0.12351 0.04356,0.16143c0.02022,-0.21315 0.0672,-0.4185 0.13754,-0.61266c-0.07632,0.14467 -0.13848,0.29449 -0.1811,0.45123zM242.26449,223.71688c0.03005,-0.10799 0.06094,-0.21576 0.09266,-0.32344c-0.36661,-0.31609 -0.73472,-0.62689 -1.11395,-0.89892c0.31375,0.41051 0.65238,0.81761 1.02129,1.22236z" fill="#636363" stroke="none" stroke-width="0.5" stroke-linecap="butt"/><path d="M194.98438,199l-1,40l2,-37" fill="none" stroke="#ffde00" stroke-width="4.5" stroke-linecap="round"/><path d="M242.98438,238l1,-37" fill="none" stroke="#ffde00" stroke-width="4.5" stroke-linecap="round"/></g></g></svg>