<svg version="1.1" xmlns="http://www.w3.org/2000/svg" xmlns:xlink="http://www.w3.org/1999/xlink" width="197" height="264" viewBox="0,0,197,264"><g transform="translate(-176.98437,-40)"><g data-paper-data="{&quot;isPaintingLayer&quot;:true}" fill-rule="nonzero" stroke-linejoin="miter" stroke-miterlimit="10" stroke-dasharray="" stroke-dashoffset="0" style="mix-blend-mode: normal"><path d="M200.98438,303v-85h25v85z" fill="#ff0000" stroke="#000000" stroke-width="2" stroke-linecap="butt"/><path d="M255.98438,302v-85h26v85z" fill="#ff0000" stroke="#000000" stroke-width="2" stroke-linecap="butt"/><path d="M200.98438,220.51613v-84.51613h81v84.51613z" fill="#942400" stroke="#000000" stroke-width="2" stroke-linecap="butt"/><path d="M223.98438,170v-33h33v33z" fill="#ff0000" stroke="#000000" stroke-width="2" stroke-linecap="butt"/><path d="M281.98438,152v-18h84v18z" fill="#ff0000" stroke="#000000" stroke-width="2" stroke-linecap="butt"/><path d="M177.98438,216v-84h21v84z" fill="#ff0000" stroke="#000000" stroke-width="2" stroke-linecap="butt"/><path d="M339.98438,190v-38h13v38z" fill="#ffde00" stroke="#000000" stroke-width="2" stroke-linecap="butt"/><path d="M337.98438,133v-48h13v48z" fill="#ffde00" stroke="#000000" stroke-width="2" stroke-linecap="butt"/><path d="M310.98438,88v-13h62v13z" fill="#ffde00" stroke="#000000" stroke-width="2" stroke-linecap="butt"/><path d="M358.98438,75v-33h14v33z" fill="#ffde00" stroke="#000000" stroke-width="2" stroke-linecap="butt"/><path d="M310.19271,75v-34h15.58333v34z" fill="#ffde00" stroke="#000000" stroke-width="2" stroke-linecap="butt"/><path d="M335.98438,73v-31h12v31z" fill="#ffde00" stroke="#000000" stroke-width="2" stroke-linecap="butt"/><path d="M268.98438,111.5c0,15.74012 -13.2076,28.5 -29.5,28.5c-16.2924,0 -29.5,-12.75988 -29.5,-28.5c0,-15.74012 13.2076,-28.5 29.5,-28.5c16.2924,0 29.5,12.75988 29.5,28.5z" fill="#ff0000" stroke="#000000" stroke-width="2" stroke-linecap="butt"/><path d="" fill="#ff0000" stroke="none" stroke-width="0.5" stroke-linecap="butt"/><path d="M212.98438,97v-6.98824c5.51159,-0.92375 7.48683,-6.84949 7.48683,-6.84949l1,-3c1.50562,-4.96106 2.00749,-5.02611 1.38404,-10.7641c-0.11386,-1.04792 -0.79525,-1.96598 -1,-3c-0.38847,-1.96191 0.32589,-4.02673 0,-6c-0.36076,-2.1844 -1.06197,-4.41756 -1.85361,-6.63338c0.53794,-3.2236 0.78704,-6.47867 0.89839,-9.76481h5.08434v53z" fill="#ff0000" stroke="#000000" stroke-width="2" stroke-linecap="butt"/><path d="M249.98438,87v-43h1.40018c0.91468,2.45699 2.52875,4.07107 2.52875,4.07107c0.35192,0.26683 0.66877,0.59318 1.02155,0.85856c-0.51999,1.18805 0.04952,2.73067 0.04952,4.07037c0,4 0,8 0,12c0,2.99235 -0.11082,7.26648 0.76121,9.82684c0.41249,1.21113 1.46901,2.07819 2.36243,3.02125c-0.03577,1.36061 -0.14966,2.77493 0.30544,4.04976c0.65915,1.84641 1.89333,3.42735 2.92417,5.10216z" fill="#ff0000" stroke="#000000" stroke-width="2" stroke-linecap="butt"/><path d="M260.98438,99v-12.56022c0.2349,0.36519 0.46417,0.73299 0.67949,1.10722l2.24944,2.52407c0,0 0.38723,0.38722 1.07107,0.88983v8.0391z" fill="#ff0000" stroke="#000000" stroke-width="2" stroke-linecap="butt"/><path d="M250.98438,117h-25l13,9z" fill="none" stroke="#000000" stroke-width="2" stroke-linecap="round"/><path d="M240.98438,97.5c0,3.03757 -2.68629,5.5 -6,5.5c-3.31371,0 -6,-2.46243 -6,-5.5c0,-3.03757 2.68629,-5.5 6,-5.5c3.31371,0 6,2.46243 6,5.5z" fill="#ff0000" stroke="#000000" stroke-width="2" stroke-linecap="butt"/><path d="M260.60937,99c0,3.52082 -3.63769,6.375 -8.125,6.375c-4.48731,0 -8.125,-2.85418 -8.125,-6.375c0,-3.52082 3.63769,-6.375 8.125,-6.375c4.48731,0 8.125,2.85418 8.125,6.375z" fill="#ff0000" stroke="#000000" stroke-width="2" stroke-linecap="butt"/><path d="M236.98438,97c0,1.65685 -1.11929,3 -2.5,3c-1.38071,0 -2.5,-1.34315 -2.5,-3c0,-1.65685 1.11929,-3 2.5,-3c1.38071,0 2.5,1.34315 2.5,3z" fill="#ffffff" stroke="#000000" stroke-width="2" stroke-linecap="butt"/><path d="M255.98438,98.5c0,1.933 -1.567,3.5 -3.5,3.5c-1.933,0 -3.5,-1.567 -3.5,-3.5c0,-1.933 1.567,-3.5 3.5,-3.5c1.933,0 3.5,1.567 3.5,3.5z" fill="#ffffff" stroke="#000000" stroke-width="2" stroke-linecap="butt"/><path d="M369.98438,54.5c0,-0.27614 -0.22386,-0.5 -0.5,-0.5c-0.27614,0 -0.5,0.22386 -0.5,0.5c0,0.27614 0.22386,0.5 0.5,0.5c0.27614,0 0.5,-0.22386 0.5,-0.5z" fill="#ffffff" stroke="#000000" stroke-width="2" stroke-linecap="butt"/><path d="M231.98438,84l8,5l8,-4" fill="none" stroke="#000000" stroke-width="2" stroke-linecap="round"/></g></g></svg>