<svg version="1.1" xmlns="http://www.w3.org/2000/svg" xmlns:xlink="http://www.w3.org/1999/xlink" width="90.67716" height="119.54396" viewBox="0,0,90.67716,119.54396"><g transform="translate(-180.7523,-57.75)"><g data-paper-data="{&quot;isPaintingLayer&quot;:true}" fill-rule="nonzero" stroke-linecap="butt" stroke-linejoin="miter" stroke-miterlimit="10" stroke-dasharray="" stroke-dashoffset="0" style="mix-blend-mode: normal"><path d="M234.60694,90.92004c0.16334,0.0981 0.26132,0.19607 0.26132,0.19607l0.23223,0.23224c2.13012,2.15368 4.72807,5.28689 6.29989,7.90888c1.09251,1.82245 1.98508,4.35866 3.52388,5.89555c1.17665,1.1752 2.85572,1.78167 3.98308,3.00423c1.71542,1.86027 2.55663,4.10007 4.0626,6.07412c2.01368,2.63957 4.6,4.26802 6.24562,7.24971c2.24701,2.23559 3.40555,5.47388 5.62147,7.60512c1.17696,1.13198 3.19363,1.21 4.22912,2.47269c2.2717,2.77014 2.16824,7.07534 2.16813,10.39936c-0.00031,9.42549 1.78394,19.76093 -5.4309,26.98631c-0.33044,0.24847 -4.14836,3.14186 -4.40156,3.23392c-0.84936,0.30883 -1.81045,0.03954 -2.70693,0.15415c-4.07885,0.52146 -8.16602,1.62832 -12.22988,2.28222c-2.46998,0.39744 -4.87417,1.28794 -7.3531,1.62614c-8.05252,1.09861 -16.38714,1.18944 -24.49852,0.93534c-2.313,-0.96849 -5.18143,-1.7972 -7.30922,-3.12735c-1.32582,-0.82881 -2.27431,-2.14772 -3.45701,-3.17043c-3.76692,-3.25734 -7.99744,-6.48374 -11.06223,-10.46756c-2.56118,-3.32919 -4.095,-7.56582 -5.8402,-11.34712c-1.744,-3.77867 -3.85936,-7.45009 -4.80495,-11.50761c-0.54114,-2.35627 -1.43183,-5.24748 -1.38575,-7.67681c0.01196,-0.6303 0.90355,-4.24665 0.98644,-5.00237c0.23313,-2.12534 0.19807,-4.37053 0.3773,-6.51401c0.19584,-2.34208 -0.02161,-5.50944 0.67771,-7.74321c0.94658,-3.02357 3.13308,-6.02241 4.28195,-9.07723c1.85353,-4.92849 3.40975,-10.10897 8.34794,-12.66041c4.15548,-2.00936 9.48492,-1.13196 14.05901,-1.13196c6.50045,0 13.16408,-0.42359 19.64947,0.01157c3.32477,0.22309 6.50213,0.99223 9.85053,0.98843c0,0 1.25,0 1.25,1.25c0,1.25 -1.25,1.25 -1.25,1.25c-1.4839,-0.00158 -2.93396,-0.14725 -4.37744,-0.32996z" fill="#f50000" stroke="none" stroke-width="0.5"/><path d="M206.98438,126.5c0,9.1127 4.70101,16.5 10.5,16.5c5.79899,0 10.5,-7.3873 10.5,-16.5c0,-9.1127 -4.70101,-16.5 -10.5,-16.5c-5.79899,0 -10.5,7.3873 -10.5,16.5z" fill="#00f54f" stroke="none" stroke-width="0"/><path d="M212.98438,110v-52h9v52z" fill="#00f54f" stroke="#000000" stroke-width="0.5"/></g></g></svg>