<svg version="1.1" xmlns="http://www.w3.org/2000/svg" xmlns:xlink="http://www.w3.org/1999/xlink" width="512.45008" height="387.05322" viewBox="0,0,512.45008,387.05322"><g transform="translate(16.26563,11.53097)"><g data-paper-data="{&quot;isPaintingLayer&quot;:true}" fill-rule="nonzero" stroke="none" stroke-width="0.5" stroke-linecap="butt" stroke-linejoin="miter" stroke-miterlimit="10" stroke-dasharray="" stroke-dashoffset="0" style="mix-blend-mode: normal"><path d="M490.96876,38.00781c-2.10891,2.95348 -5.02469,5.21673 -8.29273,6.79455c-3.18025,1.7207 -6.82186,2.69763 -10.69164,2.69763c-13.52612,0.67362 -27.0862,-0.10699 -40.62866,0c-0.32379,0.00256 -0.6017,0.24372 -0.91429,0.32821c-5.18117,1.40034 -8.73287,1.22151 -14.0267,1.67179c-8.46054,0.71965 -17.24313,4.14019 -25.68814,4.14019c-29.87335,0 -62.61108,0 -92.48442,0c-6.88923,0 -13.75792,-3.07694 -20.68814,-3.14019c-21.85564,-0.19945 -43.71318,0.05988 -65.56965,0c-4.20492,-0.01152 -8.35343,-1.92571 -12.43035,-2c-5.10157,-0.09297 -11.65692,0.56063 -17.08527,-0.35156c-2.02315,-0.33997 -4.42512,-1.63206 -6.49529,-1.64844c-6.8357,-0.05406 -13.70585,0.35919 -20.50471,-0.35156c-13.94369,-1.45768 -28.0359,-0.85706 -42.05402,-0.64844c-7.14462,0.10633 -14.24623,2.96058 -21.43035,3c-9.99621,0.05485 -19.99283,-0.04579 -29.98909,0c-2.36468,0.01083 -4.82026,1.14019 -7.2687,1.14019c-1.01093,0 -4.15301,-0.61672 -4.24221,-0.06005c-0.7764,4.8453 6.24105,12.29937 7.8824,17.65925c1.03575,3.38229 -0.00941,8.98413 1.73395,12.05981c1.34488,2.37266 3.08281,3.19195 4.75047,5.12292c0.74267,0.85994 0.80902,2.44884 1.43268,3.25132c2.90558,3.73869 8.60336,6.49076 12.2005,9.32657c1.61339,1.27192 3.33642,3.14 5.35318,3.77083c2.65336,0.82995 5.55493,1.47597 8.11303,2.35306c3.27317,1.12226 7.12362,4.36307 10.80366,4.37612c10.99458,0.03898 21.99086,0.18487 32.98396,0c5.11483,-0.08602 9.51312,-2.11993 14.45538,-2.82625c4.93424,-0.70517 8.82393,-0.91402 13.56284,-1.17375c2.97655,-0.16313 5.75076,-2.15077 8.71231,-2.64844c4.56304,-0.76678 9.33744,-0.36647 13.86438,-1.35156c4.88226,-1.06241 9.5303,-2.97938 14.65125,-3c17.52307,-0.07057 35.04754,0.19748 52.56965,0c7.91237,-0.08917 16.11995,-3.50774 23.91473,-4.64844c6.72499,-0.98414 13.52862,-1.4712 20.28769,-2.35156c7.6092,-0.9911 15.00211,-3.84241 22.71231,-4.64844c6.7537,-0.70603 13.3356,-1.8801 20,-3c1.67117,-0.28083 4.71405,0.09217 6.43871,-0.35156c7.51444,-1.93338 15.13624,-2.82747 22.77367,-4.0287c4.10248,-0.64525 7.92342,-1.98608 12.11302,-1.9713c13.06333,0.04608 26.12726,-0.10754 39.19022,0c5.21455,0.04293 10.66641,1.07705 15.77243,2.07724c13.34728,2.61452 23.82255,2.82413 31.35218,16.36045c11.99858,21.57034 8.18106,45.52388 -3.84339,66.20292c-1.48378,2.55173 -3.93535,4.36513 -5.5699,6.74826c-3.61624,5.27238 -8.03522,10.77191 -13.13344,14.97795c-7.33653,6.05264 -16.42248,8.8511 -24.8727,13.14935c-13.05107,6.6385 -26.28075,12.03811 -39.73153,17.70969c-1.39483,0.58814 -1.52272,1.32364 -2.72366,1.96164c-2.42041,1.28584 -5.5647,1.16646 -7.94123,2.48162c-15.66139,8.66697 -33.21003,13.68216 -49.76657,20.30562c-2.24677,0.89882 -4.21877,2.61563 -6.57598,3.40137c-7.73801,2.57934 -15.10737,2.82259 -22.90936,4.2581c-9.80477,1.80401 -18.33867,3.65023 -28.19469,4.36578c-4.75736,0.34539 -8.98991,2.99051 -13.86216,3c-58.97425,0.1149 -117.94876,-0.06404 -176.92309,0c-2.23957,0.00243 -5.16097,2.54731 -7.01461,3.62461c-5.15432,2.99562 -9.45192,7.50807 -15,10c-2.34647,1.05392 -6.03722,1.66011 -5.56231,5.06294c0.17613,1.26202 2.34591,4.37602 2.84537,5.69733c1.46774,3.88285 4.0359,10.94143 5.73686,14.39144c1.47306,2.98777 4.39974,5.28833 6.21135,8.14753c0.46945,0.74091 6.05377,10.07488 7.82355,10.07615c127.29061,0.09135 254.5813,0.04705 381.87194,0c7.64662,-0.00283 11.10833,-3.00494 19.26091,1.8125c2.93275,1.73299 6.04427,3.72201 7.73438,6.67969c2.22841,3.89972 3.51563,8.5163 3.51563,13.00781c0,16.18114 -14.52651,23.50497 -28.30978,23.5c-129.39673,-0.04666 -258.79353,0.11614 -388.19022,0c-19.93682,-0.01789 -31.22984,-15.96539 -41.51496,-30.62612c-4.90361,-6.98976 -9.81168,-12.75689 -12.02575,-21.12249c-2.054,-7.76081 -8.2436,-14.11797 -9.60773,-22.23576c-3.12791,-18.61388 2.35563,-35.27361 16.57056,-47.38245c5.32556,-4.53653 12.44932,-6.67224 18.2498,-10.6249c9.47279,-6.45511 21.17169,-14.98465 33.32808,-15.00828c59.11614,-0.11491 118.23315,0.27782 177.34875,0c3.10656,-0.0146 9.16029,-2.29511 11.95227,-2.69386c4.57401,-0.65327 9.39582,-0.50789 13.9291,-1.30614c4.05444,-0.71393 8.00186,-1.99216 12.0709,-2.69386c3.92914,-0.67757 9.65643,-0.50919 13.52879,-1.95606c2.53638,-0.94769 4.62463,-2.85557 7.20398,-3.72619c6.75793,-2.28105 13.54339,-4.5724 20.33412,-6.9636c9.77465,-3.44192 19.2016,-8.25753 28.38209,-12.84778c2.09736,-1.04868 4.65458,-1.18636 6.70869,-2.13458c7.08223,-3.26931 14.37301,-6.06016 21.479,-9.30253c7.48026,-3.41315 14.83705,-6.99911 22.27986,-10.50986c3.38632,-1.59732 7.88223,-2.47992 10.87135,-4.83433c6.49182,-5.11334 11.751,-12.16033 15.33694,-19.69443c0.22717,-0.47729 1.23717,-6.41804 1.03385,-6.59079c-0.9092,-0.77249 -10.65383,-1.70758 -12.89006,-1.74597c-11.1846,-0.19203 -22.37258,-0.04593 -33.55873,0c-2.0469,0.0084 -5.42864,1.20053 -7.34218,1.62359c-6.88222,1.52158 -14.21364,2.85873 -21.15311,4.02485c-7.57308,1.27259 -15.25277,1.30004 -22.84689,2.97515c-5.78817,1.27676 -12.02314,1.38721 -17.89886,2.37641c-7.73913,1.30292 -15.49195,3.34405 -23.25425,4.64844c-2.36304,0.39709 -5.15493,-0.10338 -7.43871,0.35156c-8.59542,1.71225 -18.1536,4.94524 -27.07691,5c-17.92368,0.10999 -35.84829,-0.0936 -53.77206,0c-3.28831,0.01717 -6.38669,2.30078 -9.71231,2.64844c-7.9204,0.828 -15.26803,2.59223 -23.10301,3.91463c-4.29351,0.72466 -8.60894,0.15181 -12.89993,1.04795c-3.0326,0.63334 -5.93383,1.85375 -9.02798,2.25137c-39.98027,5.13776 -68.13424,2.14762 -99.36165,-20.14509c-6.68462,-4.77204 -14.75284,-8.93513 -20.10743,-15.20948c-0.48161,-0.56434 -1.99009,-4.71356 -2.33088,-5.32679c-3.48721,-6.27498 -7.89465,-11.82605 -10.06715,-18.92041c-0.57345,-1.87263 -1.45975,-10.95602 -2.1176,-11.79416c-4.79737,-6.11213 -9.14019,-15.22198 -9.14019,-23.22424c0,-5.97678 -0.30509,-15.00796 1.49175,-21.25784c2.48038,-8.62743 6.5087,-17.52517 13.57056,-23.3512c3.98594,-3.2884 10.41687,-4.68787 15.29475,-5.50486c19.75878,-3.30939 31.43848,-2.89257 53.51325,-3.12831c6.93114,-0.07402 13.80247,-2.95053 20.76988,-3c15.33295,-0.10886 30.66705,-0.10886 46,0c2.16916,0.0154 4.26237,0.92701 6.43035,1c5.43441,0.18297 10.87437,-0.14019 16.31186,-0.14019c3.87935,0 7.54051,2.10221 11.2687,2.14019c4.32947,0.0441 8.66037,-0.0922 12.98909,0c3.73471,0.07955 7.21826,1.97886 10.86216,2c22.3789,0.12986 44.75884,-0.11136 67.13784,0c4.312,0.02146 9.2569,0.63592 13.51563,1.35156c2.01046,0.33784 4.43668,1.64512 6.49529,1.64844c28.99269,0.04668 57.98549,0.04668 86.97818,0c2.3662,-0.00381 5.16387,-1.40471 7.49529,-1.64844c7.45763,-0.77962 15.02127,-1.44746 22.43871,-2.35156c1.77323,-0.21614 3.73976,-1.34234 5.56129,-1.64844c15.94869,-2.68004 32.36148,-1.11761 48.51563,-0.35156c3.92345,0 7.61235,1.00422 10.82369,2.76965c4.05114,1.86144 7.60194,4.65519 8.60936,8.38264c1.94956,3.33144 3.06695,7.20908 3.06695,11.34771c0,2.8229 -0.51986,5.52437 -1.46905,8.01392c-0.4002,1.79809 -0.98586,3.5084 -2.04657,4.9939z" fill="#9b6f06"/><path d="M260.98438,46.5c7.58017,-0.10367 15.16133,-0.14019 22.74221,-0.14019c8.37076,0 16.88021,3.0812 25.2687,3.14019c9.8979,0.0696 18.36792,-0.15723 27.76115,-1c9.54392,-0.85629 21.2318,-6.14019 30.48573,-6.14019c11.78098,0 24.70344,0 36.48442,0c5.11424,0 10.18595,2.11523 15.2687,2.14019c9.30395,0.04569 18.61208,0.27148 27.91218,0c1.58707,-0.04633 3.89049,-1.36767 5.56129,-1.64844c8.22295,-1.3818 20.82627,-3.61986 27.52344,2.16406c2.13226,1.84149 4.13507,3.84431 5.97656,5.97656c2.17996,2.52417 2.35515,6.25655 3.16406,9.49219c0.90799,3.63194 2.2907,7.21625 2.47293,10.95553c0.65358,13.41098 -9.48726,23.64551 -22.91389,24.57149c-3.39844,0.23438 -6.74444,-1.32603 -9.8481,-2.73017c-1.93043,-0.87335 -3.10797,-2.94795 -4.96352,-3.97081c-0.13018,-0.07176 -3.20574,0.19165 -3.70565,0.18959c-11.72997,-0.04846 -23.50801,1.05859 -35.19022,0c-16.6023,-1.50443 -22.0678,-2.59839 -43.92309,-2c-1.58262,0.04333 -3.89396,1.36826 -5.56129,1.64844c-7.37546,1.23939 -14.68213,2.66212 -22.10301,3.91463c-12.18715,2.05696 -24.94353,1.57712 -37.15482,1.57712c-2.45664,0 -4.89002,-1.08484 -7.2687,-1.14019c-0.26079,-0.00607 -0.51862,-0.01212 -0.77378,-0.01828c-4.81419,5.73926 -11.87106,7.88511 -20.36212,10.74745c-2.23989,0.75507 -4.48802,3.40074 -6.60318,4.45833c-3.62336,1.81168 -8.45675,2.95269 -12.50779,2.95269c-7.58088,0 -15.16164,-0.07164 -22.74221,-0.14019c-2.41524,-0.02184 -4.86899,-0.97992 -7.22794,-1c-21.11314,-0.17969 -42.22874,-0.19917 -63.34171,0c-6.56372,0.06192 -13.1121,3.14019 -19.68814,3.14019c-7.00222,0 -14.52727,0.41722 -21.70334,-0.30038c-4.11825,-0.41183 -8.36713,-1.70877 -12.46923,-1.8398c-9.44307,-0.30165 -20.79513,1.69976 -29.81965,-2.8125c-8.49136,-4.24568 -14.12418,-10.1163 -19.89723,-17.51211c-1.61276,-2.0661 -2.89229,-4.69017 -3.72888,-7.20917c-0.19198,-0.57805 0.38559,-1.50351 -0.13335,-1.82241c-3.37459,-0.60699 -6.48787,-1.96645 -9.1599,-3.89848c-5.65264,-4.08718 -9.33063,-10.73673 -9.33063,-18.24532c0,-2.8229 0.51986,-5.52437 1.46905,-8.01392c0.4002,-1.79809 0.98586,-3.5084 2.04657,-4.9939c2.16873,-3.03724 5.15503,-5.33371 8.54789,-6.93049c2.57222,-1.34917 5.43766,-2.21518 8.47575,-2.47744c4.23607,-0.59615 8.58073,-0.35241 12.45406,0.67325c3.54576,0.93892 6.74701,2.55965 10.11769,3.95366c1.57428,0.65108 3.17346,1.24109 4.74527,1.89811c0.46246,0.19331 1.00889,0.99027 1.36288,0.6354c2.16548,-2.17083 3.47214,-5.3196 6.11796,-6.86928c7.74529,-4.53649 14.74787,-1.62702 22.32619,-0.10438c4.935,0.99154 10.53758,1.00706 15.50542,2.1054c5.79775,1.28182 11.10739,2.01068 16.84689,2.97515c2.07788,0.34917 4.75699,1.63173 6.91473,1.64844c28.53435,0.22098 57.24149,-2.16992 85.59975,1.00301c3.61048,0.40397 8.33265,0.91656 13.10144,1.59468c2.05768,-0.39676 4.14553,-0.57413 5.86846,-0.59769z" fill="#0ae5f4"/><path d="M13.75166,304.73993c0.71469,1.66286 0.30564,3.5621 0.22043,5.41244c1.55903,0.3182 3.24387,0.91684 5.55514,2.05789c7.07207,3.49138 10.03977,10.83263 9.85951,18.13209c1.82616,2.01703 3.27053,4.32565 4.16745,6.74319c0.95656,2.57831 3.45636,5.23616 4.42518,7.80232c6.53179,0.19502 12.92059,0.89505 19.37956,1.94645c4.05442,0.65998 8.37469,0.31263 12.42749,1.06098c2.07314,0.3828 3.92269,1.6405 6,2c1.97071,0.34105 4.02121,-0.29047 6,0c1.04292,0.15309 1.9671,0.78969 3,1c2.28642,0.46553 4.6901,-0.32983 7,0c2.26125,0.32288 4.31134,1.61559 6.57251,1.93902c3.61553,0.51715 7.97138,-0.08429 11.62544,-0.08429c25.33333,0 50.66667,0 76,0c4.04443,0 9.28111,0.90177 13.19795,0.14527c2.52275,-0.48725 4.87357,-1.77953 7.42749,-2.06098c5.9514,-0.65586 12.37396,-0.08429 18.37456,-0.08429c12.33333,0 24.66667,0 37,0c27.66667,0 55.33333,0 83,0c6.66667,0 13.33333,0 20,0c3.13541,0 7.19272,0.66535 10.19795,0.14527c5.05514,-0.87484 9.90619,-3.15935 15,-4c4.03412,-0.66576 8.71209,-0.14527 12.80205,-0.14527c6.33333,0 12.66667,0 19,0c1.51757,0 10.48313,-0.02204 11.37456,0.08429c2.55129,0.30431 4.90474,1.57373 7.42749,2.06098c1.37475,0.26552 2.7978,-0.14527 4.19795,-0.14527c5,0 10,0 15,0c1.89611,0 3.81949,-0.3119 5.69259,-0.0486c0.02129,-0.02004 0.04362,-0.04069 0.06704,-0.06196c0.46602,-0.42334 0.98083,-0.82261 1.54588,-1.10544c0.00672,-0.02928 0.01398,-0.05979 0.02181,-0.09156c0.64084,-2.60087 0.81802,-5.06116 1.50698,-7.817c-0.12034,-3.74835 0.33006,-6.83768 1.06098,-10.42749c0.64956,-3.19027 -0.14527,-7.92714 -0.14527,-11.19795c0,-1.28887 0,-2.57773 0,-3.8666l-2.76461,-3.74758c-0.09656,0.05812 -0.19699,0.0689 -0.29062,0.00784c-1.19544,-0.77962 -2.24723,-1.50697 -3.17561,-2.22399c-1.07771,0.76759 -2.29651,1.34993 -3.60993,1.70055c-2.05734,2.66402 -5.28293,4.37979 -8.90927,4.37979c-0.66667,0 -4.33333,0 -5,0c-1,0 -2,0 -3,0c-1.33333,0 -2.66667,0 -4,0c-6.65973,0 -13.31947,0 -19.9792,0c-2.19083,0.45173 -3.41864,1.62617 -5.64624,1.91571c-4.15736,0.54036 -9.17636,0.08429 -13.37456,0.08429c-8.33333,0 -16.66667,0 -25,0c-9,0 -18,0 -27,0c-5.13465,0 -10.72463,0.61331 -15.80205,-0.14527c-2.08504,-0.31151 -3.91044,-1.7204 -6,-2c-0.99117,-0.13263 -2.01477,0.17125 -3,0c-2.48011,-0.4311 -4.80769,-1.60492 -7.3065,-1.90948c-2.47509,-0.30167 -5.05165,0.33584 -7.47617,-0.2462c-0.80151,-0.19241 -1.51426,-0.61985 -2.22655,-1.05407c-3.22247,2.35502 -7.18873,2.35502 -7.18873,2.35502h-4c-10.16359,0 -20.67672,0.72598 -30.7975,-0.0283c-2.3505,-0.17518 -4.65311,-0.78163 -7,-1c-1.66146,-0.15459 -3.70809,0.93354 -5.00455,-0.11696c-0.34268,-0.27767 -0.67818,-0.56285 -1.00725,-0.85473c-0.11988,0 -0.1907,0 -0.1907,0c-0.13866,0 -0.27673,-0.00251 -0.41417,-0.00748l-0.14339,0.43017l-2.7539,-0.91797c-1.21617,-0.37403 -2.34447,-0.94867 -3.34627,-1.68532c-0.32331,0.02065 -0.64594,0.05184 -0.96771,0.09631c-1.36143,0.18816 -2.63701,0.82353 -4,1c-1.84224,0.23852 -3.7486,-0.41325 -5.57251,-0.06098c-2.52275,0.48725 -4.88254,1.70754 -7.42749,2.06098c-1.40852,0.19561 -2.85028,-0.10423 -4.26601,0.02954c-2.50613,0.23679 -4.80592,1.61985 -7.3065,1.90948c-2.37162,0.27469 -4.78421,0.40593 -7.16398,0.2068c-2.31536,2.64001 -5.69639,1.53203 -9.63808,1.93847c-25.23818,0 -50.57787,0.61779 -75.80205,-0.14527c-1.88376,-0.56788 -5.20233,-1.69498 -7.3065,-1.90948c-8.76343,-0.89336 -16.60896,0.81023 -24.81674,-3.55538c-0.91252,0.43527 -1.8534,0.81277 -2.81464,1.12741c-1.73237,0.56706 -3.65758,0.05275 -5.45802,0.33745c-2.64084,0.41759 -4.80012,2.6223 -7.80205,1.14527h-3c-5.62708,0 -10.28925,-4.13133 -11.11877,-9.52629c-2.50388,-2.52838 -4.35027,-5.9244 -5.55391,-9.16615c-0.10033,-0.27023 -0.34533,-0.99767 -0.6432,-1.90498c-2.7717,-0.81845 -5.63833,-1.6969 -7.63906,-3.69763c-6.78747,-6.78747 -4.61342,-17.49711 -2.06132,-25.46193c-1.46704,-2.37805 -2.18127,-5.68047 -0.2905,-10.00223c4.50921,-10.30677 14.81598,-5.79756 14.81598,-5.79756l1.60762,0.70333c4.67398,-1.1304 9.6898,-1.21452 14.25773,-0.56227c0.81094,0.11579 1.60333,0.31771 2.38833,0.55486l1.23711,-4.63915c1.63821,0 3.32938,-0.05082 5.04744,-0.11475c0.9702,-0.49746 2.06932,-0.41536 3.21228,-0.12474c4.44621,-0.16783 8.96253,-0.26912 13.11484,0.32378c2.54358,0.3632 4.87699,1.75007 7.42749,2.06098c1.24363,0.1516 2.52567,-0.26044 3.75834,-0.03653c2.55381,0.46389 4.943,1.65527 7.50326,2.08215c5.18739,0.86492 12.1643,0.65798 17.93912,1.80911c3.99908,0 7.99816,0 11.99724,0c1.92747,0 3.96651,-0.10636 6.00757,-0.15465c1.1013,-5.05779 5.60455,-8.84535 10.99243,-8.84535l0.00004,-0.00002h6c2.36415,-1.56451 5.4563,-0.70977 8.43215,-0.2415c6.95116,-1.24788 14.38003,-1.98723 16.56785,0.2415h4c4.48303,0 8.3536,2.6222 10.16163,6.4165c5.50911,0.80219 11.01174,1.64069 16.49534,2.5835c6.9386,0 13.87721,0 20.81581,0c0.10145,-1.01026 0.36425,-2.07061 0.81389,-3.18325c4.36872,-10.81038 20.63186,-8.80525 28.71332,-8.81675c13.32342,-0.01897 26.72383,-0.32719 40.0835,-0.23852c1.3614,-0.49323 2.70706,-1.00457 3.97379,-1.61753c2.29185,-1.109 4.2318,-2.83382 6.39148,-4.18224c2.42215,-0.67794 4.93434,-1.11418 7.24604,-2.10536c2.80537,-1.20285 5.17574,-3.33266 8.04512,-4.37364c0.62365,-0.22625 1.31983,0.56556 1.95488,0.37364c0.32055,-0.09687 -0.1766,-0.82876 0.11216,-0.99832c1.86387,-1.09442 4.02827,-1.58619 5.9556,-2.56454c2.70151,-1.37134 5.14746,-3.24393 7.93223,-4.43714c2.36231,-1.0122 4.98991,-1.27063 7.40204,-2.15756c1.82519,-0.67111 3.44607,-1.87251 5.31842,-2.39784c0.99167,-0.27824 2.05207,-0.3242 3.0877,-0.23523c2.95201,-3.8818 8.72059,-2.80816 12.55432,-4.92177c3.86009,-2.12814 7.73041,-4.47655 11.5291,-6.75577c5.16136,-2.58296 10.42442,-4.95893 15.68019,-7.34393c3.00546,-1.36384 7.21985,-3.9325 10.14869,-4.7433c1.06964,-0.29611 2.22309,0.31731 3.32465,0.18177c0.19639,-0.02417 -0.13683,-0.47223 0.01969,-0.59328c1.34473,-1.03992 2.78168,-1.97639 4.29767,-2.74548c0.61849,-0.31377 1.4184,-0.13349 2.02823,-0.46377c0.31547,-0.17086 0.26784,-0.69936 0.54346,-0.92904c1.74331,-1.45276 3.54692,-2.84501 5.45654,-4.07096c5.10199,-3.2754 9.99066,-6.39701 14.7821,-10.13028c2.53926,-1.97847 4.53242,-4.94369 7,-7c0.64355,-0.53629 1.55984,-0.68886 2.17742,-1.25485c0.82132,-0.75271 1.28922,-1.7901 1.78477,-2.80987c-0.00692,-0.46047 0.01528,-0.91691 0.12318,-1.36264c0.42231,-1.74467 1.5459,-3.26333 2,-5c0.58881,-2.25185 -0.38979,-4.6661 -0.14824,-6.98109c0.17639,-1.6905 0.79786,-3.31239 1,-5c0.37307,-3.11457 -0.05475,-6.76553 -0.05475,-9.89145c0,-4.66667 0,-9.33333 0,-14c0,-1.73333 0.48553,-3.49835 0.14527,-5.19795c-0.13499,-0.67428 -0.95665,-1.25315 -0.76839,-1.91454c0.1374,-0.48271 0.97939,-0.6433 1.43924,-0.44224c0.3707,0.16208 0.77533,0.53494 1.17679,0.96485c-0.00493,-0.80331 0.00709,-1.60678 0.00709,-2.41013c0,-1 -0.90257,-3.43054 0,-3c0.26701,0.12737 1.61656,2.42839 2.75336,4.42497c-0.08806,-2.77248 -1.20228,-5.63401 -1.50336,-8.42497c1.60068,-3.70158 1.11965,-9.4604 4.80205,-11.10473c0.03235,-0.01445 0.06477,-0.02841 0.09726,-0.04188l0.02859,-0.06505c0.02355,0.00852 0.04713,0.01699 0.07073,0.02543c1.89499,-0.7262 4.0096,0.15457 5.91111,1.52693c2.84501,0.65978 5.6048,1.45896 7.67423,3.3876c5.65802,5.27309 1.35278,11.73324 2.52076,17.46967c1.00828,4.95206 1.16198,10.02686 2,15c0.53484,3.17393 1.38052,6.408 1,9.6041c-0.61367,5.15437 -3.19002,10.1509 -5.15568,14.78267c-0.67971,1.60162 0.43899,3.50067 0.15568,5.21733c-0.54819,3.32168 -1.7662,6.39015 -3.30851,9.30069c-0.33396,1.42989 -0.82918,3.42196 -1.25125,5.10036c4.15051,2.10856 4.9468,8.04877 6.62073,12.42234c0.64046,1.67336 0.06626,3.58291 0.08429,5.37456c0.03627,3.60386 0.24903,7.42163 0,11c-0.17021,2.44582 -0.03378,4.99556 -0.85636,7.30519c-0.60154,1.689 -2.30425,2.7604 -3.26717,4.2728c-0.80061,1.25747 -1.12727,2.79146 -2,4c-1.02423,1.41834 -2.48779,2.4658 -3.62762,3.79303c-0.66883,0.77879 -2.04523,2.8727 -2.55059,3.16659c0.08631,0.34561 0.17733,0.84142 0.21744,1.08783c0.22081,1.35651 0.84823,2.63404 1,4c0.07243,0.65188 0.10899,1.30754 0.13081,1.96463c6.23701,2.74087 11.73093,6.71492 10.89873,15.51848c-0.44738,4.73269 -2.90569,7.92886 -6.19162,10.22869c0.03246,0.28569 0.06608,0.57257 0.1011,0.86071c0.31004,2.5506 1.69778,4.88391 2.06098,7.42749c0.60435,4.23248 0.08429,9.11414 0.08429,13.37456c0,3.20383 0.30301,6.75556 -0.04061,9.97271c3.04065,3.32441 3.04065,8.02727 3.04065,8.02727v1c0,10.66061 0.19845,21.34162 0,32c-0.04893,2.6281 -0.62083,5.22634 -1.14527,7.80205c-0.43712,2.14688 0.09533,4.38185 0.06098,6.57251c-1.45143,5.8057 -1.18804,12.25511 -4.59589,17.53991c-2.69416,4.17802 -9.58985,9.35304 -14.30975,10.85281c-3.38287,1.07492 -8.58722,0.48271 -12.26007,0.48271c-7.33835,0 -15.55644,1.00246 -22.80205,-0.14527c-2.25606,-0.35737 -4.29838,-1.72486 -6.57251,-1.93902c-2.86262,-0.26958 -5.75015,0.08429 -8.62544,0.08429c-6.33333,0 -12.66667,0 -19,0c-2.7406,0 -6.53475,-0.60616 -9.19795,-0.14527c-5.05514,0.87484 -9.90619,3.15935 -15,4c-1.18559,0.19566 -8.69824,0.14527 -9.80205,0.14527c-8,0 -16,0 -24,0c-27.66667,0 -55.33333,0 -83,0c-12.33333,0 -24.66667,0 -37,0c-5.13369,0 -10.51747,-0.49515 -15.62544,-0.08429c-2.27684,0.18314 -4.31645,1.58166 -6.57251,1.93902c-5.33743,0.84546 -11.39319,0.14527 -16.80205,0.14527c-25.33333,0 -50.66667,0 -76,0c-4.61231,0 -9.80886,0.56764 -14.37456,-0.08429c-2.54358,-0.3632 -4.884,-1.69717 -7.42749,-2.06098c-2.30982,-0.33039 -4.69141,0.33888 -7,0c-1.04292,-0.15309 -1.9671,-0.78969 -3,-1c-1.95979,-0.39903 -4.02669,0.32566 -6,0c-2.08005,-0.34328 -3.91044,-1.7204 -6,-2c-2.00968,-0.26891 -4.01318,-0.59547 -6,-1c-1.82027,-0.37062 -3.73027,0.2995 -5.57251,0.06098c-6.03927,-0.78193 -12.08317,-1.92334 -18.25088,-2c-4.90294,1.22573 -9.64772,1.23548 -14.57251,1.93902c-1.0435,0.14907 -1.95708,0.84691 -3,1c-1.97879,0.29047 -4.04021,-0.39903 -6,0c-4.05061,0.82473 -5.20183,3.34886 -10.6041,1c-4.44699,-1.93351 -9.92256,-3.99934 -11.83902,-8.4537c-2.10789,-4.89927 3.76137,-13.05488 5.47536,-18.0256c0.32332,-0.93764 -0.77597,-1.84507 -0.93902,-2.82339c-0.1644,-0.98639 0.20593,-2.02143 0,-3c-1.38653,-6.58889 -5.20882,-13.07076 -7.28891,-19.49686c-0.8518,-1.90682 -2.04382,-3.69567 -2.55541,-5.72047c-0.84895,-3.36008 -0.30095,-8.04218 -0.30095,-11.58472c0,-6.74911 -0.19076,-13.2403 1.14527,-19.80205c0.83306,-4.09151 -0.54667,-9.37328 -0.06098,-13.57251c0.15791,-1.36527 0.77919,-2.64349 1,-4c0.47904,-2.94284 -0.08429,-6.63341 -0.08429,-9.62544c0,0 0,-4.68347 3.02187,-8.00667c-1.44116,-2.67509 -2.64529,-5.40344 -2.76688,-8.37499c-0.20199,-4.93653 4.92212,-9.54865 6.15322,-14.62138c1.50727,-6.21068 2.34716,-12.48645 3.39964,-18.75069c-1.67192,-2.1212 -2.78973,-4.74196 -4.32514,-6.98624c-0.35495,-4.68927 -1.66969,-8.90896 -2.33745,-13.45802c-0.76003,-5.17766 -0.76003,-12.42644 0,-17.6041c0.44346,-3.02105 1.50407,-5.98404 2,-9c0.5194,-3.15866 -0.47311,-6.77698 0,-10c0.15309,-1.04292 0.78969,-1.9671 1,-3c0.48602,-2.38704 -0.17407,-5.67823 -0.14527,-8.19795c0.01667,-1.45836 -0.67176,-3.12737 0.08429,-4.37456c1.80836,-2.9831 4.04175,-5.67075 6.32141,-8.32624c-0.34386,-1.0784 -0.68052,-2.14022 -0.95705,-3.15384c-0.59842,-2.19353 -2.07776,-4.07013 -2.74985,-6.24222c-0.14448,-0.46692 0.6552,-1.03667 0.35528,-1.4226c-0.6552,-0.84311 -2.08479,-0.8123 -2.74453,-1.65187c-0.87321,-1.11122 -0.9095,-2.69802 -1.62937,-3.9142c-0.77808,-1.31454 -2.33575,-2.1618 -2.82382,-3.60929c-1.75698,-5.21075 0.05167,-9.87022 -0.77207,-14.93063c-0.22081,-1.35651 -1.1103,-2.63006 -1,-4c0.04167,-0.51759 1.47303,1.40127 1.24687,0.93384c-1.23336,-2.5491 -2.88744,-4.87227 -4.33116,-7.3084l5.27799,-1.65384c-0.77098,-2.18905 -1.80119,-4.41285 -2.13272,-6.54411c-0.22687,-1.45843 0.09264,-2.95954 -0.06098,-4.42749c-0.23774,-2.27178 -1.58166,-4.31645 -1.93902,-6.57251c-0.5375,-3.39327 -0.14527,-7.34428 -0.14527,-10.80205c0,-6.99891 0.00365,-13.44033 3.14395,-19.9427c0.97244,-2.01355 2,-4 3,-6c0.52028,-1.04056 2.15826,-1.7066 2.00131,-2.85935c-0.81893,-6.01478 -0.44882,-12.70129 2.53491,-18.11242c2.01009,-3.64539 6.85354,-7.30992 10.32944,-9.44609c1.95458,-1.20122 3.79384,-2.71196 5.98031,-3.40672c4.2991,-1.36606 10.68622,-0.48271 15.26007,-0.48271c19.33333,0 38.66667,0 58,0c0,0 11.25,0 11.25,11.25c0,11.25 -11.25,11.25 -11.25,11.25c-19.33333,0 -38.66667,0 -58,0c-2,0 -4,0 -6,0c-0.99405,0 -2.00309,0.17145 -2.98243,0.00306c-0.59283,0.66627 -1.98584,1.83286 -2.69769,2.4103c0.0059,0.43858 -0.07998,0.90613 -0.06989,1.33664c0.02684,1.14526 0.00808,8.01939 -0.14527,8.80205c-0.81599,4.16481 -3.12097,8.38522 -4.99869,12.14065c-0.96695,1.93391 -2.6155,3.62999 -3.00131,5.85935c-0.36267,2.09564 0.14527,5.03819 0.14527,7.19795c0,2.11995 -0.54071,5.15053 -0.14527,7.19795c0.48725,2.52275 1.70599,4.88275 2.06098,7.42749c0.16455,1.17959 -0.20469,2.3902 -0.06098,3.57251c0.3978,3.27255 2.5383,6.69033 3,10c0.04362,0.31271 0.0633,0.62703 0.06794,0.94237c5.00551,4.85245 9.38684,11.69267 9.99304,18.48512c0.20216,2.26518 0.68364,4.65345 0.83952,6.98083c0.8583,0.65415 1.65299,1.29949 2.36579,1.89488c1.67111,1.39584 3.38119,3.5386 5,5c1.87358,1.6914 4.11351,3.0038 5.75545,4.92087c0.62173,0.7259 0.26746,1.96522 0.81398,2.74931c0.2285,0.32784 0.85946,-0.09313 1.19193,0.12858c1.96352,1.3094 3.83016,4.03084 5.7821,5.13028c0.91843,0.51731 2.11842,0.42214 3,1c2.89438,1.8972 4.57975,4.80616 7.2179,6.86972c3.69267,2.88841 8.0058,6.43548 12.08882,8.73508c1.64082,0.92413 3.4853,1.6043 4.96168,2.75232c2.07531,-0.39129 7.04094,1.17241 7.54564,1.29859c5.22862,1.30715 10.869,0.6641 16.27147,0.6641c15.33333,0 30.66667,0 46,0c3.89118,0 7.32497,-0.43531 11.19795,-0.85473c1.64244,-0.17787 3.06845,-1.24191 4.65669,-1.69662c4.3065,-1.23293 9.34079,-2.82885 13.7708,-3.36436c1.65462,-0.20001 3.34126,0.16236 5,0c3.5677,-0.34921 7.05406,-2.3917 10.57251,-2.93902c1.45843,-0.22687 2.96109,0.10681 4.42749,-0.06098c4.02779,-0.46087 7.9469,-2.49532 12,-3c4.921,-0.61275 10.40416,-0.08429 15.37456,-0.08429c17.33333,0 34.66667,0 52,0c3,0 6,0 9,0c2,0 5.86696,-1.99557 6,0c0.0055,0.08254 0.00939,0.16478 0.0117,0.24673c2.47279,-1.62323 5.02817,-3.08523 7.77131,-4.18071c7.73895,-3.09056 16.55271,-1.94546 24.8216,-2.97914l-1.63576,0.10082c0,0 5.04467,-2.52233 9.77614,-0.42319c6.43122,-0.22283 13.15403,0.7224 19.30775,1.28486c3.41653,0.31228 6.67154,0.58577 9.85865,0.94069l0.00005,0.00003c2.58682,-1.5002 6.50433,-3.25985 7.95623,-4.44015c2.98409,-2.42587 6.37484,-6.06443 9.82719,-7.69355c0.90437,-0.42676 2.05523,0.32772 3,0c0.39031,-0.13539 0.03188,-0.97146 0.39071,-1.17618c3.7291,-2.12747 9.01266,-3.30033 13.11242,-4.53491c2.02759,0 3.99391,-0.70553 6,-1c6.01172,-0.88246 12.71765,-0.14527 18.80205,-0.14527c1.36,0 8.14892,-0.01568 8.37456,0.08429c4.70018,2.08239 10.82846,3.50645 13.11856,8.109c1.93044,3.87972 -1.42625,8.58122 -2.76288,12.70339c-1.6669,5.1407 -6.13615,10.98075 -10.81576,13.92314c-1.92814,1.21235 -4.55135,1.14215 -6.33648,2.55665c-4.80529,3.80761 -9.15362,7.7781 -14.33761,11.23409c-1.99344,1.13557 -3.83677,2.58905 -5.98031,3.40672c-0.84219,0.32126 -1.87432,-0.45041 -2.70251,-0.0946c-0.90555,0.38905 -1.19496,1.63739 -2.04591,2.13466c-1.32391,0.77366 -3.01321,0.78015 -4.31863,1.58461c-0.95303,0.58729 -1.36091,1.8216 -2.26964,2.47535c-2.28188,1.64162 -4.71209,3.08866 -7.2225,4.35346c-2.21556,1.11625 -4.88139,1.06271 -7.14966,2.06752c-1.9129,0.84739 -3.73721,1.88211 -5.60852,2.81776c-1.07497,0.53748 -1.92075,1.47118 -3,2c-0.62278,0.30516 -1.43536,0.10393 -2.02823,0.46377c-0.99976,0.6068 -1.53726,1.8743 -2.60607,2.34902c-1.88318,0.83642 -4.05558,0.80198 -6.00321,1.47481c-2.6126,0.90255 -4.41081,3.53658 -7.04512,4.37364c-1.99461,0.6338 -4.17002,0.37376 -6.26007,0.48271c-3.83411,0.19987 -7.74998,0.05382 -11.60619,-0.04409l2.3694,3.67665c-0.25243,0.12592 -0.50679,0.24848 -0.76321,0.36744c-2.66667,0 -5.33333,0 -8,0c-1.41633,0 -2.83266,0 -4.24899,0c-2.80042,3.40139 -5.09979,7.27726 -9.44583,9.14364c-2.25279,0.96745 -4.86046,0.67117 -7.30519,0.85636c-1.0789,0.08173 -9.71258,-0.08521 -9.80205,-0.14527c-1.50661,-1.01129 -2.88422,-2.18167 -4.1935,-3.43633c-1.43905,5.41108 -5.15143,10.35531 -9.69926,12.72524c-1.94121,1.01159 -8.49073,0.85636 -11.30519,0.85636c-8,0 -16,0 -24,0l-7.56308,-4.69826c-0.49426,0.36645 -0.96622,0.78971 -1.53377,0.99946c-3.71312,1.37229 -8.02784,1.82707 -11.87498,2.51446c-2.78098,0.4969 -5.43439,1.60656 -8.22611,2.03906c-5.29068,0.81965 -11.49969,0.14527 -16.80205,0.14527c-11.33333,0 -22.66667,0 -34,0c-7,0 -14,0 -21,0c-3.70455,0 -8.15763,0.45618 -11.80205,-0.14527c-2.08005,-0.34328 -3.90048,-1.80904 -6,-2c-1.65982,-0.15096 -3.3462,0.20672 -5,0c-1.04595,-0.13074 -1.95988,-0.82897 -3,-1c-2.46044,-0.40459 -5.68279,0.14527 -8.19795,0.14527c-5.66667,0 -11.33333,0 -17,0c-1.89728,-0.09839 -3.74471,0.64701 -5.62544,0.91571c-3.84678,0.54959 -7.67592,1.35611 -11.57251,1.93902c-6.21937,0.93039 -11.26724,4.14527 -17.80205,4.14527c-0.65396,0 -1.33338,-0.00103 -2.02803,-0.01361c-0.11371,0.21055 -0.24638,0.43579 -0.40215,0.67808c-3.61895,5.62908 -10.09457,10.51837 -16.9851,10.03458c-3.65172,1.82586 -8.53685,3.27389 -13.21206,3.15418c-0.21859,0.3466 -0.44226,0.68997 -0.67257,1.02914c-0.25737,0.37904 -0.90423,0.38358 -1.13028,0.7821c-0.34217,0.60324 -0.13608,1.41701 -0.46377,2.02823c-0.97769,1.82362 -2.15433,3.54197 -3.40595,5.18967c-0.25418,0.33462 -0.45928,0.58776 -0.62305,0.77373c-0.02739,1.51115 -0.06079,3.0507 -0.6834,4.39909c-0.98096,2.12447 -2.86994,3.69316 -4.33615,5.52062c1.1925,2.65448 1.1925,5.17422 1.1925,5.17422c0,4.00973 0.43069,8.39708 -0.08429,12.37456c-0.17647,1.36299 -0.81184,2.63857 -1,4c-0.64934,4.69817 0.63492,9.68677 -0.06098,14.42749c-0.15309,1.04292 -0.78969,1.9671 -1,3c-0.39534,1.94169 0.10282,4.8581 0.14276,6.94502c2.65423,1.34185 3.94942,3.01238 6.51979,8.99285zM209.17383,280.75c3.60324,0 7.20648,0 10.80972,0c-0.45588,-0.60693 -0.85181,-1.26146 -1.17898,-1.95481c-3.11304,0.98792 -6.35955,1.51464 -9.63074,1.95481zM363.01048,151.96925c-0.96624,-0.18197 -1.98406,-0.32812 -3.01824,-0.47201c-1.52234,1.39175 -3.05205,2.769 -4.68076,3.9517c1.6821,-1.00934 3.37645,-2.00415 5.12167,-2.73722c0.82355,-0.34593 1.69592,-0.55749 2.57734,-0.74247zM294.4337,183.57191c-0.11104,-0.16185 -0.22111,-0.32419 -0.33,-0.48716c-0.00986,0.00089 -0.01971,0.00178 -0.02957,0.00266c0.21373,0.29102 0.35956,0.4845 0.35956,0.4845zM285.10515,182.25c-0.02376,0.18142 -0.04744,0.36841 -0.07093,0.56105c1.53203,-0.0212 3.06966,-0.04215 4.60505,-0.06277c-0.49574,-0.14378 -0.99283,-0.31289 -1.49069,-0.49828c-1.01448,0 -2.02895,0 -3.04343,0zM304.40056,189.06069l-1.4376,-0.87821c-0.40953,1.38259 -0.84971,2.75389 -1.35513,4.10118c2.14425,-0.61728 3.54415,-1.03871 3.37655,-1.03366zM22.82054,206.51879c0.06584,0.14669 0.13538,0.29211 0.20889,0.43616c0.02543,0.04983 0.05256,0.09812 0.0813,0.14495c0.09738,-0.00552 0.19379,-0.02073 0.28893,-0.04895c1.42916,-0.42395 2.66667,-1.33333 4,-2c1.03185,-0.04247 2.07137,-0.23852 3.09972,-0.2111c0.1006,-0.36602 0.11142,-0.76283 0.17577,-1.13961c-2.78914,0.70092 -5.41666,1.35967 -7.86808,1.97255c0.00402,0.28192 0.00855,0.56393 0.01347,0.846zM217.27977,172.72846c-0.54887,0.11358 -1.09952,0.22319 -1.65156,0.32975c0.34004,0.05201 0.68004,0.10423 1.02002,0.15668c0.22182,-0.03752 0.44353,-0.07561 0.66513,-0.11425c-0.01009,-0.125 -0.02123,-0.24911 -0.03358,-0.37218zM284.14964,197.0207c-0.00193,0.00835 0.02824,0.00745 0.088,-0.00202z" fill="#37f50a"/></g></g></svg>