<svg version="1.1" xmlns="http://www.w3.org/2000/svg" xmlns:xlink="http://www.w3.org/1999/xlink" width="49.03008" height="63.59951" viewBox="0,0,49.03008,63.59951"><g transform="translate(-219.46646,-136.38469)"><g data-paper-data="{&quot;isPaintingLayer&quot;:true}" fill="#9966ff" fill-rule="nonzero" stroke="none" stroke-width="0.5" stroke-linecap="butt" stroke-linejoin="miter" stroke-miterlimit="10" stroke-dasharray="" stroke-dashoffset="0" style="mix-blend-mode: normal"><path d="M253.48438,162.95588c0.53143,0.34804 1,0.9618 1,2.04412c0,0.79249 -0.25121,1.33376 -0.59437,1.70345c5.49439,2.31438 11.09699,5.05853 13.40032,10.38281c1.36765,3.16142 1.95056,7.41761 -0.31918,10.43122c-2.09513,2.78178 -8.0778,4.52705 -11.03665,5.79493c-2.85163,1.12205 -5.80435,2.01346 -8.55814,3.35788c-1.63585,0.79863 -2.99968,2.15735 -4.72465,2.73899c-2.86421,0.96579 -6.08105,0.52305 -9.06779,0.05843c-1.41924,-0.22078 -2.92457,-0.56167 -4.06132,-1.43961c-1.40451,-1.08475 -1.99849,-2.96004 -3.25626,-4.21197c-1.66249,-1.65477 -4.21016,-2.4854 -5.40859,-4.50181c-1.65333,-2.7818 -1.37337,-4.34675 -1.37337,-7.31433c0,-8.6709 3.88619,-13.70369 10.59997,-18.70449c-0.29849,0.12728 -0.66063,0.20449 -1.09997,0.20449c-2.5,0 -2.5,-2.5 -2.5,-2.5c0,-5.66119 -0.13534,-11.34114 0,-17c0.08617,-3.60304 -0.52784,-5.33626 3.54329,-7.3097c1.18819,-0.57596 2.63677,-0.15419 3.95671,-0.1903c2.66567,-0.07292 5.33334,-0.00537 8,0c2.67658,0.00539 7.32228,-0.35539 9.56432,1.5499c3.67484,3.12288 2.90743,6.9058 2.93568,10.9501c0.01723,2.46678 0.3605,4.96508 -0.03228,7.40046c-0.3016,1.87002 -0.99124,3.70551 -0.96772,5.59954c0,0.31863 0,0.63725 0,0.95588zM248.48438,162c0.02051,-2.16096 0.66426,-4.27097 1.03228,-6.40046c0.37463,-2.16774 -0.04974,-4.39974 -0.03228,-6.59954c0.01106,-1.39311 0.69622,-5.64362 -1.06432,-7.0499c-0.8679,-0.69325 -5.91556,-0.45123 -6.43568,-0.4501c-2.73709,0.0059 -7.22821,-0.66819 -10.04329,-0.1903c-1.22427,0.20783 -0.46544,2.41308 -0.45671,2.6903c0.04197,1.33267 0,2.66667 0,4c0,4.33333 0,8.66667 0,13c0,0 0,0.95808 -0.5931,1.68802c1.38725,-1.10698 2.63243,-2.50303 4.30253,-3.05973c1.83159,-0.61053 3.86038,-0.08553 5.79057,-0.12829c0,0 2.5,0 2.5,2.5c0,0.19859 -0.01577,0.3814 -0.04482,0.54969c0.207,0.03581 0.33539,0.0786 0.33539,0.0786l3.16614,1.06201c0.49781,0.24806 1.01356,0.49032 1.54329,0.72927c0,-0.80653 0,-1.61305 0,-2.41958zM240.53625,164.47176c-1.26586,-0.11578 -2.57064,-0.49693 -3.7613,-0.10005c-1.33176,0.44392 -2.17901,1.77092 -3.29057,2.62829c-5.64437,4.35362 -9,7.62612 -9,15c0,1.72552 -0.32807,3.12231 0.62663,4.68567c0.80156,1.31258 3.86333,2.76658 4.59141,3.49819c1.09979,1.10511 1.60129,2.72707 2.74374,3.78803c1.60218,1.48789 4.3518,0.50968 6.53822,0.52811c0.77812,0.00656 1.60394,0.36359 2.33267,0.09071c1.41729,-0.53072 2.49503,-1.73242 3.85028,-2.40597c0.11789,-0.05859 8.26474,-3.26031 8.86693,-3.49716c1.86932,-0.80126 7.2929,-2.37253 8.96335,-4.20507c2.19635,-2.40946 -1.14814,-7.06539 -2.69324,-8.6087c-1.83379,-1.83166 -4.77821,-2.46974 -6.979,-3.44681c-1.04007,-0.46175 -7.05066,-3.49151 -8.2977,-4.11731l-2.83386,-0.93799c0,0 -2.19572,-0.73191 -1.65756,-2.89995z"/></g></g></svg>