<svg version="1.1" xmlns="http://www.w3.org/2000/svg" xmlns:xlink="http://www.w3.org/1999/xlink" width="104" height="199" viewBox="0,0,104,199"><g transform="translate(-186.98437,-40)"><g data-paper-data="{&quot;isPaintingLayer&quot;:true}" fill-rule="nonzero" stroke="#000000" stroke-width="2" stroke-linecap="butt" stroke-linejoin="miter" stroke-miterlimit="10" stroke-dasharray="" stroke-dashoffset="0" style="mix-blend-mode: normal"><path d="M289.98438,191.5c0,25.68124 -22.83348,46.5 -51,46.5c-28.16652,0 -51,-20.81876 -51,-46.5c0,-25.68124 22.83348,-46.5 51,-46.5c28.16652,0 51,20.81876 51,46.5z" fill="#ff6666"/><path d="M223.98438,147v-57h30v57z" fill="#c300ff"/><path d="M255.98438,188.5c0,8.56041 -6.49187,15.5 -14.5,15.5c-8.00813,0 -14.5,-6.93959 -14.5,-15.5c0,-8.56041 6.49187,-15.5 14.5,-15.5c8.00813,0 14.5,6.93959 14.5,15.5z" fill="#000000"/><path d="M237.98438,132c0,2.20914 -1.567,4 -3.5,4c-1.933,0 -3.5,-1.79086 -3.5,-4c0,-2.20914 1.567,-4 3.5,-4c1.933,0 3.5,1.79086 3.5,4z" fill="#000000"/><path d="M234.98438,113.5c0,0.82843 -0.44772,1.5 -1,1.5c-0.55228,0 -1,-0.67157 -1,-1.5c0,-0.82843 0.44772,-1.5 1,-1.5c0.55228,0 1,0.67157 1,1.5z" fill="#000000"/><path d="M245.98438,124.5c0,0.27614 -0.44772,0.5 -1,0.5c-0.55228,0 -1,-0.22386 -1,-0.5c0,-0.27614 0.44772,-0.5 1,-0.5c0.55228,0 1,0.22386 1,0.5z" fill="#000000"/><path d="M245.98438,102.5c0,0.82843 -0.89543,1.5 -2,1.5c-1.10457,0 -2,-0.67157 -2,-1.5c0,-0.82843 0.89543,-1.5 2,-1.5c1.10457,0 2,0.67157 2,1.5z" fill="#000000"/><path d="M234.98438,100c0,1.10457 -0.67157,2 -1.5,2c-0.82843,0 -1.5,-0.89543 -1.5,-2c0,-1.10457 0.67157,-2 1.5,-2c0.82843,0 1.5,0.89543 1.5,2z" fill="#000000"/><path d="M246.98438,132.5c0,1.933 -1.11929,3.5 -2.5,3.5c-1.38071,0 -2.5,-1.567 -2.5,-3.5c0,-1.933 1.11929,-3.5 2.5,-3.5c1.38071,0 2.5,1.567 2.5,3.5z" fill="#000000"/><path d="M281.98438,190c0,6.07513 -3.13401,11 -7,11c-3.86599,0 -7,-4.92487 -7,-11c0,-6.07513 3.13401,-11 7,-11c3.86599,0 7,4.92487 7,11z" fill="#000000"/><path d="M233.98438,211c0,4.41828 -2.91015,8 -6.5,8c-3.58985,0 -6.5,-3.58172 -6.5,-8c0,-4.41828 2.91015,-8 6.5,-8c3.58985,0 6.5,3.58172 6.5,8z" fill="#000000"/><path d="M205.98438,175.5c0,-3.58985 2.68629,-6.5 6,-6.5c3.31371,0 6,2.91015 6,6.5c0,3.58985 -2.68629,6.5 -6,6.5c-3.31371,0 -6,-2.91015 -6,-6.5z" fill="#000000"/><path d="M223.98438,63v-22h32v22z" fill="#ffde00"/></g></g></svg>