<svg version="1.1" xmlns="http://www.w3.org/2000/svg" xmlns:xlink="http://www.w3.org/1999/xlink" width="165" height="216.24819" viewBox="0,0,165,216.24819"><g transform="translate(-135.98438,-55)"><g data-paper-data="{&quot;isPaintingLayer&quot;:true}" fill-rule="nonzero" stroke="#000000" stroke-width="2" stroke-linecap="butt" stroke-linejoin="miter" stroke-miterlimit="10" stroke-dasharray="" stroke-dashoffset="0" style="mix-blend-mode: normal"><path d="M136.98438,270.24818v-89.23357h163v89.23358z" fill="#ff0000"/><path d="M143.98438,178v-28h21v28z" fill="#ff0000"/><path d="M187.98438,178v-29h19v29z" fill="#ff0000"/><path d="M226.98438,179v-30h20v30z" fill="#ff0000"/><path d="M259.98438,179v-31h18v31z" fill="#ff0000"/><path d="M284.98438,179v-31h15v31z" fill="#ff0000"/><path d="M207.98438,177v-28h17v28z" fill="#ff0000"/><path d="M166.98438,178v-28h17v28z" fill="#ff0000"/><path d="M247.98438,179v-30h10v30z" fill="#ff0000"/><path d="M146.98438,100v-43h14v43z" fill="#ffea00"/><path d="M167.98438,98v-42h10v42z" fill="#ffea00"/><path d="M183.98438,95v-39h10v39z" fill="#ffea00"/><path d="M198.98438,91v-34h13v34z" fill="#ffea00"/><path d="M218.98438,90v-33h12v33z" fill="#ffea00"/><path d="M237.98438,90v-33h9v33z" fill="#ffea00"/><path d="M252.98438,88v-32h7v32z" fill="#ffea00"/><path d="M265.98438,85v-27h13v27z" fill="#ffea00"/><path d="M285.98438,84v-26h11v26z" fill="#ffea00"/></g></g></svg>