<svg version="1.1" xmlns="http://www.w3.org/2000/svg" xmlns:xlink="http://www.w3.org/1999/xlink" width="165" height="157.24819" viewBox="0,0,165,157.24819"><g transform="translate(-135.98438,-114)"><g data-paper-data="{&quot;isPaintingLayer&quot;:true}" fill-rule="nonzero" stroke="#000000" stroke-width="2" stroke-linecap="butt" stroke-linejoin="miter" stroke-miterlimit="10" stroke-dasharray="" stroke-dashoffset="0" style="mix-blend-mode: normal"><path d="M136.98438,270.24818v-89.23357h163v89.23358z" fill="#ff0000"/><path d="M143.98438,178v-28h21v28z" fill="#ff0000"/><path d="M187.98438,178v-29h19v29z" fill="#ff0000"/><path d="M226.98438,179v-30h20v30z" fill="#ff0000"/><path d="M259.98438,179v-31h18v31z" fill="#ff0000"/><path d="M284.98438,179v-31h15v31z" fill="#ff0000"/><path d="M207.98438,177v-28h17v28z" fill="#ff0000"/><path d="M166.98438,178v-28h17v28z" fill="#ff0000"/><path d="M247.98438,179v-30h10v30z" fill="#ff0000"/><path d="M145.98438,144v-28h14v28z" fill="#ffea00"/><path d="M169.98438,144v-28h14v28z" fill="#ffea00"/><path d="M192.98438,142v-27h11v27z" fill="#ffea00"/><path d="M212.98438,142v-26h10v26z" fill="#ffea00"/><path d="M230.98438,142v-25h13v25z" fill="#ffea00"/><path d="M249.98438,140v-23h7v23z" fill="#ffea00"/><path d="M263.98438,139v-20h8v20z" fill="#ffea00"/><path d="M287.98438,143v-25h11v25z" fill="#ffea00"/></g></g></svg>