<svg version="1.1" xmlns="http://www.w3.org/2000/svg" xmlns:xlink="http://www.w3.org/1999/xlink" width="165" height="183.24819" viewBox="0,0,165,183.24819"><g transform="translate(-135.98438,-88)"><g data-paper-data="{&quot;isPaintingLayer&quot;:true}" fill-rule="nonzero" stroke="#000000" stroke-width="2" stroke-linecap="butt" stroke-linejoin="miter" stroke-miterlimit="10" stroke-dasharray="" stroke-dashoffset="0" style="mix-blend-mode: normal"><path d="M136.98438,270.24818v-89.23357h163v89.23358z" fill="#ff0000"/><path d="M143.98438,178v-28h21v28z" fill="#ff0000"/><path d="M187.98438,178v-29h19v29z" fill="#ff0000"/><path d="M226.98438,179v-30h20v30z" fill="#ff0000"/><path d="M259.98438,179v-31h18v31z" fill="#ff0000"/><path d="M284.98438,179v-31h15v31z" fill="#ff0000"/><path d="M207.98438,177v-28h17v28z" fill="#ff0000"/><path d="M166.98438,178v-28h17v28z" fill="#ff0000"/><path d="M247.98438,179v-30h10v30z" fill="#ff0000"/><path d="M148.98438,110v-20h13v20z" fill="#ffea00"/><path d="M169.98438,107v-16h11v16z" fill="#ffea00"/><path d="M187.98438,105v-14h13v14z" fill="#ffea00"/><path d="M206.98438,106v-14h13v14z" fill="#ffea00"/><path d="M225.98438,105v-15h14v15z" fill="#ffea00"/><path d="M245.98438,102v-13h9v13z" fill="#ffea00"/><path d="M262.98438,100v-10h14v10z" fill="#ffea00"/><path d="M284.98438,100v-9h11v9z" fill="#ffea00"/></g></g></svg>