<svg version="1.1" xmlns="http://www.w3.org/2000/svg" xmlns:xlink="http://www.w3.org/1999/xlink" width="60.58556" height="149.796" viewBox="0,0,60.58556,149.796"><g transform="translate(-206.20722,-105.5)"><g data-paper-data="{&quot;isPaintingLayer&quot;:true}" fill-rule="nonzero" stroke="none" stroke-width="1" stroke-linecap="butt" stroke-linejoin="miter" stroke-miterlimit="10" stroke-dasharray="" stroke-dashoffset="0" style="mix-blend-mode: normal"><g data-paper-data="{&quot;index&quot;:null}"><g><g><path d="M220.1,201.5c-1.2,1.1 -1.8,0.7 -1.8,0.7c-1.2,0.4 -2.1,-0.5 -2.1,-0.5c-1.4,0.5 -1.7,-0.7 -1.7,-0.7c-1.2,0 -1.2,-0.6 -1,-1.7v-0.1c-1,0.2 -1.2,-0.7 -0.5,-1.6c0.7,-1 1.3,-2.4 1.5,-3.1c0.4,-1.3 2,-2.5 2,-2.5l4,1.3c0.5,1.7 0.5,4.3 0,5.7c0.9,0.6 0.2,1.8 -0.4,2.5z" fill="#a2b04a"/><path d="M214.8,197.6c0,0 0.2,-0.1 0.5,-0.2c0.3,-0.1 0.7,-0.2 1.1,-0.4c0.4,-0.1 0.7,-0.3 1,-0.5c0.3,-0.1 0.5,-0.3 0.5,-0.3c0,0 0,0.1 0,0.2c0,0.1 -0.1,0.2 -0.2,0.4c-0.1,0.2 -0.2,0.3 -0.4,0.5c-0.2,0.1 -0.4,0.3 -0.6,0.4c-0.5,0.2 -0.9,0.2 -1.3,0.1c-0.3,-0.1 -0.6,-0.2 -0.6,-0.2z" fill="#698237"/></g><g><g><path d="M220.3,199c0.1,0 0.2,0.1 0.3,0.1c0.7,0.7 0,1.8 -0.6,2.4c-1.2,1.1 -1.8,0.7 -1.8,0.7c-1.2,0.4 -2.1,-0.5 -2.1,-0.5c-1.4,0.5 -1.7,-0.7 -1.7,-0.7c-0.2,0 -0.4,0 -0.5,0c-0.1,-0.3 -0.1,-0.5 0,-0.7c0,0 0.8,-2.4 1.5,-2.4c0.3,0 1,0.2 0.9,0.9c0.1,-0.2 0.4,-0.4 0.9,-0.2c0.2,0 0.5,1.3 -0.4,2.6c0,0 0.4,0.1 0.7,-0.6c0.4,-0.7 0.7,-2.1 1.4,-2c0.3,0 0.6,0.6 0.4,1.5c0.1,-0.4 0.3,-1.1 1,-1.1z" fill="#a2b04a"/><path d="M214.2,201c0,0 0.1,0 0.3,-0.1c0.2,-0.1 0.4,-0.2 0.6,-0.4c0.2,-0.2 0.4,-0.5 0.6,-0.9c0.1,-0.2 0.2,-0.4 0.3,-0.6c0.1,-0.2 0.2,-0.4 0.2,-0.6c0,-0.1 0,-0.2 -0.1,-0.2c-0.1,-0.1 -0.3,-0.1 -0.4,-0.1c-0.1,0 -0.2,0 -0.3,0.2c-0.1,0.1 -0.2,0.3 -0.3,0.4c-0.4,0.5 -0.7,0.9 -0.7,0.9c0,0 0.1,-0.4 0.4,-1c0.1,-0.2 0.1,-0.3 0.3,-0.5c0.1,-0.1 0.1,-0.1 0.2,-0.3c0.1,-0.1 0.3,-0.2 0.4,-0.2c0.3,0 0.6,0 0.8,0.2c0.2,0.2 0.5,0.5 0.4,0.9c-0.1,0.3 -0.2,0.4 -0.3,0.7c-0.1,0.2 -0.2,0.4 -0.3,0.6c-0.2,0.4 -0.5,0.7 -0.8,0.9c-0.5,0 -0.8,0.1 -1,0.1c-0.2,0 -0.3,0 -0.3,0z" fill="#698237"/><path d="M216.3,198.6c0,0 0,-0.1 0.1,-0.2c0.1,-0.1 0.3,-0.3 0.7,-0.2c0.2,0 0.4,0.2 0.5,0.4c0.1,0.2 0.2,0.4 0.2,0.6c0,0.2 0,0.4 0,0.6c0,0.2 -0.1,0.4 -0.1,0.5c-0.1,0.4 -0.3,0.7 -0.5,1c-0.2,0.3 -0.5,0.5 -0.8,0.6c-0.5,0.2 -0.9,0.1 -0.9,0.1c0,0 0.4,-0.1 0.7,-0.4c0.4,-0.3 0.7,-0.8 0.9,-1.4c0,-0.2 0.1,-0.3 0.1,-0.5c0,-0.2 0,-0.3 0,-0.4c0,-0.3 0,-0.4 -0.2,-0.5c-0.1,-0.1 -0.3,-0.1 -0.5,-0.1c-0.1,-0.1 -0.2,-0.1 -0.2,-0.1z" fill="#698237"/><path d="M217.1,202.2c0,0 0.1,0 0.4,0c0.2,0 0.5,-0.1 0.8,-0.3c0.1,-0.1 0.2,-0.2 0.3,-0.4c0.1,-0.2 0.1,-0.4 0.2,-0.6c0.1,-0.5 0.2,-1 0.2,-1.4c0,-0.2 0,-0.5 -0.1,-0.5c0,0 -0.2,-0.1 -0.3,0c-0.1,0.1 -0.3,0.3 -0.4,0.4c-0.1,0.2 -0.2,0.4 -0.3,0.5c-0.2,0.4 -0.3,0.6 -0.4,0.9c-0.1,0.2 -0.2,0.3 -0.2,0.3c0,0 0,-0.5 0.2,-1.3c0,-0.2 0.1,-0.4 0.2,-0.6c0.1,-0.2 0.2,-0.5 0.4,-0.7c0.3,-0.2 0.7,-0.3 1.1,0c0.3,0.3 0.3,0.7 0.3,1c0,0.6 -0.2,1.1 -0.3,1.6c-0.1,0.5 -0.4,1 -0.8,1.2c-0.4,0.2 -0.8,0.2 -1,0.2c-0.1,-0.2 -0.3,-0.3 -0.3,-0.3z" fill="#698237"/><path d="M219.1,199.6c0,0 0.2,-0.6 0.9,-0.8c0.2,-0.1 0.4,-0.1 0.6,0c0.2,0.1 0.3,0.3 0.3,0.4c0,0.1 0,0.2 0,0.3c0,0.1 0,0.1 0,0.1c0,0 -0.1,-0.1 -0.3,-0.2c-0.1,-0.1 -0.2,-0.1 -0.2,-0.1c-0.1,0 -0.1,0 -0.2,0.1c-0.2,0.1 -0.3,0.3 -0.5,0.4c-0.1,0.1 -0.2,0.2 -0.2,0.2z" fill="#698237"/></g><g><path d="M213.5,199.1c-1,0.2 -1.2,-0.7 -0.5,-1.6c0.6,-0.8 1.1,-2.1 1.4,-2.8c0.2,-0.1 0.4,-0.1 0.5,-0.1c0.6,0.3 2.3,-0.3 -0.4,3.3c-0.4,0.6 -0.7,1.1 -1,1.2z" fill="#a2b04a"/><path d="M213.1,199.2c0,0 0.2,-0.1 0.4,-0.3c0.2,-0.2 0.4,-0.5 0.7,-0.8c0.2,-0.3 0.5,-0.6 0.7,-0.8c0.2,-0.2 0.4,-0.3 0.4,-0.3c0,0 0,0.2 -0.1,0.5c-0.1,0.3 -0.3,0.7 -0.5,1c-0.3,0.3 -0.6,0.6 -1,0.7c-0.4,0.1 -0.7,0 -0.6,0z" fill="#698237"/></g></g></g><g><path d="M228.3,182.6c-1.2,2.1 -2.8,5.6 -3.4,6.9c-2.1,4.4 -8,3.8 -8.6,0.9c-0.3,-1.6 -1,-6.8 2.1,-9.6c0.8,-0.7 0.8,-2.1 1.3,-2.8c1.4,-2.1 3.4,-3.2 4.9,-3c4.3,0.7 5.6,4.2 3.7,7.6z" fill="#d1c1b4"/><path d="M222.3,190.7l-1.3,3c-2.4,0.4 -5.2,-1.6 -5.2,-1.6l1.4,-2.4" fill="#d1c1b4"/><path d="M219.9,192.3c0,0 0.2,0 0.6,0c0.4,0 0.9,0 1.5,-0.3c0.6,-0.2 1.1,-0.7 1.6,-1.3c0.2,-0.3 0.5,-0.7 0.7,-1c0.2,-0.3 0.4,-0.7 0.6,-1.1c0.8,-1.5 1.5,-3.1 2.2,-4.2c0.3,-0.6 0.6,-1 0.8,-1.3c0.2,-0.3 0.4,-0.5 0.4,-0.5c0,0 -0.4,0.8 -0.9,2c-0.5,1.2 -1.1,2.8 -1.9,4.4c-0.2,0.4 -0.4,0.8 -0.7,1.1c-0.2,0.4 -0.5,0.7 -0.8,1c-0.5,0.6 -1.2,1.2 -1.9,1.3c-0.7,0.2 -1.2,0.1 -1.6,0c-0.4,0 -0.6,-0.1 -0.6,-0.1z" fill="#9e8b7b"/><path d="M219.3,178.8c0,0 0,0.2 0,0.6c0,0.4 -0.2,1 -0.8,1.5c-0.2,0.2 -0.4,0.5 -0.6,0.8c-0.2,0.3 -0.4,0.7 -0.5,1c-0.3,0.8 -0.6,1.6 -0.8,2.4c-0.1,0.4 -0.1,0.8 -0.1,1.3c0,0.5 -0.1,0.9 -0.1,1.3c-0.1,0.8 -0.2,1.6 0,2.2c0.1,0.6 0.5,1 0.8,1.2c0.3,0.2 0.6,0.2 0.6,0.2c0,0 -0.1,0 -0.2,0c-0.1,0 -0.3,0 -0.5,-0.1c-0.4,-0.1 -0.9,-0.5 -1.1,-1.2c-0.2,-0.7 -0.2,-1.5 -0.2,-2.4c0,-0.4 0,-0.8 0.1,-1.3c0,-0.4 0,-0.9 0.1,-1.4c0.2,-0.9 0.5,-1.8 0.9,-2.6c0.2,-0.4 0.4,-0.7 0.7,-1.1c0.2,-0.3 0.5,-0.6 0.8,-0.8c0.5,-0.3 0.8,-0.8 0.9,-1.2c0,-0.2 0,-0.4 0,-0.4z" fill="#9e8b7b"/></g><g><path d="M220.9,166.8c0.1,-4 3.6,-12.7 7.6,-12c4,0.7 5.7,3.9 4.5,11.8c-0.6,3.9 -1.4,7.1 -2.4,9.4c-0.3,0.8 -0.1,2 -0.5,2.6c-1.3,1.9 -3.4,2.3 -4.9,2c-2.2,-0.4 -4.2,-1.3 -4.9,-3.1c-0.9,-2.3 0.4,-2.8 0.6,-10.7z" fill="#d1c1b4"/><path d="M231.9,156.5c0,0 0,0.1 0.1,0.2c0.1,0.2 0.2,0.4 0.4,0.7c0.3,0.6 0.7,1.5 1,2.7c0.3,1.2 0.4,2.6 0.3,4.1c-0.1,1.5 -0.3,3.1 -0.7,4.6c-0.3,1.5 -0.7,3.1 -1.2,4.5c-0.2,0.7 -0.5,1.4 -0.8,2c-0.1,0.3 -0.3,0.6 -0.3,0.9c-0.1,0.3 -0.1,0.6 -0.1,0.9c-0.1,0.6 -0.2,1.1 -0.4,1.6c-0.2,0.4 -0.5,0.8 -0.8,1c-0.3,0.2 -0.6,0.3 -0.8,0.3c-0.2,0 -0.3,0.1 -0.3,0.1c0,0 0.1,0 0.3,-0.1c0.2,0 0.4,-0.2 0.7,-0.4c0.3,-0.2 0.5,-0.5 0.7,-1c0.2,-0.4 0.2,-1 0.3,-1.5c0,-0.3 0,-0.6 0.1,-0.9c0,-0.3 0.2,-0.7 0.3,-1c0.2,-0.6 0.4,-1.3 0.6,-2c0.4,-1.4 0.7,-2.9 1.1,-4.5c0.3,-1.5 0.6,-3.1 0.7,-4.5c0.1,-1.4 0.1,-2.8 -0.1,-3.9c-0.2,-1.1 -0.5,-2.1 -0.7,-2.7c-0.3,-0.8 -0.4,-1.1 -0.4,-1.1z" fill="#9e8b7b"/><path d="M221.5,179.2c0,0 -0.2,-0.1 -0.6,-0.4c-0.3,-0.3 -0.7,-0.8 -1,-1.6c-0.1,-0.4 -0.2,-0.8 -0.2,-1.2c0,-0.4 0,-0.9 0.1,-1.4c0.2,-0.9 0.3,-1.9 0.4,-2.9c0.1,-1 0.3,-2 0.3,-2.9c0.1,-0.9 0.2,-1.8 0.3,-2.5c0.1,-0.7 0.2,-1.4 0.3,-1.8c0.1,-0.4 0.2,-0.7 0.2,-0.7c0,0 0,0.2 0,0.7c0,0.4 0,1.1 0,1.8c0,0.7 0,1.6 -0.1,2.6c-0.1,0.9 -0.2,1.9 -0.3,2.9c-0.1,0.5 -0.1,1 -0.2,1.5c-0.1,0.5 -0.2,1 -0.3,1.4c-0.1,0.4 -0.1,0.9 -0.1,1.3c0,0.4 0,0.8 0.1,1.2c0.2,0.7 0.5,1.2 0.7,1.6c0.2,0.3 0.4,0.4 0.4,0.4z" fill="#9e8b7b"/></g></g><g data-paper-data="{&quot;index&quot;:null}"><g><g><path d="M235.4,232.4c-0.5,7.7 -7.9,5.5 -8.3,3.2c-0.4,-2.2 -2.5,-16 0.2,-16.9c8.8,-3.1 8.6,6 8.1,13.7z" fill="#a2b04a"/><path d="M234.7,221.2c0,0 0.2,0.2 0.3,0.6c0.2,0.4 0.4,0.9 0.5,1.6c0.2,0.7 0.3,1.5 0.3,2.4c0,0.9 0,1.8 0,2.8c-0.1,0.9 -0.1,1.9 -0.2,2.8c-0.1,0.9 -0.3,1.7 -0.4,2.4c-0.1,0.7 -0.3,1.3 -0.4,1.7c-0.1,0.4 -0.2,0.6 -0.2,0.6c0,0 0,-0.9 0.1,-2.3c0.1,-1.4 0.3,-3.3 0.3,-5.1c0.1,-0.9 0.1,-1.9 0.1,-2.7c0,-0.4 0,-0.9 0,-1.3c0,-0.4 0,-0.8 -0.1,-1.1c-0.1,-0.7 -0.2,-1.3 -0.3,-1.7c0.1,-0.5 0,-0.7 0,-0.7z" fill="#778c3a"/></g><path d="M235.6,247l-0.1,2.8c-1.5,0.9 -4,0.9 -4,0.9l-0.1,-0.4c-0.8,0 -2.3,0.5 -5.4,1.2c-3.1,0.7 -7.2,-0.7 -7.2,-0.7l-0.1,-0.9c3.5,-6.2 16.1,-3.1 16.9,-2.9z" fill="#17110b"/><path d="M226.7,233c0,0 3,2.6 8.8,-0.1c0,0 -0.2,9.7 -0.2,11.5c0,1.8 1.8,4.1 -2.5,4.6c-4.3,0.5 -2.7,1.3 -7.2,1.5c-4.5,0.2 -6.8,-0.6 -6.8,-0.6c0,0 -0.3,-2.6 1.6,-3.6c1.9,-1 4,-1.1 5.6,-3.1c1.4,-1.9 0.7,-10.2 0.7,-10.2z" fill="#4f3b26"/><path d="M218.7,249.9c0,0 -0.1,-0.3 -0.1,-0.9c0,-0.3 0,-0.6 0.1,-1.1c0.1,-0.4 0.3,-0.9 0.7,-1.2c0.4,-0.4 0.9,-0.6 1.5,-0.8c0.5,-0.2 1.1,-0.4 1.7,-0.6c1.1,-0.4 2.3,-1 3,-2c0.4,-0.5 0.5,-1.1 0.6,-1.7c0.1,-0.6 0.1,-1.3 0.2,-1.9c0.1,-1.2 0.1,-2.4 0.2,-3.4c0.1,-2 0.1,-3.3 0.1,-3.3c0,0 0.1,1.3 0.2,3.3c0,1 0,2.1 0,3.4c0,0.6 -0.1,1.3 -0.2,1.9c-0.1,0.6 -0.3,1.4 -0.7,2c-0.4,0.6 -0.9,1.1 -1.5,1.4c-0.6,0.3 -1.2,0.6 -1.8,0.8c-0.6,0.2 -1.2,0.4 -1.7,0.5c-0.5,0.2 -1,0.3 -1.4,0.6c-0.3,0.3 -0.5,0.7 -0.7,1.1c-0.1,0.4 -0.2,0.7 -0.2,1c0,0.6 0,0.9 0,0.9z" fill="#1f180e"/><path d="M227.4,233.4c0,0 0.1,0 0.3,0.1c0.2,0.1 0.5,0.1 0.8,0.2c0.3,0.1 0.8,0.1 1.2,0.1c0.4,0 0.9,0 1.4,0c0.5,0 0.9,-0.1 1.4,-0.1c0.4,-0.1 0.8,-0.1 1.2,-0.2c0.4,-0.1 0.6,-0.1 0.8,-0.2c0.2,0 0.3,-0.1 0.3,-0.1c0,0 -0.1,0.1 -0.3,0.2c-0.2,0.1 -0.5,0.3 -0.8,0.4c-0.3,0.1 -0.7,0.3 -1.2,0.4c-0.4,0.1 -0.9,0.2 -1.4,0.2c-0.5,0 -1,0 -1.4,-0.1c-0.5,-0.1 -0.9,-0.2 -1.2,-0.3c-0.7,-0.3 -1.1,-0.6 -1.1,-0.6z" fill="#1f180e"/><path d="M235.4,234.2c0,0 0.1,1 0.1,2.6c0,0.8 0,1.7 0,2.7c0,1 0,2 0,3.1c0,0.5 0,1 0,1.5c0,0.5 0.1,1 0.2,1.5c0.1,0.5 0.1,1 0.1,1.5c0,0.5 -0.2,0.9 -0.6,1.2c-0.3,0.3 -0.7,0.5 -1,0.5c-0.3,0.1 -0.6,0.1 -0.8,0.2c-0.5,0 -0.7,0 -0.7,0c0,0 0.3,0 0.7,-0.1c0.2,-0.1 0.5,-0.1 0.8,-0.3c0.3,-0.1 0.6,-0.3 0.8,-0.6c0.2,-0.3 0.4,-0.6 0.4,-1.1c0,-0.4 -0.1,-0.9 -0.2,-1.3c-0.1,-0.5 -0.2,-1 -0.2,-1.5c0,-0.5 0,-1 0,-1.6c0,-1 0,-2.1 0.1,-3.1c0,-1 0.1,-1.9 0.1,-2.7c0,-1.4 0.2,-2.5 0.2,-2.5z" fill="#1f180e"/><path d="M223,245.5c0,0 0.2,0 0.5,0.1c0.3,0.1 0.6,0.3 0.9,0.5c0.3,0.2 0.5,0.5 0.7,0.8c0.1,0.2 0.2,0.4 0.2,0.4c0,0 -0.2,-0.1 -0.4,-0.2c-0.1,-0.1 -0.3,-0.1 -0.4,-0.2c-0.1,-0.1 -0.3,-0.2 -0.4,-0.3c-0.3,-0.2 -0.5,-0.5 -0.7,-0.7c-0.3,-0.2 -0.4,-0.4 -0.4,-0.4z" fill="#1f180e"/><path d="M225.9,243.3c0,0 0.2,-0.1 0.4,-0.1c0.3,0 0.6,0 0.9,0.1c0.2,0.1 0.3,0.1 0.4,0.2c0.1,0.1 0.2,0.2 0.3,0.3c0.2,0.2 0.2,0.4 0.2,0.4c0,0 -0.7,-0.1 -1.2,-0.3c-0.1,-0.1 -0.3,-0.1 -0.4,-0.1c-0.1,0 -0.3,-0.1 -0.4,-0.2c0,-0.2 -0.2,-0.3 -0.2,-0.3z" fill="#1f180e"/><path d="M226.7,239.8c0,0 0.2,0 0.5,0c0.3,0 0.6,0 1,0c0.7,0 1.4,0.1 1.4,0.1c0,0 -0.2,0.1 -0.4,0.3c-0.3,0.1 -0.6,0.2 -1,0.2c-0.2,0 -0.4,0 -0.6,-0.1c-0.2,0 -0.3,-0.1 -0.5,-0.2c-0.3,-0.1 -0.4,-0.3 -0.4,-0.3z" fill="#1f180e"/><path d="M226.8,235.8c0,0 0.2,0 0.5,0c0.1,0 0.3,0 0.4,0c0.2,0 0.3,0 0.5,0.1c0.3,0 0.7,0.1 0.9,0.1c0.1,0 0.2,0 0.3,0c0.1,0 0.1,0 0.1,0c0,0 -0.1,0.2 -0.4,0.3c-0.1,0.1 -0.3,0.1 -0.5,0.1c-0.2,0 -0.4,0 -0.6,0c-0.4,0 -0.7,-0.2 -1,-0.4c-0.1,-0.1 -0.2,-0.2 -0.2,-0.2z" fill="#1f180e"/><path d="M231.5,249c0,0 -0.1,-0.4 -0.1,-1c0,-0.3 0.1,-0.7 0.2,-1.1c0.1,-0.4 0.3,-0.8 0.6,-1.1c0.1,-0.2 0.3,-0.3 0.4,-0.5c0.1,-0.2 0.3,-0.3 0.5,-0.4c0.2,-0.1 0.4,-0.2 0.5,-0.3c0.2,-0.1 0.3,-0.1 0.5,-0.2c0.3,-0.1 0.6,-0.1 0.8,-0.1c0.2,0 0.3,0 0.3,0c0,0 -0.4,0.1 -0.9,0.4c-0.1,0.1 -0.3,0.1 -0.4,0.2c-0.1,0.1 -0.3,0.2 -0.4,0.3c-0.3,0.2 -0.6,0.5 -0.8,0.8c-0.2,0.3 -0.4,0.6 -0.6,0.9c-0.2,0.3 -0.3,0.6 -0.4,0.9c-0.1,0.8 -0.2,1.2 -0.2,1.2z" fill="#1f180e"/></g><g><g><path d="M235.1,204.8c2.7,6 1.5,18.4 -6.8,18.5c-3.5,0.1 -3.5,-9.2 -4.1,-13.9c-1,-8.9 8.3,-10.6 10.9,-4.6z" fill="#a2b04a"/><path d="M236.7,211.4c0,0 0.1,0.5 0,1.3c0,0.8 -0.1,1.8 -0.4,2.9c-0.2,1 -0.6,2 -1,2.7c-0.1,0.2 -0.2,0.3 -0.3,0.5c-0.1,0.1 -0.2,0.2 -0.3,0.3c-0.2,0.2 -0.2,0.3 -0.2,0.3c0,0 0,-0.1 0.1,-0.3c0.1,-0.1 0.1,-0.2 0.2,-0.4c0,-0.2 0.1,-0.3 0.2,-0.5c0.2,-0.7 0.5,-1.7 0.7,-2.7c0.2,-1 0.5,-2 0.6,-2.8c0.3,-0.8 0.4,-1.3 0.4,-1.3z" fill="#778c3a"/><path d="M224.4,210.7c0,0 0.1,0.7 0.3,1.7c0.2,1 0.3,2.4 0.5,3.8c0.1,0.7 0.2,1.4 0.3,2c0.1,0.6 0.2,1.2 0.3,1.7c0.1,0.5 0.2,0.9 0.3,1.2c0.1,0.3 0.2,0.4 0.2,0.4c0,0 -0.1,-0.1 -0.3,-0.4c-0.2,-0.3 -0.4,-0.7 -0.6,-1.2c-0.4,-1 -0.6,-2.4 -0.8,-3.7c-0.2,-1.4 -0.2,-2.8 -0.2,-3.8c-0.1,-1 0,-1.7 0,-1.7z" fill="#778c3a"/></g><g><path d="M220.5,213c-0.8,-11 0.6,-22.3 5.8,-24c10.8,-3.4 13.8,5.9 14.4,23.4c-5.4,1.8 -14.7,2.1 -20.2,0.6z" fill="#4f3b26"/><path d="M220.5,213c0,0 1.3,0.2 3.2,0.4c0.9,0.1 2.1,0.1 3.2,0.2c1.2,0.1 2.5,0.1 3.7,0c0.6,0 1.3,-0.1 1.9,-0.1c0.6,0 1.2,-0.1 1.8,-0.2c0.6,-0.1 1.2,-0.1 1.7,-0.2c0.5,-0.1 1.1,-0.1 1.5,-0.2c0.9,-0.1 1.7,-0.3 2.3,-0.4c0.6,-0.1 0.9,-0.2 0.9,-0.2c0,0 -0.3,0.1 -0.8,0.3c-0.5,0.2 -1.3,0.4 -2.2,0.6c-0.5,0.1 -1,0.2 -1.5,0.3c-0.5,0.1 -1.1,0.2 -1.7,0.3c-0.6,0.1 -1.2,0.2 -1.8,0.2c-0.6,0 -1.3,0.1 -1.9,0.1c-1.3,0 -2.6,0 -3.8,-0.1c-1.2,-0.1 -2.3,-0.2 -3.3,-0.4c-2,-0.2 -3.2,-0.6 -3.2,-0.6z" fill="#1f180e"/><path d="M220.5,210.1c0,0 1.2,0.3 3.1,0.5c0.9,0.1 2,0.2 3.2,0.3c1.2,0.1 2.4,0.1 3.7,0c0.6,0 1.3,-0.1 1.9,-0.1c0.6,0 1.2,-0.1 1.8,-0.2c0.6,-0.1 1.1,-0.2 1.7,-0.2c0.5,-0.1 1,-0.2 1.5,-0.3c0.5,-0.1 0.9,-0.2 1.3,-0.2c0.4,-0.1 0.7,-0.2 1,-0.2c0.5,-0.1 0.9,-0.2 0.9,-0.2c0,0 -0.3,0.1 -0.8,0.3c-0.5,0.2 -1.3,0.5 -2.2,0.7c-0.5,0.1 -1,0.3 -1.5,0.4c-0.5,0.1 -1.1,0.2 -1.7,0.3c-0.6,0.1 -1.2,0.2 -1.8,0.2c-0.6,0 -1.3,0.1 -1.9,0.1c-1.3,0 -2.6,0 -3.8,-0.1c-0.6,0 -1.2,-0.1 -1.7,-0.2c-0.5,-0.1 -1.1,-0.2 -1.5,-0.3c-2,-0.3 -3.2,-0.8 -3.2,-0.8z" fill="#1f180e"/><path d="M238.7,196.3c0,0 0.3,0.9 0.6,2.2c0.3,1.4 0.7,3.2 1,5c0.3,1.8 0.4,3.7 0.4,5.1c0,1.4 -0.1,2.3 -0.1,2.3c0,0 -0.1,-0.9 -0.3,-2.3c-0.2,-1.4 -0.4,-3.2 -0.7,-5c-0.3,-1.8 -0.5,-3.7 -0.7,-5c0,-1.4 -0.2,-2.3 -0.2,-2.3z" fill="#25592d"/><path d="M220.5,212c0,0 -0.1,-0.6 -0.2,-1.4c-0.1,-0.9 -0.2,-2 -0.1,-3.1c0,-0.6 0,-1.1 0.1,-1.7c0,-0.5 0.1,-1 0.2,-1.5c0.2,-0.9 0.4,-1.4 0.4,-1.4c0,0 -0.1,0.6 -0.1,1.4c0,0.8 0,2 0,3.1c0,0.6 0,1.1 0,1.7c0,0.5 -0.1,1 -0.1,1.5c-0.2,0.8 -0.2,1.4 -0.2,1.4z" fill="#1f180e"/></g></g></g><g data-paper-data="{&quot;index&quot;:null}"><g><path d="M252.4,181.4c0,0 5.9,7.2 3.4,17.8c-2.6,10.5 -27.5,9.6 -33.2,0.4c-2.9,-4.6 0.1,-13.4 2.3,-17.1c4.7,-8.1 27.5,-1.1 27.5,-1.1z" fill="#4f3b26"/><path d="M227.6,203.8c0,0 0.9,0.4 2.3,0.8c0.7,0.2 1.5,0.5 2.4,0.7c0.9,0.2 1.8,0.5 2.8,0.6c1,0.2 1.9,0.4 2.9,0.5c0.9,0.1 1.8,0.2 2.5,0.2c0.7,0 1.4,0.1 1.8,0.1c0.4,0 0.7,0 0.7,0c0,0 -0.2,0 -0.7,0.1c-0.4,0.1 -1.1,0.1 -1.8,0.2c-0.4,0 -0.8,0 -1.2,0c-0.4,0 -0.9,0 -1.4,-0.1c-0.9,-0.1 -1.9,-0.2 -2.9,-0.4c-1,-0.2 -1.9,-0.5 -2.8,-0.7c-0.9,-0.3 -1.7,-0.6 -2.4,-0.9c-0.7,-0.3 -1.2,-0.6 -1.6,-0.8c-0.4,-0.2 -0.6,-0.3 -0.6,-0.3z" fill="#1f180e"/><path d="M222.9,187.3c0,0 0.5,0.3 1.3,0.6c0.8,0.4 2.1,0.8 3.6,1.2c1.5,0.4 3.3,0.8 5.3,1.1c1.9,0.3 4,0.6 6.1,0.6c2.1,0.1 4.2,0 6.1,-0.3c1,-0.1 1.9,-0.4 2.8,-0.6c0.9,-0.3 1.7,-0.5 2.4,-0.9c0.7,-0.3 1.3,-0.7 1.9,-1c0.3,-0.2 0.5,-0.4 0.7,-0.5c0.2,-0.2 0.4,-0.3 0.6,-0.5c0.4,-0.3 0.6,-0.6 0.8,-0.8c0.2,-0.2 0.3,-0.3 0.3,-0.3c0,0 -0.1,0.1 -0.2,0.3c-0.2,0.2 -0.4,0.5 -0.7,0.8c-0.2,0.2 -0.3,0.3 -0.5,0.5c-0.2,0.2 -0.5,0.4 -0.7,0.6c-0.5,0.4 -1.1,0.8 -1.8,1.2c-0.7,0.4 -1.5,0.7 -2.4,1c-0.9,0.3 -1.8,0.5 -2.8,0.7c-2,0.3 -4.1,0.4 -6.2,0.4c-2.1,-0.1 -4.2,-0.4 -6.2,-0.7c-2,-0.4 -3.7,-0.9 -5.3,-1.3c-1.5,-0.5 -2.7,-1 -3.6,-1.4c-1.1,-0.4 -1.5,-0.7 -1.5,-0.7z" fill="#1f180e"/></g><g><path d="M251.7,156.2c3.7,3.7 7.5,22.2 1.4,28.6c-6.1,6.4 -27.3,3.2 -29.4,-1c-2.1,-4.2 1.5,-9 1.7,-15.6c0.6,-18.8 21.5,-16.8 26.3,-12z" fill="#d1c1b4"/><path d="M248.4,187.4c0,0 0.3,-0.1 0.9,-0.4c0.3,-0.1 0.7,-0.3 1,-0.5c0.2,-0.1 0.4,-0.2 0.6,-0.3c0.2,-0.1 0.4,-0.2 0.7,-0.4c0.4,-0.3 0.9,-0.7 1.3,-1.1c0.4,-0.4 0.8,-1 1.1,-1.5c0.1,-0.3 0.3,-0.6 0.4,-0.9c0.1,-0.3 0.2,-0.7 0.3,-1c0.1,-0.3 0.2,-0.7 0.2,-1c0.1,-0.4 0.1,-0.7 0.2,-1.1c0,-0.7 0.2,-1.4 0.1,-2.1c0,-0.7 0,-1.4 -0.1,-2.1c-0.1,-0.7 -0.1,-1.3 -0.2,-1.9c-0.1,-0.6 -0.2,-1.2 -0.2,-1.7c-0.1,-1.1 -0.3,-2 -0.4,-2.6c-0.1,-0.6 -0.2,-1 -0.2,-1c0,0 0.1,0.3 0.3,1c0.1,0.6 0.5,1.5 0.7,2.6c0.1,0.5 0.2,1.1 0.3,1.7c0.1,0.6 0.2,1.3 0.3,2c0.1,0.7 0.1,1.4 0.1,2.1c0,0.7 -0.1,1.5 -0.1,2.2c0,0.4 -0.1,0.7 -0.2,1.1c-0.1,0.4 -0.1,0.7 -0.3,1.1c-0.1,0.3 -0.2,0.7 -0.4,1c-0.2,0.3 -0.3,0.6 -0.5,1c-0.4,0.6 -0.8,1.2 -1.2,1.6c-0.5,0.4 -1,0.8 -1.4,1.1c-0.5,0.3 -1,0.5 -1.4,0.6c-0.4,0.2 -0.8,0.3 -1.1,0.4c-0.4,0.1 -0.8,0.1 -0.8,0.1z" fill="#9e8b7b"/></g><path d="M241.8,190.5c0,0 -3,-31.8 4.2,-36.9l2.1,0.7c0,0 -7.2,8.9 -3.9,36z" fill="#4f3b26"/><path d="M223.9,186.9c0,0 -2.1,-25.5 5.7,-29.6c0,0 -4.2,5.3 -3.1,30.4z" fill="#4f3b26"/></g><g data-paper-data="{&quot;index&quot;:null}"><g><g><path d="M252.4,236c-0.5,7.7 -7.9,5.5 -8.3,3.2c-0.4,-2.3 -3,-16.1 -0.2,-17.1c9.4,-3.3 9,6.1 8.5,13.9z" fill="#a2b04a"/><path d="M251.7,224.5c0,0 0.2,0.2 0.3,0.6c0.2,0.4 0.4,1 0.5,1.7c0.1,0.7 0.3,1.5 0.3,2.4c0,0.9 0,1.9 0,2.8c-0.1,1 -0.1,1.9 -0.2,2.8c-0.1,0.9 -0.3,1.7 -0.4,2.4c-0.1,0.7 -0.3,1.3 -0.4,1.7c-0.1,0.4 -0.2,0.6 -0.2,0.6c0,0 0,-1 0.1,-2.4c0.1,-1.4 0.3,-3.3 0.3,-5.2c0,-0.9 0.1,-1.9 0.1,-2.8c0,-0.9 0,-1.7 -0.1,-2.4c-0.1,-0.7 -0.2,-1.3 -0.3,-1.7c0.1,-0.3 0,-0.5 0,-0.5z" fill="#778c3a"/></g><path d="M252.6,250.6l-0.1,2.8c-1.5,0.9 -4,0.9 -4,0.9l-0.1,-0.4c-0.8,0 -2.3,0.5 -5.4,1.2c-3.1,0.7 -7.2,-0.7 -7.2,-0.7l-0.1,-0.9c3.5,-6.2 16.1,-3.1 16.9,-2.9z" fill="#17110b"/><path d="M243.7,236.6c0,0 3,2.6 8.8,-0.1c0,0 -0.2,9.7 -0.2,11.5c0,1.8 1.8,4.1 -2.5,4.6c-4.3,0.5 -2.7,1.3 -7.2,1.5c-4.5,0.2 -6.8,-0.6 -6.8,-0.6c0,0 -0.3,-2.6 1.6,-3.6c1.9,-1 4,-1.1 5.6,-3.1c1.4,-1.9 0.7,-10.2 0.7,-10.2z" fill="#4f3b26"/><path d="M235.7,253.5c0,0 -0.1,-0.3 -0.1,-0.9c0,-0.3 0,-0.6 0.1,-1.1c0.1,-0.4 0.3,-0.9 0.7,-1.2c0.4,-0.4 0.9,-0.6 1.5,-0.8c0.5,-0.2 1.1,-0.4 1.7,-0.6c1.1,-0.4 2.3,-1 3,-2c0.4,-0.5 0.5,-1.1 0.6,-1.7c0.1,-0.6 0.1,-1.3 0.2,-1.9c0.1,-1.2 0.1,-2.4 0.2,-3.4c0.1,-2 0.1,-3.3 0.1,-3.3c0,0 0.1,1.3 0.2,3.3c0,1 0.1,2.1 0,3.4c0,0.6 -0.1,1.3 -0.2,1.9c-0.1,0.6 -0.3,1.4 -0.7,2c-0.4,0.6 -0.9,1.1 -1.5,1.4c-0.6,0.3 -1.2,0.6 -1.8,0.8c-0.6,0.2 -1.2,0.4 -1.7,0.5c-0.5,0.2 -1,0.3 -1.4,0.6c-0.3,0.3 -0.5,0.7 -0.7,1.1c-0.1,0.4 -0.2,0.7 -0.2,1c0,0.6 0,0.9 0,0.9z" fill="#1f180e"/><path d="M244.4,237c0,0 0.1,0 0.3,0.1c0.2,0.1 0.5,0.1 0.8,0.2c0.3,0.1 0.8,0.1 1.2,0.1c0.4,0 0.9,0 1.4,0c0.5,0 0.9,-0.1 1.4,-0.1c0.4,-0.1 0.8,-0.1 1.2,-0.2c0.4,-0.1 0.6,-0.1 0.8,-0.2c0.2,0 0.3,-0.1 0.3,-0.1c0,0 -0.1,0.1 -0.3,0.2c-0.2,0.1 -0.4,0.3 -0.8,0.4c-0.3,0.1 -0.7,0.3 -1.2,0.4c-0.4,0.1 -0.9,0.2 -1.4,0.2c-0.5,0 -1,0 -1.4,-0.1c-0.5,-0.1 -0.9,-0.2 -1.2,-0.3c-0.8,-0.3 -1.1,-0.6 -1.1,-0.6z" fill="#1f180e"/><path d="M252.3,237.8c0,0 0.1,1 0.1,2.6c0,0.8 0,1.7 0,2.7c0,1 0,2 0,3.1c0,0.5 0,1 0,1.5c0,0.5 0.1,1 0.2,1.5c0.1,0.5 0.1,1 0.1,1.5c0,0.5 -0.2,0.9 -0.5,1.2c-0.3,0.3 -0.7,0.5 -1,0.5c-0.3,0.1 -0.6,0.1 -0.8,0.2c-0.5,0 -0.7,0 -0.7,0c0,0 0.3,0 0.7,-0.1c0.2,-0.1 0.5,-0.1 0.8,-0.3c0.3,-0.1 0.6,-0.3 0.8,-0.6c0.2,-0.3 0.4,-0.6 0.4,-1.1c0,-0.4 -0.1,-0.9 -0.2,-1.3c-0.1,-0.5 -0.2,-1 -0.2,-1.5c0,-0.5 0,-1 0,-1.6c0,-1 0,-2.1 0.1,-3.1c0,-1 0.1,-1.9 0.1,-2.7c0,-1.5 0.1,-2.5 0.1,-2.5z" fill="#1f180e"/><path d="M240,249.1c0,0 0.2,0 0.5,0.1c0.3,0.1 0.6,0.3 0.9,0.5c0.3,0.2 0.5,0.5 0.7,0.8c0.1,0.2 0.2,0.4 0.2,0.4c0,0 -0.2,-0.1 -0.4,-0.2c-0.1,-0.1 -0.3,-0.1 -0.4,-0.2c-0.1,-0.1 -0.3,-0.2 -0.4,-0.3c-0.3,-0.2 -0.5,-0.5 -0.7,-0.7c-0.3,-0.3 -0.4,-0.4 -0.4,-0.4z" fill="#1f180e"/><path d="M242.9,246.8c0,0 0.2,-0.1 0.4,-0.1c0.3,0 0.6,0 0.9,0.1c0.2,0.1 0.3,0.1 0.4,0.2c0.1,0.1 0.2,0.2 0.3,0.3c0.2,0.2 0.2,0.4 0.2,0.4c0,0 -0.7,-0.1 -1.2,-0.3c-0.1,-0.1 -0.3,-0.1 -0.4,-0.1c-0.1,0 -0.3,-0.1 -0.4,-0.2c0,-0.2 -0.2,-0.3 -0.2,-0.3z" fill="#1f180e"/><path d="M243.7,243.4c0,0 0.2,0 0.5,0c0.3,0 0.6,0 1,0c0.7,0 1.4,0.1 1.4,0.1c0,0 -0.2,0.1 -0.4,0.3c-0.3,0.1 -0.6,0.2 -1,0.2c-0.2,0 -0.4,0 -0.6,-0.1c-0.2,0 -0.3,-0.1 -0.5,-0.2c-0.3,-0.1 -0.4,-0.3 -0.4,-0.3z" fill="#1f180e"/><path d="M243.7,239.4c0,0 0.2,0 0.5,0c0.1,0 0.3,0 0.4,0c0.2,0 0.3,0 0.5,0.1c0.3,0 0.7,0.1 0.9,0.1c0.1,0 0.2,0 0.3,0c0.1,0 0.1,0 0.1,0c0,0 -0.1,0.2 -0.4,0.3c-0.1,0.1 -0.3,0.1 -0.5,0.1c-0.2,0 -0.4,0 -0.6,0c-0.4,0 -0.7,-0.2 -1,-0.4c0,-0.1 -0.2,-0.2 -0.2,-0.2z" fill="#1f180e"/><path d="M248.5,252.6c0,0 -0.1,-0.4 -0.1,-1c0,-0.3 0.1,-0.7 0.2,-1.1c0.1,-0.4 0.3,-0.8 0.6,-1.1c0.1,-0.2 0.3,-0.3 0.4,-0.5c0.1,-0.2 0.3,-0.3 0.5,-0.4c0.2,-0.1 0.4,-0.2 0.5,-0.3c0.2,-0.1 0.3,-0.1 0.5,-0.2c0.3,-0.1 0.6,-0.1 0.8,-0.1c0.2,0 0.3,0 0.3,0c0,0 -0.4,0.1 -0.9,0.4c-0.1,0.1 -0.3,0.1 -0.4,0.2c-0.1,0.1 -0.3,0.2 -0.4,0.3c-0.3,0.2 -0.6,0.5 -0.8,0.8c-0.2,0.3 -0.4,0.6 -0.6,1c-0.1,0.3 -0.3,0.6 -0.4,0.9c-0.1,0.7 -0.2,1.1 -0.2,1.1z" fill="#1f180e"/></g><g><g><path d="M252.1,208.4c2.7,6 1.5,18.4 -6.8,18.5c-3.5,0.1 -3.5,-9.2 -4.1,-13.9c-1.1,-8.9 8.2,-10.7 10.9,-4.6z" fill="#a2b04a"/><path d="M253.7,214.9c0,0 0.1,0.5 0,1.3c0,0.8 -0.1,1.8 -0.4,2.9c-0.2,1 -0.6,2 -1,2.7c-0.1,0.2 -0.2,0.3 -0.3,0.5c-0.1,0.1 -0.2,0.2 -0.3,0.3c-0.2,0.2 -0.2,0.3 -0.2,0.3c0,0 0,-0.1 0.1,-0.3c0.1,-0.1 0.1,-0.2 0.2,-0.4c0,-0.2 0.1,-0.3 0.2,-0.5c0.2,-0.7 0.5,-1.7 0.7,-2.7c0.2,-1 0.5,-2 0.6,-2.8c0.2,-0.7 0.4,-1.3 0.4,-1.3z" fill="#778c3a"/><path d="M241.3,214.2c0,0 0.1,0.7 0.3,1.6c0.1,1 0.3,2.3 0.5,3.6c0.1,0.6 0.2,1.3 0.2,1.9c0.1,0.6 0.2,1.2 0.3,1.6c0.1,0.5 0.2,0.9 0.3,1.1c0.1,0.3 0.2,0.4 0.2,0.4c0,0 -0.1,-0.1 -0.3,-0.3c-0.2,-0.2 -0.4,-0.6 -0.5,-1.1c-0.4,-0.9 -0.6,-2.3 -0.8,-3.6c-0.2,-1.3 -0.2,-2.6 -0.2,-3.6c0,-0.9 0,-1.6 0,-1.6z" fill="#778c3a"/></g><g><path d="M237.5,216.6c-0.8,-11 2.7,-22.9 7.9,-24.6c10.8,-3.4 11.7,6.5 12.3,24c-5.5,1.7 -14.7,2.1 -20.2,0.6z" fill="#4f3b26"/><path d="M237.5,216.6c0,0 1.3,0.2 3.2,0.4c0.9,0.1 2.1,0.1 3.2,0.2c1.2,0 2.5,0 3.7,0c0.6,0 1.3,-0.1 1.9,-0.1c0.6,0 1.2,-0.1 1.8,-0.2c0.6,-0.1 1.2,-0.1 1.7,-0.2c0.5,-0.1 1.1,-0.1 1.5,-0.2c0.9,-0.1 1.7,-0.3 2.3,-0.4c0.6,-0.1 0.9,-0.2 0.9,-0.2c0,0 -0.3,0.1 -0.8,0.3c-0.5,0.2 -1.3,0.4 -2.2,0.6c-0.5,0.1 -1,0.2 -1.5,0.3c-0.5,0.1 -1.1,0.2 -1.7,0.3c-0.6,0.1 -1.2,0.2 -1.8,0.2c-0.6,0 -1.3,0.1 -1.9,0.1c-1.3,0 -2.6,0 -3.8,-0.1c-1.2,-0.1 -2.3,-0.2 -3.3,-0.4c-2,-0.2 -3.2,-0.6 -3.2,-0.6z" fill="#1f180e"/><path d="M237.4,213.7c0,0 1.2,0.3 3.1,0.5c0.9,0.1 2,0.2 3.2,0.3c1.2,0.1 2.4,0.1 3.7,0c0.6,0 1.3,-0.1 1.9,-0.1c0.6,0 1.2,-0.1 1.8,-0.2c0.6,-0.1 1.1,-0.2 1.7,-0.2c0.5,-0.1 1,-0.2 1.5,-0.3c0.5,-0.1 0.9,-0.2 1.3,-0.2c0.4,-0.1 0.7,-0.2 1,-0.2c0.5,-0.1 0.9,-0.2 0.9,-0.2c0,0 -0.3,0.1 -0.8,0.3c-0.5,0.2 -1.3,0.5 -2.2,0.7c-0.5,0.1 -1,0.3 -1.5,0.4c-0.5,0.1 -1.1,0.2 -1.7,0.3c-0.6,0.1 -1.2,0.2 -1.8,0.2c-0.6,0 -1.3,0.1 -1.9,0.1c-1.3,0 -2.6,0 -3.8,-0.1c-0.6,0 -1.2,-0.1 -1.7,-0.2c-0.5,-0.1 -1.1,-0.2 -1.5,-0.3c-2,-0.3 -3.2,-0.8 -3.2,-0.8z" fill="#1f180e"/><path d="M256.3,199.6c0,0 0.2,0.9 0.5,2.3c0.1,0.7 0.3,1.5 0.4,2.4c0.1,0.9 0.2,1.8 0.3,2.7c0.1,0.9 0.1,1.9 0.2,2.8c0.1,0.9 0.1,1.7 0.1,2.4c0,1.4 -0.1,2.4 -0.1,2.4c0,0 0,-0.2 -0.1,-0.6c0,-0.4 -0.1,-1 -0.2,-1.7c-0.1,-1.4 -0.3,-3.3 -0.5,-5.1c-0.1,-0.9 -0.2,-1.9 -0.2,-2.7c-0.1,-0.9 -0.1,-1.7 -0.2,-2.4c-0.1,-1.6 -0.2,-2.5 -0.2,-2.5z" fill="#1f180e"/><path d="M237.4,215.6c0,0 -0.1,-0.6 -0.2,-1.4c-0.1,-0.9 -0.2,-2 -0.1,-3.1c0,-0.6 0,-1.1 0.1,-1.7c0,-0.5 0.1,-1 0.2,-1.5c0.2,-0.9 0.4,-1.4 0.4,-1.4c0,0 -0.1,0.6 -0.1,1.4c0,0.8 0,2 0,3.1c0,0.6 0,1.1 0,1.7c0,0.5 -0.1,1 -0.1,1.5c-0.1,0.8 -0.2,1.4 -0.2,1.4z" fill="#1f180e"/></g></g></g><g data-paper-data="{&quot;index&quot;:null}"><g><g><path d="M262.3,195c0,0 3,2.1 4,6.2c0.3,1 0.4,1.6 -0.7,1.8c0,0 -0.1,1.2 -1.6,0.9c0,0 -0.8,1 -2,0.8c0,0 -1,0.9 -2.4,0c-0.7,-0.5 -1.2,-2 -0.4,-2.7c-0.9,-1.1 -2.1,-2.8 -0.8,-6.2" fill="#a2b04a"/><path d="M258.7,200.7c0,0 0.2,0.2 0.4,0.5c0.2,0.3 0.4,0.7 0.6,1.1c0.2,0.4 0.3,0.8 0.4,1.1c0.1,0.2 0.1,0.3 0.1,0.4c0,0.1 0.1,0.1 0.1,0.1c0,0 -0.1,0 -0.2,-0.1c-0.1,-0.1 -0.2,-0.1 -0.4,-0.3c-0.3,-0.3 -0.5,-0.6 -0.7,-1.1c-0.2,-0.4 -0.3,-0.9 -0.4,-1.2c0.1,-0.3 0.1,-0.5 0.1,-0.5z" fill="#698237"/><path d="M262.2,203.4c0,0 0.1,0.1 0.2,0.3c0.1,0.2 0.1,0.5 0,0.8c-0.1,0.3 -0.3,0.5 -0.6,0.6c-0.2,0.1 -0.4,0 -0.4,0c0,0 0.1,-0.1 0.2,-0.3c0.1,-0.2 0.1,-0.3 0.2,-0.5c0.1,-0.2 0.1,-0.4 0.2,-0.6c0.1,-0.1 0.2,-0.3 0.2,-0.3z" fill="#698237"/><path d="M264.1,202.8c0,0 0.1,0.1 0.2,0.3c0.1,0.2 0.1,0.5 0,0.8c-0.1,0.3 -0.3,0.5 -0.5,0.6c-0.2,0.1 -0.4,0 -0.4,0c0,0 0.1,-0.1 0.1,-0.3c0.1,-0.2 0.1,-0.3 0.2,-0.5c0.1,-0.2 0.1,-0.4 0.2,-0.6c0.1,-0.1 0.2,-0.3 0.2,-0.3z" fill="#698237"/><path d="M265.6,202c0,0 0.1,0.1 0.2,0.3c0.1,0.2 0.2,0.4 0.1,0.7c0,0.3 -0.1,0.5 -0.3,0.7c-0.2,0.2 -0.4,0.1 -0.4,0.1c0,0 0.1,-0.1 0,-0.3c0,-0.2 0,-0.4 0,-0.6c0,-0.2 0.1,-0.4 0.1,-0.6c0.2,-0.2 0.3,-0.3 0.3,-0.3z" fill="#698237"/><path d="M259.8,202.9c0,0 0.1,0.1 0.1,0.2c0,0.1 0,0.2 0,0.3c0,0.1 -0.1,0.2 -0.2,0.2c-0.1,0.1 -0.2,0.1 -0.2,0.1c0,0 -0.1,-0.1 -0.2,-0.2c-0.1,-0.1 -0.1,-0.3 0,-0.4c0.1,-0.1 0.2,-0.2 0.3,-0.3c0.1,0.1 0.2,0.1 0.2,0.1z" fill="#698237"/><path d="M266.5,202.2c0,0 -0.2,-0.4 -0.4,-0.9c-0.2,-0.6 -0.5,-1.3 -0.8,-2c-0.3,-0.7 -0.6,-1.5 -0.9,-2c-0.1,-0.3 -0.2,-0.5 -0.3,-0.7c-0.1,-0.2 -0.1,-0.3 -0.1,-0.3c0,0 0.3,0.3 0.7,0.7c0.4,0.5 0.8,1.2 1.2,2c0.3,0.8 0.5,1.6 0.6,2.2c0,0.6 0,1 0,1z" fill="#698237"/></g><path d="M259.4,200c0.4,2.3 -0.4,3.8 -1.1,3.3c-0.7,-0.5 -0.3,-3.1 -0.5,-4.5c-0.1,-0.8 1.3,-0.9 1.6,1.2z" fill="#a2b04a"/><path d="M258.4,203.3c0,0 0.1,0 0.2,0c0.1,0 0.3,-0.1 0.4,-0.2c0.2,-0.3 0.2,-0.9 0.2,-1.4c0,-0.6 0,-1.1 0.1,-1.6c0,-0.4 0.1,-0.7 0.1,-0.7c0,0 0.1,0.3 0.3,0.7c0.1,0.4 0.2,1 0.2,1.6c0,0.6 -0.1,1.3 -0.6,1.6c-0.2,0.2 -0.5,0.1 -0.6,0.1c-0.3,-0.1 -0.3,-0.1 -0.3,-0.1z" fill="#698237"/></g><g><path d="M263,181.3c0.2,2.6 0.8,6.7 1,8.2c0.7,5.2 -4.7,7.7 -6.8,5.3c-1.1,-1.3 -4.6,-5.8 -3.5,-10c0.3,-1.1 -0.4,-2.4 -0.4,-3.3c0,-2.7 1.1,-4.8 2.5,-5.3c4.1,-1.5 7.1,1 7.2,5.1z" fill="#d1c1b4"/><path d="M262.7,192l0.5,3.5c-1.8,1.6 -5.4,1.2 -5.4,1.2l-0.2,-3" fill="#d1c1b4"/><path d="M261.4,194.7c0,0 0.2,-0.1 0.5,-0.3c0.3,-0.2 0.8,-0.5 1.2,-1.1c0.3,-0.5 0.5,-1.3 0.6,-2.1c0,-0.4 0,-0.9 0,-1.3c0,-0.4 -0.1,-0.9 -0.1,-1.3c-0.2,-1.8 -0.4,-3.6 -0.5,-5c-0.1,-0.7 0,-1.3 0,-1.7c0,-0.4 0.1,-0.6 0.1,-0.6c0,0 0.1,0.9 0.3,2.2c0.2,1.3 0.6,3.1 0.8,5c0,0.5 0.1,0.9 0.1,1.4c0,0.5 0,0.9 0,1.3c-0.1,0.9 -0.4,1.7 -0.8,2.3c-0.5,0.6 -1,0.8 -1.4,1c-0.6,0.1 -0.8,0.2 -0.8,0.2z" fill="#9e8b7b"/><path d="M253.4,182.5c0,0 0.1,0.2 0.3,0.6c0.2,0.4 0.4,1 0.1,1.8c-0.1,0.3 -0.1,0.7 -0.1,1.1c0,0.4 0.1,0.8 0.1,1.3c0.1,0.9 0.4,1.8 0.7,2.6c0.2,0.4 0.4,0.8 0.6,1.3c0.2,0.4 0.4,0.9 0.6,1.3c0.4,0.8 0.7,1.6 1.2,2.1c0.4,0.5 1,0.8 1.4,0.7c0.4,0 0.6,-0.1 0.6,-0.1c0,0 -0.1,0 -0.2,0.1c-0.1,0 -0.3,0.1 -0.5,0.1c-0.4,0.1 -1.1,-0.1 -1.7,-0.6c-0.5,-0.5 -1,-1.3 -1.4,-2.1c-0.2,-0.4 -0.4,-0.8 -0.7,-1.2c-0.2,-0.4 -0.5,-0.9 -0.7,-1.3c-0.3,-0.9 -0.5,-1.9 -0.7,-2.8c-0.1,-0.5 -0.1,-0.9 0,-1.3c0,-0.4 0.1,-0.9 0.2,-1.2c0.3,-0.6 0.2,-1.2 0.1,-1.6c0.2,-0.6 0.1,-0.8 0.1,-0.8z" fill="#9e8b7b"/></g><g><path d="M248,170.5c-2.2,-3.8 -4,-13.6 -0.2,-15c3.8,-1.4 7,0.7 10.5,8.6c1.7,3.9 2.8,7.3 3.2,10c0.1,0.9 1.1,1.9 1.1,2.6c0,2.4 -1.6,3.9 -3.1,4.5c-2.1,0.8 -4.3,0.9 -5.9,-0.4c-2.2,-1.7 -1.3,-2.9 -5.6,-10.3z" fill="#d1c1b4"/><path d="M251.6,155.3c0,0 0.1,0.1 0.3,0.2c0.2,0.1 0.4,0.3 0.7,0.5c0.6,0.4 1.5,1.1 2.3,2c0.9,0.9 1.8,2.1 2.5,3.6c0.8,1.4 1.4,3 2,4.6c0.6,1.6 1.1,3.2 1.5,4.7c0.2,0.8 0.4,1.5 0.5,2.2c0.1,0.4 0.1,0.7 0.2,1c0.1,0.3 0.3,0.6 0.4,0.9c0.3,0.6 0.5,1.1 0.5,1.7c0.1,0.5 0,1 -0.1,1.4c-0.3,0.7 -0.7,0.9 -0.7,0.9c0,0 0.4,-0.3 0.6,-1c0.1,-0.3 0.1,-0.8 0,-1.3c-0.1,-0.5 -0.4,-1 -0.6,-1.6c-0.1,-0.3 -0.3,-0.6 -0.4,-0.9c-0.1,-0.3 -0.2,-0.7 -0.3,-1.1c-0.1,-0.7 -0.4,-1.4 -0.6,-2.2c-0.4,-1.5 -1,-3.1 -1.6,-4.7c-0.6,-1.6 -1.2,-3.1 -1.9,-4.5c-0.7,-1.4 -1.5,-2.6 -2.3,-3.6c-0.8,-0.9 -1.6,-1.7 -2.1,-2.2c-0.5,-0.4 -0.9,-0.6 -0.9,-0.6z" fill="#9e8b7b"/><path d="M255.5,181.7c0,0 -0.3,0 -0.7,-0.1c-0.5,-0.1 -1.1,-0.4 -1.7,-1c-0.3,-0.3 -0.6,-0.6 -0.9,-1c-0.3,-0.4 -0.5,-0.8 -0.7,-1.3c-0.4,-1 -0.8,-1.9 -1.2,-2.9c-0.4,-1 -0.9,-2 -1.3,-2.9c-0.4,-0.9 -0.8,-1.8 -1.2,-2.5c-0.3,-0.7 -0.6,-1.4 -0.8,-1.8c-0.2,-0.4 -0.2,-0.7 -0.2,-0.7c0,0 0.1,0.2 0.3,0.7c0.2,0.4 0.6,1 1,1.7c0.4,0.7 0.9,1.5 1.3,2.4c0.5,0.9 0.9,1.9 1.4,2.8c0.4,1 0.8,2 1.2,2.9c0.2,0.5 0.4,0.9 0.6,1.3c0.2,0.4 0.5,0.7 0.7,1c0.5,0.6 1.1,0.9 1.5,1.1c0.4,0.3 0.7,0.3 0.7,0.3z" fill="#9e8b7b"/></g></g><g data-paper-data="{&quot;index&quot;:null}"><g><path d="M247.2,151.3c9.4,0.6 17.9,15.4 17.9,15.4c-10.8,8 -22.8,9.2 -22.8,9.2c-2.8,-12 -9.3,-19.3 -9.3,-19.3c8.8,-3.9 14.3,-5.3 14.2,-5.3z" fill="#7d543d"/><path d="M248.9,151.6c0,0 0.4,0 1,0.2c0.3,0.1 0.7,0.2 1.1,0.4c0.4,0.2 0.9,0.4 1.3,0.6c0.5,0.2 1,0.6 1.5,0.9c0.5,0.4 1.1,0.7 1.6,1.1c0.5,0.4 1.1,0.9 1.6,1.3c0.5,0.5 1,1 1.5,1.5c0.5,0.5 1,1.1 1.4,1.6c0.5,0.5 0.9,1.1 1.3,1.6c0.9,1 1.5,2.1 2.1,3c0.6,0.9 1,1.7 1.4,2.2c0.3,0.5 0.5,0.8 0.5,0.8c0,0 -0.2,-0.3 -0.6,-0.8c-0.4,-0.5 -0.9,-1.2 -1.5,-2.1c-0.3,-0.4 -0.7,-0.9 -1.1,-1.4c-0.4,-0.5 -0.8,-1 -1.2,-1.5c-0.4,-0.5 -0.9,-1 -1.3,-1.5c-0.5,-0.5 -1,-1 -1.5,-1.5c-0.5,-0.5 -1,-1 -1.5,-1.5c-0.5,-0.5 -1,-0.9 -1.5,-1.3c-0.5,-0.4 -1,-0.8 -1.5,-1.2c-0.5,-0.3 -1,-0.7 -1.4,-0.9c-0.9,-0.6 -1.7,-0.9 -2.3,-1.2c-0.5,-0.3 -0.9,-0.3 -0.9,-0.3z" fill="#523219"/><path d="M234.4,158.3c0,0 0.2,0.2 0.6,0.6c0.3,0.4 0.8,1 1.3,1.8c0.5,0.8 1.1,1.7 1.6,2.7c0.5,1 1.1,2.1 1.6,3.2c0.5,1.1 0.9,2.3 1.3,3.4c0.4,1.1 0.6,2.1 0.9,3c0.3,0.9 0.4,1.6 0.5,2.2c0.1,0.5 0.2,0.8 0.2,0.8c0,0 -0.1,-0.3 -0.3,-0.8c-0.2,-0.5 -0.4,-1.2 -0.7,-2.1c-0.3,-0.9 -0.7,-1.9 -1.1,-2.9c-0.2,-0.5 -0.4,-1.1 -0.6,-1.6c-0.2,-0.6 -0.5,-1.1 -0.7,-1.7c-0.5,-1.1 -1,-2.2 -1.5,-3.2c-0.5,-1 -1,-2 -1.5,-2.7c-0.5,-0.8 -0.8,-1.4 -1.1,-1.9c-0.3,-0.6 -0.5,-0.8 -0.5,-0.8z" fill="#523219"/></g><g><path d="M233.2,156.5c0,0 -4.2,10.1 -7,17.4c0,0 -9.1,-4 -11.1,-8.1c0,0 6.6,-11.6 11,-11.2c0,0.1 5.4,1.9 7.1,1.9z" fill="#7d543d"/><path d="M226.2,173.9c0,0 0.2,-0.9 0.6,-2.2c0.4,-1.3 1,-3.1 1.7,-4.8c0.7,-1.7 1.4,-3.4 2.1,-4.6c0.3,-0.6 0.6,-1.1 0.9,-1.4c0.1,-0.2 0.2,-0.3 0.3,-0.4c0.1,-0.1 0.1,-0.1 0.1,-0.1c0,0 -0.1,0.2 -0.3,0.6c-0.2,0.4 -0.4,0.9 -0.6,1.5c-0.5,1.3 -1.2,3 -1.8,4.7c-0.7,1.7 -1.4,3.4 -1.9,4.7c-0.7,1.2 -1.1,2 -1.1,2z" fill="#523219"/><path d="M215.2,165.8c0,0 0.4,-0.9 1.1,-2.3c0.4,-0.7 0.8,-1.4 1.4,-2.2c0.5,-0.8 1.2,-1.6 1.8,-2.4c0.7,-0.8 1.4,-1.5 2.1,-2.1c0.3,-0.3 0.7,-0.6 1.1,-0.8c0.4,-0.3 0.7,-0.5 1.1,-0.6c0.3,-0.2 0.7,-0.3 1,-0.4c0.3,-0.1 0.6,-0.2 0.8,-0.2c0.4,0 0.7,-0.1 0.7,-0.1c0,0 -0.2,0.1 -0.7,0.2c-0.2,0 -0.5,0.1 -0.7,0.3c-0.3,0.1 -0.6,0.3 -0.9,0.5c-0.3,0.2 -0.7,0.4 -1,0.7c-0.3,0.3 -0.7,0.6 -1,0.9c-0.7,0.6 -1.4,1.4 -2,2.1c-0.7,0.8 -1.3,1.5 -1.8,2.3c-0.6,0.8 -1.1,1.5 -1.5,2.1c-1,1.2 -1.5,2 -1.5,2z" fill="#523219"/></g></g><g data-paper-data="{&quot;index&quot;:null}"><g><path d="M225.1,136.4c-6.7,1.7 -10.4,-3.4 -13.2,-6.2c-2.8,-2.8 -7,-4.3 -5.3,-4.7c1.7,-0.4 4.9,1.9 8.5,1.9c3.6,0 9.3,-0.3 11.6,3.5c1,1.7 1.2,4.8 -1.6,5.5z" fill="#a2b04a"/><path d="M225.3,134.1c0,0 -0.3,0 -0.8,0c-0.5,0 -1.2,-0.1 -2,-0.5c-0.4,-0.2 -0.8,-0.4 -1.2,-0.7c-0.2,-0.2 -0.4,-0.3 -0.5,-0.5c-0.2,-0.2 -0.3,-0.4 -0.5,-0.6c-0.3,-0.4 -0.7,-0.6 -1.2,-0.9c-0.5,-0.2 -0.9,-0.5 -1.5,-0.6c-1,-0.4 -2.1,-0.7 -3.1,-0.9c-1,-0.3 -1.9,-0.5 -2.7,-0.8c-0.8,-0.2 -1.4,-0.5 -1.9,-0.7c-0.4,-0.2 -0.7,-0.3 -0.7,-0.3c0,0 0.3,0.1 0.7,0.2c0.5,0.1 1.1,0.3 1.9,0.5c0.8,0.2 1.7,0.4 2.7,0.6c1,0.2 2.1,0.5 3.1,0.9c0.5,0.2 1,0.4 1.5,0.7c0.2,0.1 0.5,0.3 0.7,0.5c0.2,0.2 0.5,0.4 0.6,0.6l0.3,0.3l0.2,0.3c0.1,0.2 0.3,0.4 0.5,0.5c0.3,0.3 0.7,0.6 1,0.8c0.7,0.4 1.4,0.6 1.8,0.7c0.9,-0.1 1.1,-0.1 1.1,-0.1z" fill="#698237"/><path d="M226.7,131c0,0 -0.3,-0.6 -1,-1.1c-0.4,-0.3 -0.8,-0.6 -1.3,-0.8c-0.5,-0.2 -1.1,-0.5 -1.6,-0.7c-0.6,-0.2 -1.2,-0.3 -1.7,-0.4c-0.6,-0.1 -1.1,-0.2 -1.6,-0.3c-0.5,-0.1 -0.8,-0.1 -1.1,-0.2c-0.3,0 -0.4,-0.1 -0.4,-0.1c0,0 0.2,0 0.4,0c0.3,0 0.7,-0.1 1.1,-0.1c0.5,0 1,0 1.6,0.1c0.6,0.1 1.2,0.2 1.8,0.4c0.6,0.2 1.2,0.5 1.7,0.8c0.5,0.3 1,0.7 1.3,1c0.3,0.4 0.5,0.7 0.7,1c0.1,0.2 0.1,0.4 0.1,0.4z" fill="#698237"/></g><path d="M248.9,126.3c4,16.9 -11.1,29.7 -15.2,30.7c-4.1,1.1 -13.7,-2.8 -18.3,-8.3c-4.6,-5.5 -3.4,-21.4 -0.7,-26.6c4.3,-8.3 30.2,-12.7 34.2,4.2z" fill="#5c3e2c"/><g><path d="M233.6,157c-0.8,0.2 -2,0.2 -3.3,0c1.4,-1.6 1.2,-7 1.2,-7c1.6,-7.4 10.8,-6.1 12.2,-1.5c-3.6,5 -8.1,8.1 -10.1,8.5z" fill="#a2b04a"/><g><path d="M249.6,137.4c-2.5,10.2 -13.8,15.2 -18.5,15c-5.7,-0.2 -9.8,-2.5 -12.8,-6.3c-5.9,-7.6 -1.7,-14 -1.7,-14c0,0 -1,-13.6 7.1,-19.7c7.3,-5.5 20.7,-3.8 25.2,8.2c1.6,4.4 1.7,12.2 0.7,16.8z" fill="#a2b04a"/><path d="M234.2,132.9c0,-1.38071 0.49249,-2.5 1.1,-2.5c0.60751,0 1.1,1.11929 1.1,2.5c0,1.38071 -0.49249,2.5 -1.1,2.5c-0.60751,0 -1.1,-1.11929 -1.1,-2.5z" fill="#382c18"/><path d="M221.7,132.3c0,-1.38071 0.49249,-2.5 1.1,-2.5c0.60751,0 1.1,1.11929 1.1,2.5c0,1.38071 -0.49249,2.5 -1.1,2.5c-0.60751,0 -1.1,-1.11929 -1.1,-2.5z" fill="#382c18"/><path d="M228.3,133.1c0,0 -0.5,1 -1.4,2.5c-0.2,0.4 -0.5,0.8 -0.7,1.2c-0.3,0.4 -0.5,0.9 -0.9,1.3c-0.5,0.4 -1,0.6 -1.5,0.9c-0.5,0.2 -1,0.5 -1.5,0.7c-0.2,0.1 -0.5,0.3 -0.6,0.4c-0.1,0.2 -0.2,0.3 -0.1,0.5c0.1,0.1 0.1,0.2 0.2,0.3c0.1,0.1 0.2,0.2 0.3,0.3c0.2,0.1 0.4,0.3 0.6,0.3c0.9,0.3 2,0.4 2.8,0.4c0.9,0 1.6,0.1 2.1,0.2c0.5,0.1 0.8,0.2 0.8,0.2c0,0 -0.3,-0.1 -0.8,-0.1c-0.5,0 -1.2,0 -2.1,0.1c-0.4,0 -0.9,0 -1.4,0c-0.5,0 -1,-0.1 -1.6,-0.3c-0.3,-0.1 -0.5,-0.2 -0.8,-0.4c-0.2,-0.1 -0.2,-0.2 -0.3,-0.3c-0.1,-0.1 -0.2,-0.3 -0.3,-0.4c-0.2,-0.4 -0.1,-0.8 0.2,-1.1c0.2,-0.3 0.5,-0.4 0.8,-0.6c0.5,-0.3 1.1,-0.5 1.6,-0.7c0.5,-0.2 1,-0.5 1.4,-0.7c0.3,-0.3 0.6,-0.8 0.9,-1.2c0.3,-0.4 0.6,-0.8 0.8,-1.1c0.8,-1.4 1.5,-2.4 1.5,-2.4z" fill="#546626"/><path d="M228.4,141.5c0,0 0.1,0 0.3,0c0.2,0 0.4,0 0.6,0.1c0.1,0.1 0.2,0.1 0.3,0.2c0.1,0.1 0.1,0.1 0.2,0.2c0.1,0.1 0.1,0.3 0.1,0.3c0,0 -0.1,0 -0.3,-0.1c-0.2,0 -0.3,-0.1 -0.5,-0.2c-0.1,-0.1 -0.2,-0.1 -0.3,-0.1c-0.1,0 -0.2,-0.1 -0.2,-0.1c-0.2,-0.2 -0.2,-0.3 -0.2,-0.3z" fill="#546626"/><path d="M226,147.5c0,0 0.1,-0.1 0.2,-0.3c0.2,-0.2 0.4,-0.4 0.7,-0.6c0.3,-0.2 0.8,-0.4 1.3,-0.6c0.5,-0.2 1,-0.3 1.6,-0.3c0.5,-0.1 1.1,-0.1 1.6,0c0.5,0 1,0.1 1.4,0.2c0.4,0.1 0.7,0.2 0.9,0.2c0.2,0.1 0.3,0.1 0.3,0.1c0,0 -0.1,0 -0.4,0c-0.2,0 -0.6,0 -1,0c-0.4,0 -0.8,0 -1.3,0c-0.5,0 -1,0 -1.5,0.1c-1,0.1 -2,0.3 -2.7,0.6c-0.7,0.2 -1.1,0.6 -1.1,0.6z" fill="#546626"/><path d="M219.4,127.3c0,0 0.4,0.1 1,0.3c0.6,0.2 1.4,0.5 2.2,0.9c0.8,0.3 1.5,0.7 2.1,0.9c0.3,0.1 0.5,0.2 0.7,0.3c0.2,0.1 0.3,0.1 0.3,0.1c0,0 -0.4,0.1 -1.1,0c-0.7,-0.1 -1.5,-0.3 -2.3,-0.6c-0.8,-0.3 -1.6,-0.8 -2.1,-1.1c-0.5,-0.5 -0.8,-0.8 -0.8,-0.8z" fill="#546626"/><path d="M238.2,127.6c0,0 -0.3,0.4 -0.8,0.8c-0.5,0.4 -1.3,0.9 -2.2,1.3c-0.9,0.3 -1.8,0.5 -2.5,0.5c-0.3,0 -0.6,0 -0.8,0c-0.2,0 -0.3,0 -0.3,0c0,0 0.1,0 0.3,-0.1c0.2,0 0.5,-0.1 0.8,-0.2c0.6,-0.2 1.5,-0.4 2.3,-0.8c0.8,-0.3 1.6,-0.7 2.2,-1c0.6,-0.3 1,-0.5 1,-0.5z" fill="#546626"/><path d="M219.9,148.1c0,0 0.3,0.2 0.7,0.5c0.5,0.3 1.1,0.7 1.9,1.2c0.4,0.2 0.9,0.5 1.3,0.7c0.5,0.2 1,0.4 1.5,0.6c0.5,0.2 1.1,0.4 1.7,0.5c0.6,0.1 1.2,0.3 1.8,0.3l0.9,0.1c0.3,0 0.6,0 0.9,0c0.6,0 1.2,0 1.8,-0.1c0.6,-0.1 1.1,-0.1 1.6,-0.3c0.5,-0.1 1,-0.2 1.4,-0.4c0.4,-0.2 0.8,-0.3 1.2,-0.4c0.4,-0.1 0.6,-0.3 0.9,-0.4c0.5,-0.2 0.8,-0.4 0.8,-0.4c0,0 -0.3,0.2 -0.7,0.5c-0.2,0.1 -0.5,0.3 -0.9,0.5c-0.3,0.2 -0.7,0.4 -1.2,0.5c-0.4,0.2 -0.9,0.3 -1.5,0.5c-0.5,0.2 -1.1,0.3 -1.7,0.4c-0.6,0 -1.2,0.1 -1.8,0.1c-0.3,0 -0.6,0 -1,0c-0.3,0 -0.6,-0.1 -1,-0.1c-0.6,-0.1 -1.3,-0.3 -1.9,-0.4c-0.6,-0.2 -1.2,-0.4 -1.7,-0.6c-0.6,-0.2 -1.1,-0.5 -1.6,-0.7c-0.5,-0.3 -0.9,-0.5 -1.3,-0.8c-0.8,-0.5 -1.4,-1 -1.8,-1.4c-0.1,-0.2 -0.3,-0.4 -0.3,-0.4z" fill="#698237"/></g></g><g><g><g><path d="M229.6,106.5c7.2,-2.5 12.3,1.1 17.5,0.5c5.2,-0.6 10.2,0.8 10.2,0.8c-2,1.3 -2.8,8.7 -2.8,8.7c0,0 3.1,7.3 3.3,10.5c0.2,4.8 -0.4,17.5 -2.9,21.2c-2,2.8 -21.2,8.9 -21.2,8.9c7.5,-2.9 10.8,-18.9 9.1,-26.5c-1.7,-7.7 -10.4,-12.4 -13.5,-13c-3.1,-0.6 -11.9,-0.2 -14.6,4.5c0,0 3.1,-11.6 14.9,-15.6z" fill="#7d543d"/><path d="M252.1,113.3c0,0 0.4,0.3 0.9,1c0.5,0.7 1.3,1.7 2,3c0.4,0.7 0.7,1.4 1.1,2.2c0.4,0.8 0.7,1.6 1,2.5c0.3,0.9 0.5,1.8 0.7,2.8c0.2,1 0.3,2 0.4,3c0.1,1 0.1,2 0,3c0,1 -0.1,1.9 -0.2,2.9c-0.2,1.9 -0.4,3.6 -0.7,5.1c-0.5,2.9 -1,4.9 -1,4.9c0,0 0.3,-2 0.6,-4.9c0.2,-1.5 0.3,-3.2 0.5,-5.1c0.1,-0.9 0.1,-1.9 0.1,-2.9c0,-1 0,-1.9 -0.1,-2.9c-0.1,-1 -0.2,-1.9 -0.4,-2.9c-0.2,-1 -0.4,-1.9 -0.7,-2.8c-0.5,-1.8 -1.2,-3.4 -1.8,-4.7c-1.1,-2.6 -2.4,-4.2 -2.4,-4.2z" fill="#523219"/><path d="M219.5,118.4c0,0 0.7,-0.2 1.8,-0.5c1.2,-0.3 2.9,-0.7 5,-0.8c1,0 2.2,0 3.4,0.3c1.2,0.2 2.4,0.7 3.5,1.3c2.3,1.2 4.5,3 6.4,5.1c0.9,1.1 1.7,2.2 2.4,3.4c0.1,0.3 0.3,0.6 0.4,0.9c0.1,0.3 0.2,0.7 0.3,1c0.2,0.7 0.4,1.3 0.5,2c0.2,1.3 0.3,2.6 0.3,3.8c0,1.2 -0.1,2.3 -0.1,3.4c-0.2,2.1 -0.5,3.8 -0.8,4.9c-0.3,1.2 -0.5,1.8 -0.5,1.8c0,0 0.2,-0.7 0.4,-1.8c0.2,-1.2 0.4,-2.9 0.5,-5c0.1,-2.1 0.1,-4.5 -0.4,-7c-0.1,-0.6 -0.3,-1.3 -0.5,-1.9c-0.1,-0.3 -0.2,-0.6 -0.3,-0.9c-0.1,-0.3 -0.3,-0.6 -0.4,-0.9c-0.6,-1.1 -1.5,-2.3 -2.3,-3.3c-1.8,-2.1 -3.9,-3.8 -6.2,-5c-1.1,-0.6 -2.2,-1.1 -3.4,-1.4c-1.1,-0.3 -2.2,-0.4 -3.3,-0.4c-2,0 -3.8,0.3 -4.9,0.5c-1.1,0.4 -1.8,0.5 -1.8,0.5z" fill="#523219"/><path d="M232.8,105.8c0,0 0.4,0 1.1,-0.1c0.7,0 1.6,-0.2 2.8,-0.2c1.2,0 2.6,0.1 4,0.4c0.7,0.1 1.4,0.3 2.2,0.5c0.7,0.1 1.5,0.2 2.2,0.2c1.5,0 3.1,-0.1 4.5,-0.1c1.5,0 2.8,0.1 4,0.3c0.6,0.1 1.1,0.2 1.6,0.3c0.5,0.1 0.9,0.2 1.2,0.3c0.6,0.2 1,0.3 1,0.3c0,0 -0.4,-0.1 -1,-0.2c-0.3,-0.1 -0.7,-0.1 -1.2,-0.2c-0.5,-0.1 -1,-0.1 -1.6,-0.2c-0.6,-0.1 -1.2,-0.1 -1.9,-0.1c-0.7,0 -1.4,0 -2.1,0c-1.4,0 -3,0.2 -4.6,0.2c-0.8,0 -1.6,-0.1 -2.4,-0.2c-0.7,-0.1 -1.5,-0.4 -2.2,-0.5c-1.4,-0.3 -2.7,-0.6 -3.9,-0.6c-1.2,-0.1 -2.1,-0.1 -2.8,-0.1c-0.6,0 -0.9,0 -0.9,0z" fill="#523219"/></g><path d="M254.9,148.2c0,0 -0.3,0.3 -0.7,0.7c-0.2,0.2 -0.6,0.4 -0.9,0.7c-0.3,0.3 -0.8,0.5 -1.2,0.8c-0.9,0.6 -2.1,1.2 -3.3,1.7c-1.2,0.6 -2.6,1.1 -3.9,1.7c-1.4,0.5 -2.7,1 -4,1.4c-1.3,0.4 -2.5,0.8 -3.6,1c-2.1,0.6 -3.5,0.8 -3.5,0.8c0,0 1.4,-0.5 3.4,-1.2c1,-0.4 2.2,-0.8 3.5,-1.2c1.3,-0.4 2.6,-0.9 4,-1.5c1.4,-0.5 2.7,-1 3.9,-1.6c1.2,-0.5 2.4,-1 3.3,-1.5c0.5,-0.3 0.9,-0.5 1.3,-0.7c0.4,-0.2 0.7,-0.4 1,-0.6c0.4,-0.3 0.7,-0.5 0.7,-0.5z" fill="#523219"/></g><g fill="#523219"><path d="M247.2,117.4c0,0 0.4,0.3 0.9,0.8c0.5,0.5 1.1,1.3 1.5,2.1c0.5,0.8 0.8,1.7 1,2.4c0.2,0.7 0.2,1.2 0.2,1.2c0,0 -0.1,-0.1 -0.2,-0.3c-0.1,-0.2 -0.2,-0.4 -0.4,-0.8c-0.3,-0.6 -0.8,-1.4 -1.2,-2.2c-0.5,-0.8 -0.9,-1.6 -1.3,-2.2c-0.3,-0.6 -0.5,-1 -0.5,-1z"/><path d="M250,116.3c0,0 0.4,0.3 0.9,0.8c0.5,0.5 1.1,1.3 1.5,2.1c0.5,0.8 0.8,1.7 1,2.4c0.2,0.7 0.2,1.2 0.2,1.2c0,0 -0.1,-0.1 -0.2,-0.3c-0.1,-0.2 -0.2,-0.4 -0.4,-0.8c-0.3,-0.6 -0.8,-1.4 -1.2,-2.2c-0.5,-0.8 -0.9,-1.6 -1.3,-2.2c-0.3,-0.6 -0.5,-1 -0.5,-1z"/><path d="M246.1,121.5c0,0 0.3,-0.4 0.8,-0.9c0.5,-0.5 1.3,-1.1 2.1,-1.5c0.8,-0.5 1.7,-0.8 2.4,-1c0.7,-0.2 1.2,-0.2 1.2,-0.2c0,0 -0.1,0.1 -0.3,0.2c-0.2,0.1 -0.4,0.2 -0.8,0.4c-0.6,0.3 -1.4,0.8 -2.2,1.2c-0.8,0.5 -1.6,0.9 -2.2,1.3c-0.5,0.3 -1,0.5 -1,0.5z"/><path d="M247.6,123.6c0,0 0.3,-0.4 0.8,-0.9c0.5,-0.5 1.3,-1.1 2.1,-1.5c0.8,-0.5 1.7,-0.8 2.4,-1c0.7,-0.2 1.2,-0.2 1.2,-0.2c0,0 -0.1,0.1 -0.3,0.2c-0.2,0.1 -0.4,0.2 -0.8,0.4c-0.6,0.3 -1.4,0.8 -2.2,1.2c-0.8,0.5 -1.6,0.9 -2.2,1.3c-0.6,0.3 -1,0.5 -1,0.5z"/></g></g><g><path d="M246.3,134.5c2.3,-3.8 8,-3.5 11.6,-3.5c3.6,0 6.8,-2.3 8.5,-1.9c1.7,0.4 -2.5,1.9 -5.3,4.7c-2.8,2.8 -6.5,7.9 -13.2,6.2c-2.8,-0.7 -2.6,-3.8 -1.6,-5.5z" fill="#a2b04a"/><path d="M247.7,137.7c0,0 0.3,0 0.7,-0.1c0.5,-0.1 1.1,-0.3 1.8,-0.7c0.3,-0.2 0.7,-0.4 1,-0.8c0.2,-0.2 0.3,-0.3 0.5,-0.5l0.2,-0.3l0.3,-0.3c0.1,-0.2 0.4,-0.4 0.6,-0.6c0.2,-0.2 0.5,-0.3 0.7,-0.5c0.5,-0.3 1,-0.5 1.5,-0.7c1.1,-0.4 2.1,-0.6 3.1,-0.9c1,-0.2 2,-0.4 2.7,-0.6c0.8,-0.2 1.5,-0.4 1.9,-0.5c0.5,-0.1 0.7,-0.2 0.7,-0.2c0,0 -0.2,0.1 -0.7,0.3c-0.4,0.2 -1.1,0.5 -1.9,0.7c-0.8,0.3 -1.7,0.5 -2.7,0.8c-1,0.3 -2.1,0.5 -3.1,0.9c-0.5,0.2 -1,0.4 -1.5,0.6c-0.5,0.3 -0.8,0.5 -1.2,0.9c-0.2,0.2 -0.3,0.4 -0.5,0.6c-0.2,0.2 -0.4,0.4 -0.5,0.5c-0.4,0.3 -0.8,0.6 -1.2,0.7c-0.8,0.4 -1.5,0.4 -2,0.5c-0.1,0.2 -0.4,0.2 -0.4,0.2z" fill="#698237"/><path d="M246.3,134.6c0,0 0,-0.2 0.1,-0.4c0.1,-0.3 0.3,-0.6 0.7,-1c0.3,-0.4 0.8,-0.7 1.3,-1c0.5,-0.3 1.1,-0.6 1.7,-0.8c0.6,-0.2 1.2,-0.3 1.8,-0.4c0.6,-0.1 1.1,-0.1 1.6,-0.1c0.5,0 0.9,0.1 1.1,0.1c0.3,0 0.4,0 0.4,0c0,0 -0.2,0 -0.4,0.1c-0.3,0 -0.7,0.1 -1.1,0.2c-0.5,0.1 -1,0.2 -1.6,0.3c-0.6,0.1 -1.2,0.3 -1.7,0.4c-0.6,0.2 -1.1,0.4 -1.6,0.7c-0.5,0.3 -1,0.5 -1.3,0.8c-0.7,0.5 -1,1.1 -1,1.1z" fill="#698237"/></g></g><g data-paper-data="{&quot;index&quot;:null}"><path d="M228.1,157.9c0,-1.87777 1.52223,-3.4 3.4,-3.4c1.87777,0 3.4,1.52223 3.4,3.4c0,1.87777 -1.52223,3.4 -3.4,3.4c-1.87777,0 -3.4,-1.52223 -3.4,-3.4z" fill="#518237"/><path d="M229.3,158.9c0,0 -0.1,-0.1 -0.1,-0.2c-0.1,-0.1 -0.2,-0.3 -0.3,-0.6c-0.2,-0.5 -0.1,-1.3 0.4,-1.9c0.4,-0.6 1.1,-0.9 1.7,-1c0.3,0 0.5,0 0.6,0c0.1,0 0.2,0 0.2,0c0,0 -0.1,0 -0.2,0.1c-0.1,0 -0.3,0.1 -0.5,0.2c-0.4,0.2 -0.9,0.5 -1.2,1c-0.3,0.5 -0.5,1 -0.5,1.5c0,0.2 0,0.4 0,0.6c-0.1,0.2 -0.1,0.3 -0.1,0.3z" fill="#1e4730"/><path d="M233.5,156.6c0,0 0.1,0.1 0.1,0.2c0.1,0.1 0.2,0.3 0.3,0.6c0.2,0.5 0.1,1.3 -0.4,1.9c-0.4,0.6 -1.1,0.9 -1.7,1c-0.3,0 -0.5,0 -0.6,0c-0.1,0 -0.2,0 -0.2,0c0,0 0.1,0 0.2,-0.1c0.1,0 0.3,-0.1 0.5,-0.2c0.4,-0.2 0.9,-0.5 1.2,-1c0.3,-0.5 0.5,-1 0.5,-1.5c0,-0.2 0,-0.4 0,-0.6c0.1,-0.3 0.1,-0.3 0.1,-0.3z" fill="#1e4730"/><path d="M231,156.8c0,-0.55228 0.44772,-1 1,-1c0.55228,0 1,0.44772 1,1c0,0.55228 -0.44772,1 -1,1c-0.55228,0 -1,-0.44772 -1,-1z" fill="#1e4730"/><path d="M229.7,158.6c0,-0.55228 0.44772,-1 1,-1c0.55228,0 1,0.44772 1,1c0,0.55228 -0.44772,1 -1,1c-0.55228,0 -1,-0.44772 -1,-1z" fill="#1e4730"/></g></g></g></svg>